<svg width="73" height="69" viewBox="0 0 73 69" fill="none" xmlns="http://www.w3.org/2000/svg">
<path opacity="0.4" d="M7.45495 16.6941C21.6232 -2.59554 41.6749 3.57469 49.9297 9.07101C56.0742 12.7154 68.7457 23.1312 70.2765 35.6388C72.19 51.2733 49.3567 63.888 39.5238 64.4981C16.3702 65.9347 -10.2554 40.806 7.45495 16.6941Z" stroke="#1EF79A" stroke-width="3"/>
<path d="M47.5265 23.9696L52.8867 19.587" stroke="#1EF79A" stroke-width="2.30436" stroke-linecap="round"/>
<path d="M17.1318 13.0473L19.7614 16.2634" stroke="#1EF79A" stroke-width="2.30436" stroke-linecap="round"/>
<path d="M32.5334 12.7002L30.998 32.5306M31.2967 35.5885C33.2885 33.5931 37.7996 29.4735 39.9103 28.9585" stroke="#1EF79A" stroke-width="4.60873" stroke-linecap="round"/>
<path opacity="0.5" d="M15.2213 50.2255L19.5094 46.7194M51.097 54.0522L53.6518 56.5038M44.5745 14.9428L45.9541 13.2645M38.1313 8.24048L37.3581 12.1749M25.5174 9.47293L27.8021 13.1086" stroke="#1EF79A" stroke-width="1.53624" stroke-linecap="round"/>
</svg>
