<svg width="152" height="104" viewBox="0 0 152 104" fill="none" xmlns="http://www.w3.org/2000/svg">
<mask id="mask0_1_402" style="mask-type:alpha" maskUnits="userSpaceOnUse" x="0" y="0" width="152" height="104">
<path d="M101.438 0C87.7903 0 77.6889 14.1141 75.5564 20.4655C64.7516 20.4655 49.7841 12.4675 42.4387 9.17418C29.3518 4.93994 7.31571 9.17418 0.49912 38.1081C-7.26779 71.0759 77.9807 112.913 91.4867 102.327C104.993 91.7418 149.776 52.928 151.908 28.934C154.041 4.93994 118.499 0 101.438 0Z" fill="#E789FA"/>
</mask>
<g mask="url(#mask0_1_402)">
<path d="M49.7057 32.513C37.875 2.09124 63.0857 -15.8426 77.1699 -21.0068C85.6203 -22.8847 99.9862 -20.8659 89.8456 2.23209C77.1698 31.1046 94.0708 60.6814 102.521 87.4413C109.282 108.849 101.113 131.572 96.1835 140.257H34.2131L52.5225 107.863C56.5131 95.4223 61.5364 62.9348 49.7057 32.513Z" fill="#E789FA"/>
<path d="M49.7057 32.513C37.875 2.09124 63.0857 -15.8426 77.1699 -21.0068C85.6203 -22.8847 99.9862 -20.8659 89.8456 2.23209C77.1698 31.1046 94.0708 60.6814 102.521 87.4413C109.282 108.849 101.113 131.572 96.1835 140.257H34.2131L52.5225 107.863C56.5131 95.4223 61.5364 62.9348 49.7057 32.513Z" fill="url(#paint0_linear_1_402)"/>
<path d="M85 -1C75.8453 -7.10314 43.9312 8.85166 43.3678 7.16156L-5.92676 42.372L4.63636 103.638L116.5 107L85 -1Z" fill="url(#paint1_linear_1_402)"/>
<path d="M-8.16279 17C-19.9935 -13.4218 5.21717 -31.3556 19.3013 -36.5198C27.7518 -38.3977 144.126 -23.598 133.985 -0.5C121.31 28.3725 138.456 57.1568 146.906 83.9167C153.667 105.325 138.915 131.572 133.985 140.257L-23.6554 124.744L-5.34598 92.3503C-1.35546 79.9093 3.66791 47.4218 -8.16279 17Z" fill="#E789FA"/>
<path d="M-8.16279 17C-19.9935 -13.4218 5.21717 -31.3556 19.3013 -36.5198C27.7518 -38.3977 144.126 -23.598 133.985 -0.5C121.31 28.3725 138.456 57.1568 146.906 83.9167C153.667 105.325 138.915 131.572 133.985 140.257L-23.6554 124.744L-5.34598 92.3503C-1.35546 79.9093 3.66791 47.4218 -8.16279 17Z" fill="url(#paint2_linear_1_402)"/>
<path d="M127.605 22.5068C126.196 7.71845 136.759 -9.88675 152.956 -22.5625L193.8 9.12687C190.983 35.1826 180.279 84.618 159.998 73.914C134.647 60.5341 128.495 31.8598 127.605 22.5068Z" fill="#FFD412"/>
<path d="M127 4.49998C130.169 -9.84502 140.5 -19.5 143.5 -22.5L164.395 -17.5468C158.711 -10.9296 145.69 5.33578 139.074 17.459C132.457 29.5823 140.378 46.5255 144 54L147.45 62.674C147.858 69.4203 148.289 78.0947 138.665 65.1719C126.635 49.0184 123.039 22.4312 127 4.49998Z" fill="#9946F7"/>
<path d="M10.2114 41.6851C-16.7651 42.5568 -4.2611 7.05333 -4.6042 4.96875C13.7758 -0.435379 41.8626 7.64276 42.6929 9.21893C43.7309 11.1891 37.1879 40.8134 10.2114 41.6851Z" fill="#9946F7"/>
<path d="M9.21144 38.5091C-17.765 39.3808 -14.1418 22.3697 -14.4849 20.2851C3.89508 14.881 41.5069 1.92382 42.3373 3.49999C43.3752 5.4702 36.1879 37.6374 9.21144 38.5091Z" fill="#E789FA"/>
</g>
<defs>
<linearGradient id="paint0_linear_1_402" x1="73.969" y1="-30.5221" x2="72.8875" y2="102.494" gradientUnits="userSpaceOnUse">
<stop stop-color="#9946F7"/>
<stop offset="1" stop-color="#E789FA"/>
</linearGradient>
<linearGradient id="paint1_linear_1_402" x1="31.9934" y1="1.33836" x2="31.5165" y2="87.6023" gradientUnits="userSpaceOnUse">
<stop stop-color="#9946F7"/>
<stop offset="1" stop-color="#E789FA"/>
</linearGradient>
<linearGradient id="paint2_linear_1_402" x1="95.7513" y1="-15.9959" x2="94.0856" y2="111.554" gradientUnits="userSpaceOnUse">
<stop stop-color="#9946F7"/>
<stop offset="1" stop-color="#E789FA"/>
</linearGradient>
</defs>
</svg>
