<svg width="528" height="528" viewBox="0 0 528 528" fill="none" xmlns="http://www.w3.org/2000/svg">
<path opacity="0.9" fill-rule="evenodd" clip-rule="evenodd" d="M180.925 164.502C178.454 151.329 176.756 146.797 175.629 135.24C173.32 111.569 168.376 88.1595 166.171 64.6507C165.56 58.1275 164.212 38.7218 161.363 33.6496C161.305 33.5445 161.356 33.3609 161.461 33.3015C163.613 32.092 172.417 33.7005 175.207 33.7795C183.615 34.0183 190.997 31.7235 198.707 30.2378C199.672 30.0518 201.287 36.3152 201.319 36.9754C201.748 45.9031 203.394 54.6182 205.114 63.5634C210.586 92.0337 215.76 120.657 221.239 149.162C221.845 152.31 225.023 176.872 228.567 177.866C228.854 177.947 229.559 171.828 229.628 171.408C230.246 167.652 231.375 163.845 232.404 160.175C235.491 149.17 238.301 138.01 242.025 127.217C248.137 109.501 254.169 91.948 259.241 73.8678C260.144 70.6458 263.554 52.0463 265.628 49.7609C266.066 49.279 268.173 51.5457 268.465 51.6832C273.416 54.0063 278.892 55.92 283.973 57.9103C287.384 59.2455 301.425 59.249 303.295 62.5795C304.237 64.257 296.357 88.6498 295.444 91.9061C288.422 116.939 281.37 142.093 275.751 167.456C274.693 172.232 264.228 192.615 266.725 197.062C266.784 197.166 276.223 188.319 277.826 186.805C284.196 180.785 292.535 176.083 299.831 171.208C319.386 158.144 339.851 144.896 360.334 133.38C367.024 129.618 373.452 124.823 380.222 121.318C384.231 119.242 392.149 114.905 392.149 114.905C393.962 127.1 410.538 139.353 417.017 149.281C418.789 151.996 421.145 155.098 423.356 157.44C424.674 158.835 412.052 166 408.128 168.933C397.399 176.953 382.14 182.2 369.662 187.044C342.456 197.606 315.227 207.036 288.393 218.671C286.384 219.541 263.096 229.95 263.092 229.965C262.929 230.545 264.252 230.29 264.831 230.453C267.258 231.134 269.58 232.274 271.939 233.197C277.455 235.357 282.887 238.087 288.295 240.413C308.098 248.929 326.373 260.675 346.181 269.413C348.45 270.414 366.632 276.093 367.254 277.201C367.501 277.642 365.816 280.14 365.582 280.486C360.615 287.823 357.781 296.534 352.99 303.978C350.824 307.344 348.895 310.775 347.084 314.332C346.788 314.915 344.41 320.199 344.034 319.858C334.792 311.463 324.726 306.833 313.383 300.75C298.778 292.916 285.107 282.786 270.938 274.205C262.348 269.002 253.694 262.937 245.309 257.256C243.577 256.084 233.14 248.482 232.918 249.276C231.939 252.766 234.18 260.369 233.339 265.159C230.364 282.092 227.86 300.106 228.074 317.356C228.205 327.916 229.864 338.938 228.819 349.469C228.144 356.268 232.407 374.122 229.937 382.925C224.739 385.794 189.203 385.882 187.547 382.932C187.119 382.171 188.747 379.309 188.815 378.409C189.391 370.868 190.022 363.212 190.347 355.567C191.58 326.587 195.955 298.159 198.43 269.253C198.854 264.297 207.218 238.583 205.104 234.817C204.963 234.565 199.137 238.113 198.783 238.574C196.895 241.039 195.373 242.86 192.908 244.809C186.778 249.653 179.774 254.067 173.324 258.457C147.838 275.808 119.263 292.194 91.0294 304.435C82.8824 307.968 73.9337 312.196 66.4797 317.067C65.4875 317.715 55.9046 324.844 55.7485 324.566C53.4249 320.427 43.6514 289.019 42.7102 284.125C42.4322 282.677 39.5344 272.48 40.1719 271.777C44.7386 266.744 54.2797 265.131 60.421 262.444C86.0674 251.219 113.801 241.874 140.562 233.503C151.615 230.045 162.589 225.861 173.653 222.517C174.818 222.164 185.68 221.095 185.995 219.973C186.006 219.933 178.143 214.93 177.735 214.654C168.189 208.187 155.624 204.569 144.826 200.918C120.91 192.83 96.381 183.701 71.5909 178.497C70.0833 178.181 45.3931 173.061 44.8685 172.127C43.804 170.231 49.893 162.411 50.6218 160.979C54.5577 153.245 65.7851 129.364 70.7906 123.848C71.5152 123.05 84.8996 126.32 89.7095 127.278C111.493 131.618 130.423 141.684 151.134 149.013C157.297 151.194 167.218 154.235 172.066 158.639C174.043 160.434 176.243 161.192 178.435 162.678C178.879 162.978 181.967 164.794 180.925 164.502Z" fill="#1DD0F0"/>
<path d="M216.5 263.459C244.5 257.459 288.253 275.959 304.586 284.959C307.162 283.826 309.491 282.501 311.5 280.959C314.533 278.564 320.93 272.408 323.222 266.269C322.199 254.919 318.79 232.662 320.5 227.959C322.5 222.459 330.5 214.459 333.5 212.959C336.5 211.459 343.5 203.959 348 196.459C352.5 188.959 369 181.459 383.5 184.459C395.1 186.859 403 183.792 405.5 181.959C408.5 180.292 416.8 178.159 426 182.959C430.028 185.06 433.442 187.775 436.308 190.459C436.552 190.687 436.792 190.916 437.028 191.143C439.903 193.507 447.068 195.925 458 190.459C473 182.959 482 175.459 482 167.959C482 160.459 478.5 156.959 478.5 152.959C478.5 148.959 478.5 146.959 482 148.959C484.827 150.574 499.072 167.523 503.918 176.088C505.449 178.794 505.904 182.032 506.299 185.116C507.125 191.578 505.773 194.313 500 197.959C490.5 203.959 492.5 207.959 465.5 207.959C466 210.459 466.5 225.959 467.5 226.959C468.5 227.959 475.5 232.459 475.5 233.959C475.5 235.459 475.5 239.959 474 239.959C473.757 239.959 473.502 239.894 473.241 239.78C465.741 238.112 447.997 237.042 431 245.069C422.209 249.549 414.294 253.235 407.5 253.419C417.5 258.586 450.333 256.932 465.5 255.459C466.167 255.459 468 256.059 470 258.459C472 260.859 466.915 266.126 464.122 268.459C461.768 270.94 441.802 277.871 424.522 283.44C418.506 285.379 413.646 289.87 411.241 295.715C406.151 308.084 399.308 324.091 396.5 328.459C393.781 332.688 395.264 337.563 397.158 340.845C398.219 342.684 399.44 344.444 400.28 346.394C403.615 354.133 408.5 366.148 408.5 368.959C441 374.959 478 406.959 483.5 409.959C489 412.959 514 412.959 518 413.459C522 413.959 527 418.959 527 422.459C527 425.959 512.5 432.459 502 434.959C496.578 436.25 489.73 431.634 484.882 428.885C455.169 412.035 419.775 397.959 417.5 397.959C415 397.959 397.5 394.459 370 397.959C342.5 401.459 323 401.959 313.5 397.959C311.161 396.974 309.67 395.656 308.775 394.213C304.775 394.713 265.5 396.459 243 391.459C235.908 389.883 229.809 387.313 224.5 384.345C213 408.731 192 421.959 186 426.959C180 431.959 171 432.459 168 432.459C166.328 432.459 163.02 431.776 161.791 432.908C149.123 444.575 128.468 463.89 127 466.459C125 469.959 132 472.459 127 477.959C122 483.459 118 479.959 114 475.459C110 470.959 114 469.959 114 466.459C114 462.959 142.5 430.459 147.5 422.959C150.537 418.404 157.563 420.397 162.836 418.926C166.484 417.908 171.994 415.759 181.5 411.459C198.3 403.859 205.259 381.626 206.639 371.459L206.469 371.317C203.696 369.002 201.24 366.952 199 365.459C191.8 360.659 184.333 361.218 181.5 362.098C175.085 368.241 167.758 374.56 160.5 379.459C140.5 392.959 125 390.959 122 390.459C119 389.959 114 383.459 111 382.959C108 382.459 83 389.459 59 396.959C35 404.459 28.5 403.459 25 401.959C23.8048 401.447 23.4174 400.37 23.4567 399.148C23.5618 395.875 26.4293 393.529 29.1737 391.742L75.0448 361.883C77.0012 360.609 78.5625 358.759 80.5825 357.589C83.1706 356.09 85.6185 357.104 87.5 358.459C100 367.459 104 371.459 121.5 371.459C139 371.459 146 343.959 147.5 339.959C148.684 336.801 169.193 295.616 195 274.73C188.333 270.14 175.5 251.959 177.5 215.959C180 170.959 212.5 173.959 214.5 168.959C216.1 164.959 220.5 166.292 222.5 167.459C228.333 170.792 241.5 176.759 247.5 173.959C255 170.459 257.5 163.459 262 165.459C264.871 166.735 263.269 171.063 261.404 174.285C260.542 175.774 259.352 177.048 257.877 177.933C253.451 180.588 244.294 184.253 230.548 185.279C228.531 185.43 226.339 185.261 224.683 186.422C224.024 186.884 223.287 187.54 222.5 188.459C219.5 191.959 215 196.959 213 197.959C211 198.959 199.146 216.334 202.5 236.459C204 245.459 203 249.959 216.5 263.459Z" fill="#F2EAD5"/>
<path d="M216.5 263.459C244.5 257.459 288.253 275.959 304.586 284.959C307.162 283.826 309.491 282.501 311.5 280.959C314.533 278.564 320.93 272.408 323.222 266.269C322.199 254.919 318.79 232.662 320.5 227.959C322.5 222.459 330.5 214.459 333.5 212.959C336.5 211.459 343.5 203.959 348 196.459C352.5 188.959 369 181.459 383.5 184.459C395.1 186.859 403 183.792 405.5 181.959C408.5 180.292 416.8 178.159 426 182.959C430.028 185.06 433.442 187.775 436.308 190.459C436.552 190.687 436.792 190.916 437.028 191.143C439.903 193.507 447.068 195.925 458 190.459C473 182.959 482 175.459 482 167.959C482 160.459 478.5 156.959 478.5 152.959C478.5 148.959 478.5 146.959 482 148.959C484.827 150.574 499.072 167.523 503.918 176.088C505.449 178.794 505.904 182.032 506.299 185.116C507.125 191.578 505.773 194.313 500 197.959C490.5 203.959 492.5 207.959 465.5 207.959C466 210.459 466.5 225.959 467.5 226.959C468.5 227.959 475.5 232.459 475.5 233.959C475.5 235.459 475.5 239.959 474 239.959C473.757 239.959 473.502 239.894 473.241 239.78C465.741 238.112 447.997 237.042 431 245.069C422.209 249.549 414.294 253.235 407.5 253.419C417.5 258.586 450.333 256.932 465.5 255.459C466.167 255.459 468 256.059 470 258.459C472 260.859 466.915 266.126 464.122 268.459C461.768 270.94 441.802 277.871 424.522 283.44C418.506 285.379 413.646 289.87 411.241 295.715C406.151 308.084 399.308 324.091 396.5 328.459C393.781 332.688 395.264 337.563 397.158 340.845C398.219 342.684 399.44 344.444 400.28 346.394C403.615 354.133 408.5 366.148 408.5 368.959C441 374.959 478 406.959 483.5 409.959C489 412.959 514 412.959 518 413.459C522 413.959 527 418.959 527 422.459C527 425.959 512.5 432.459 502 434.959C496.578 436.25 489.73 431.634 484.882 428.885C455.169 412.035 419.775 397.959 417.5 397.959C415 397.959 397.5 394.459 370 397.959C342.5 401.459 323 401.959 313.5 397.959C311.161 396.974 309.67 395.656 308.775 394.213C304.775 394.713 265.5 396.459 243 391.459C235.908 389.883 229.809 387.313 224.5 384.345C213 408.731 192 421.959 186 426.959C180 431.959 171 432.459 168 432.459C166.328 432.459 163.02 431.776 161.791 432.908C149.123 444.575 128.468 463.89 127 466.459C125 469.959 132 472.459 127 477.959C122 483.459 118 479.959 114 475.459C110 470.959 114 469.959 114 466.459C114 462.959 142.5 430.459 147.5 422.959C150.537 418.404 157.563 420.397 162.836 418.926C166.484 417.908 171.994 415.759 181.5 411.459C198.3 403.859 205.259 381.626 206.639 371.459L206.469 371.317C203.696 369.002 201.24 366.952 199 365.459C191.8 360.659 184.333 361.218 181.5 362.098C175.085 368.241 167.758 374.56 160.5 379.459C140.5 392.959 125 390.959 122 390.459C119 389.959 114 383.459 111 382.959C108 382.459 83 389.459 59 396.959C35 404.459 28.5 403.459 25 401.959C23.8048 401.447 23.4174 400.37 23.4567 399.148C23.5618 395.875 26.4293 393.529 29.1737 391.742L75.0448 361.883C77.0012 360.609 78.5625 358.759 80.5825 357.589C83.1706 356.09 85.6185 357.104 87.5 358.459C100 367.459 104 371.459 121.5 371.459C139 371.459 146 343.959 147.5 339.959C148.684 336.801 169.193 295.616 195 274.73C188.333 270.14 175.5 251.959 177.5 215.959C180 170.959 212.5 173.959 214.5 168.959C216.1 164.959 220.5 166.292 222.5 167.459C228.333 170.792 241.5 176.759 247.5 173.959C255 170.459 257.5 163.459 262 165.459C264.871 166.735 263.269 171.063 261.404 174.285C260.542 175.774 259.352 177.048 257.877 177.933C253.451 180.588 244.294 184.253 230.548 185.279C228.531 185.43 226.339 185.261 224.683 186.422C224.024 186.884 223.287 187.54 222.5 188.459C219.5 191.959 215 196.959 213 197.959C211 198.959 199.146 216.334 202.5 236.459C204 245.459 203 249.959 216.5 263.459Z" fill="url(#paint0_linear_59_135)"/>
<path d="M304.586 284.959C288.253 275.959 244.5 257.459 216.5 263.459M304.586 284.959C285.113 293.524 251.544 291.109 235.5 288.459M304.586 284.959C307.162 283.826 309.491 282.501 311.5 280.959C314.667 278.459 321.5 271.859 323.5 265.459M304.586 284.959C304.986 284.959 303.391 284.292 304.586 284.959ZM216.5 263.459C209.134 265.037 201.879 269.163 195 274.73M216.5 263.459C203 249.959 204 245.459 202.5 236.459C199.146 216.334 211 198.959 213 197.959C215 196.959 219.5 191.959 222.5 188.459C223.287 187.54 224.024 186.884 224.683 186.422C226.339 185.261 228.531 185.43 230.548 185.279C244.294 184.253 253.451 180.588 257.877 177.933C259.352 177.048 260.542 175.774 261.404 174.285C263.269 171.063 264.871 166.735 262 165.459C257.5 163.459 255 170.459 247.5 173.959C241.5 176.759 228.333 170.792 222.5 167.459C220.5 166.292 216.1 164.959 214.5 168.959C212.5 173.959 180 170.959 177.5 215.959C175.5 251.959 188.333 270.14 195 274.73M199 343.459C195.631 347.557 189.227 354.699 181.5 362.098M181.5 362.098C175.085 368.241 167.758 374.56 160.5 379.459C140.5 392.959 125 390.959 122 390.459C119 389.959 114 383.459 111 382.959C108 382.459 83 389.459 59 396.959C35 404.459 28.5 403.459 25 401.959C23.8048 401.447 23.4174 400.37 23.4567 399.148C23.5618 395.875 26.4293 393.529 29.1737 391.742L75.0448 361.883C77.0012 360.609 78.5625 358.759 80.5825 357.589C83.1706 356.09 85.6185 357.104 87.5 358.459C100 367.459 104 371.459 121.5 371.459C139 371.459 146 343.959 147.5 339.959C148.684 336.801 169.193 295.616 195 274.73M181.5 362.098C184.333 361.218 191.8 360.659 199 365.459C201.285 366.982 203.796 369.086 206.639 371.459M308.775 394.213C304.775 394.713 265.5 396.459 243 391.459C235.908 389.883 229.809 387.313 224.5 384.345M308.775 394.213C306.034 389.796 308.869 384.213 310 383.459C311.2 382.659 321.5 358.459 326.5 346.459M308.775 394.213C309.67 395.656 311.161 396.974 313.5 397.959C323 401.959 342.5 401.459 370 397.959C397.5 394.459 415 397.959 417.5 397.959C419.775 397.959 455.169 412.035 484.882 428.885C489.73 431.634 496.578 436.25 502 434.959C512.5 432.459 527 425.959 527 422.459C527 418.959 522 413.959 518 413.459C514 412.959 489 412.959 483.5 409.959C478 406.959 441 374.959 408.5 368.959M408.5 368.959C376 362.959 364 366.459 354.5 361.959M408.5 368.959C408.5 366.149 403.615 354.133 400.28 346.394C399.44 344.444 398.219 342.684 397.157 340.845C395.264 337.563 393.781 332.688 396.5 328.459C399.308 324.091 406.151 308.084 411.241 295.715C413.646 289.87 418.506 285.379 424.522 283.44C441.802 277.871 461.768 270.94 464.122 268.459M378 319.459C378.5 318.459 416 274.459 454 268.459C462.516 267.114 465.214 267.308 464.122 268.459M206.639 371.459C205.259 381.626 198.3 403.859 181.5 411.459C171.994 415.759 166.484 417.908 162.836 418.926C157.563 420.397 150.537 418.404 147.5 422.959C142.5 430.459 114 462.959 114 466.459C114 469.959 110 470.959 114 475.459C118 479.959 122 483.459 127 477.959C132 472.459 125 469.959 127 466.459C128.468 463.89 149.123 444.575 161.791 432.908C163.02 431.776 166.328 432.459 168 432.459C171 432.459 180 431.959 186 426.959C192 421.959 213 408.731 224.5 384.345M206.639 371.459C211.463 375.486 217.243 380.288 224.5 384.345M374.5 243.959C365.667 248.792 346.3 264.059 339.5 286.459C331 314.459 328.5 315.959 325 314.959C321.5 313.959 315.5 302.459 315.5 300.459C315.5 298.459 323.5 278.959 323.5 270.959C323.5 262.959 318.5 233.459 320.5 227.959C322.5 222.459 330.5 214.459 333.5 212.959C336.5 211.459 343.5 203.959 348 196.459C352.5 188.959 369 181.459 383.5 184.459C395.1 186.859 403 183.792 405.5 181.959C408.5 180.292 416.8 178.159 426 182.959C430.028 185.06 433.442 187.775 436.308 190.459M465.5 207.959C465 205.459 450 201.959 447 200.959C445.051 200.309 441.624 195.438 436.308 190.459M465.5 207.959C466 210.459 466.5 225.959 467.5 226.959C468.5 227.959 475.5 232.459 475.5 233.959C475.5 235.459 475.5 239.959 474 239.959M465.5 207.959C492.5 207.959 490.5 203.959 500 197.959C505.773 194.313 507.125 191.578 506.299 185.116C505.904 182.032 505.449 178.794 503.918 176.088C499.072 167.523 484.827 150.574 482 148.959C478.5 146.959 478.5 148.959 478.5 152.959C478.5 156.959 482 160.459 482 167.959C482 175.459 473 182.959 458 190.459C446 196.459 438.539 192.959 436.308 190.459M474 239.959C472.5 239.959 470.5 237.459 470 236.459C469.5 235.459 456 232.459 441 239.959C437.557 241.68 434.22 243.428 431 245.069M474 239.959C467 238.199 448.6 236.757 431 245.069M395 248.959C394.333 249.459 395 250.959 403 252.959C404.439 253.319 405.94 253.461 407.5 253.419M431 245.069C422.209 249.549 414.294 253.235 407.5 253.419M464.122 268.459C466.915 266.126 472 260.859 470 258.459C468 256.059 466.167 255.459 465.5 255.459C450.333 256.932 417.5 258.586 407.5 253.419" stroke="black"/>
<g opacity="0.5">
<mask id="mask0_59_135" style="mask-type:alpha" maskUnits="userSpaceOnUse" x="25" y="148" width="501" height="332">
<path d="M216.993 263.186C244.769 257.234 288.17 275.585 304.372 284.513C306.927 283.389 309.237 282.075 311.231 280.545C314.239 278.17 320.585 272.063 322.858 265.973C321.843 254.714 318.462 232.636 320.158 227.971C322.142 222.515 330.078 214.579 333.054 213.091C336.03 211.603 342.974 204.163 347.437 196.724C351.901 189.284 368.269 181.844 382.652 184.82C394.159 187.201 401.996 184.159 404.476 182.34C407.452 180.687 415.685 178.57 424.811 183.332C428.807 185.417 432.194 188.11 435.036 190.772C435.278 190.998 435.516 191.225 435.75 191.45C438.603 193.795 445.71 196.194 456.554 190.772C471.434 183.332 480.361 175.892 480.361 168.452C480.361 161.013 476.89 157.541 476.89 153.573C476.89 149.605 476.89 147.621 480.361 149.605C483.166 151.207 497.297 168.02 502.103 176.516C503.622 179.201 504.073 182.413 504.465 185.472C505.285 191.882 503.944 194.594 498.217 198.212C488.793 204.163 490.777 208.131 463.994 208.131C464.49 210.611 464.986 225.987 465.978 226.979C466.97 227.971 473.914 232.434 473.914 233.922C473.914 235.41 473.914 239.874 472.426 239.874C472.185 239.874 471.931 239.809 471.673 239.696C464.233 238.042 446.632 236.98 429.771 244.943C421.051 249.388 413.199 253.043 406.46 253.226C416.379 258.352 448.949 256.711 463.994 255.25C464.655 255.25 466.474 255.845 468.458 258.226C470.442 260.606 465.397 265.831 462.627 268.145C460.292 270.607 440.487 277.482 423.345 283.006C417.377 284.93 412.557 289.384 410.171 295.183C405.122 307.452 398.333 323.331 395.548 327.664C392.851 331.859 394.322 336.695 396.2 339.95C397.253 341.775 398.464 343.52 399.298 345.455C402.605 353.131 407.452 365.05 407.452 367.838C439.691 373.79 476.394 405.533 481.849 408.509C487.305 411.485 512.104 411.485 516.072 411.981C520.04 412.477 525 417.437 525 420.909C525 424.381 510.616 430.828 500.201 433.308C494.823 434.589 488.029 430.01 483.22 427.283C453.746 410.568 418.636 396.606 416.379 396.606C413.899 396.606 396.54 393.134 369.261 396.606C341.982 400.077 322.638 400.573 313.215 396.606C310.894 395.628 309.416 394.321 308.527 392.889C304.56 393.385 265.6 395.118 243.281 390.158C236.245 388.594 230.195 386.045 224.929 383.101C213.522 407.291 192.69 420.413 186.738 425.373C180.787 430.332 171.859 430.828 168.883 430.828C167.225 430.828 163.943 430.15 162.724 431.274C150.157 442.847 129.668 462.007 128.212 464.555C126.228 468.027 133.172 470.507 128.212 475.963C123.252 481.419 119.284 477.947 115.317 473.483C111.349 469.019 115.317 468.027 115.317 464.555C115.317 461.084 143.588 428.845 148.548 421.405C151.56 416.887 158.53 418.863 163.76 417.404C167.379 416.395 172.845 414.263 182.275 409.997C198.94 402.458 205.843 380.403 207.212 370.318L207.043 370.178C204.292 367.882 201.856 365.848 199.634 364.367C192.492 359.605 185.085 360.16 182.275 361.032C175.911 367.126 168.643 373.394 161.443 378.254C141.604 391.646 126.228 389.662 123.252 389.166C120.276 388.67 115.317 382.222 112.341 381.726C109.365 381.23 84.5655 388.174 60.7583 395.614C36.951 403.053 30.5032 402.061 27.0313 400.573C25.8457 400.065 25.4614 398.997 25.5003 397.785C25.6047 394.538 28.4491 392.211 31.1714 390.439L76.6743 360.819C78.6149 359.556 80.1637 357.72 82.1674 356.559C84.7347 355.072 87.163 356.079 89.0294 357.423C101.429 366.35 105.397 370.318 122.756 370.318C140.116 370.318 147.06 343.039 148.548 339.071C149.722 335.938 170.067 295.085 195.666 274.366C189.053 269.813 176.323 251.778 178.307 216.067C180.787 171.428 213.026 174.404 215.01 169.444C216.597 165.477 220.961 166.799 222.945 167.956C228.732 171.263 241.793 177.182 247.745 174.404C255.184 170.932 257.664 163.989 262.128 165.973C264.976 167.238 263.387 171.531 261.537 174.728C260.682 176.204 259.501 177.468 258.038 178.346C253.648 180.98 244.564 184.616 230.928 185.634C228.928 185.783 226.753 185.615 225.111 186.767C224.457 187.225 223.726 187.877 222.945 188.788C219.969 192.26 215.506 197.22 213.522 198.211C211.538 199.203 199.779 216.439 203.106 236.402C204.594 245.33 203.602 249.794 216.993 263.186Z" fill="url(#paint1_linear_59_135)"/>
<path d="M304.372 284.513C288.17 275.585 244.769 257.234 216.993 263.186M304.372 284.513C285.055 293.009 251.756 290.613 235.841 287.985M304.372 284.513C306.927 283.389 309.237 282.075 311.231 280.545C314.372 278.065 321.15 271.518 323.134 265.17M304.372 284.513C304.769 284.513 303.186 283.852 304.372 284.513ZM216.993 263.186C209.687 264.751 202.49 268.843 195.666 274.366M216.993 263.186C203.602 249.794 204.594 245.33 203.106 236.402C199.779 216.439 211.538 199.203 213.522 198.211C215.506 197.22 219.969 192.26 222.945 188.788C223.726 187.877 224.457 187.225 225.111 186.767C226.753 185.615 228.928 185.783 230.928 185.634C244.564 184.616 253.648 180.98 258.038 178.346C259.501 177.468 260.682 176.204 261.537 174.728C263.387 171.531 264.976 167.238 262.128 165.973C257.664 163.989 255.184 170.932 247.745 174.404C241.793 177.182 228.732 171.263 222.945 167.956C220.961 166.799 216.597 165.477 215.01 169.444C213.026 174.404 180.787 171.428 178.307 216.067C176.323 251.778 189.053 269.813 195.666 274.366M199.634 342.543C196.292 346.608 189.939 353.693 182.275 361.032M182.275 361.032C175.911 367.126 168.643 373.394 161.443 378.254C141.604 391.646 126.228 389.662 123.252 389.166C120.276 388.67 115.317 382.222 112.341 381.726C109.365 381.23 84.5655 388.174 60.7583 395.614C36.951 403.053 30.5032 402.061 27.0313 400.573C25.8457 400.065 25.4614 398.997 25.5003 397.785C25.6047 394.538 28.4491 392.211 31.1714 390.439L76.6743 360.819C78.6149 359.556 80.1637 357.72 82.1674 356.559C84.7347 355.072 87.163 356.079 89.0294 357.423C101.429 366.35 105.397 370.318 122.756 370.318C140.116 370.318 147.06 343.039 148.548 339.071C149.722 335.938 170.067 295.085 195.666 274.366M182.275 361.032C185.085 360.16 192.492 359.605 199.634 364.367C201.901 365.878 204.391 367.965 207.212 370.318M308.527 392.889C304.56 393.385 265.6 395.118 243.281 390.158C236.245 388.594 230.195 386.045 224.929 383.101M308.527 392.889C305.809 388.508 308.621 382.97 309.743 382.222C310.933 381.428 321.15 357.423 326.11 345.519M308.527 392.889C309.416 394.321 310.894 395.628 313.215 396.606C322.638 400.573 341.982 400.077 369.261 396.606C396.54 393.134 413.899 396.606 416.379 396.606C418.636 396.606 453.746 410.568 483.22 427.283C488.029 430.01 494.823 434.589 500.201 433.308C510.616 430.828 525 424.381 525 420.909C525 417.437 520.04 412.477 516.072 411.981C512.104 411.485 487.305 411.485 481.849 408.509C476.394 405.533 439.691 373.79 407.452 367.838M407.452 367.838C375.213 361.887 363.309 365.358 353.885 360.895M407.452 367.838C407.452 365.05 402.605 353.131 399.298 345.455C398.464 343.52 397.253 341.775 396.2 339.95C394.322 336.695 392.851 331.859 395.548 327.664C398.333 323.331 405.122 307.452 410.171 295.183C412.557 289.384 417.377 284.93 423.345 283.006C440.487 277.482 460.292 270.607 462.627 268.145M377.197 318.736C377.693 317.744 414.891 274.097 452.586 268.145C461.034 266.812 463.711 267.004 462.627 268.145M207.212 370.318C205.843 380.403 198.94 402.458 182.275 409.997C172.845 414.263 167.379 416.394 163.76 417.404C158.53 418.863 151.56 416.887 148.548 421.405C143.588 428.845 115.317 461.084 115.317 464.555C115.317 468.027 111.349 469.019 115.317 473.483C119.284 477.947 123.252 481.419 128.212 475.963C133.172 470.507 126.228 468.027 128.212 464.555C129.668 462.007 150.157 442.847 162.724 431.274C163.943 430.15 167.225 430.828 168.883 430.828C171.859 430.828 180.787 430.332 186.738 425.373C192.69 420.413 213.522 407.291 224.929 383.101M207.212 370.318C211.997 374.313 217.731 379.076 224.929 383.101M373.725 243.842C364.962 248.637 345.751 263.781 339.006 286.001C330.574 313.776 328.094 315.264 324.622 314.272C321.15 313.28 315.198 301.872 315.198 299.888C315.198 297.904 323.134 278.561 323.134 270.625C323.134 262.69 318.174 233.426 320.158 227.971C322.142 222.515 330.078 214.579 333.054 213.091C336.03 211.603 342.974 204.163 347.437 196.724C351.901 189.284 368.269 181.844 382.652 184.82C394.159 187.201 401.996 184.159 404.476 182.34C407.452 180.687 415.685 178.57 424.811 183.332C428.807 185.417 432.194 188.11 435.036 190.772M463.994 208.131C463.498 205.651 448.618 202.179 445.642 201.187C443.709 200.543 440.309 195.71 435.036 190.772M463.994 208.131C464.49 210.611 464.986 225.987 465.978 226.979C466.97 227.971 473.914 232.434 473.914 233.922C473.914 235.41 473.914 239.874 472.426 239.874M463.994 208.131C490.777 208.131 488.793 204.163 498.217 198.212C503.944 194.594 505.285 191.882 504.465 185.472C504.073 182.413 503.622 179.201 502.103 176.516C497.297 168.02 483.166 151.207 480.361 149.605C476.89 147.621 476.89 149.605 476.89 153.573C476.89 157.541 480.361 161.013 480.361 168.452C480.361 175.892 471.434 183.332 456.554 190.772C444.651 196.724 437.249 193.252 435.036 190.772M472.426 239.874C470.938 239.874 468.954 237.394 468.458 236.402C467.962 235.41 454.57 232.434 439.691 239.874C436.276 241.582 432.965 243.315 429.771 244.943M472.426 239.874C465.482 238.128 447.23 236.698 429.771 244.943M394.06 248.802C393.399 249.298 394.06 250.786 401.996 252.77C403.423 253.127 404.912 253.268 406.46 253.226M429.771 244.943C421.051 249.388 413.199 253.043 406.46 253.226M462.627 268.145C465.397 265.831 470.442 260.606 468.458 258.226C466.474 255.845 464.655 255.25 463.994 255.25C448.949 256.711 416.379 258.352 406.46 253.226" stroke="black" stroke-width="0.99197"/>
</mask>
<g mask="url(#mask0_59_135)">
<path fill-rule="evenodd" clip-rule="evenodd" d="M363.364 411.912C361.8 411.092 360.268 410.244 358.704 409.295C358.266 409.07 357.832 408.835 357.399 408.6L357.399 408.6C356.379 408.048 355.36 407.496 354.286 407.068C351.375 405.908 348.385 405.163 345.386 404.417C344.803 404.272 344.22 404.126 343.636 403.978C343.789 404.751 343.95 405.524 344.127 406.296C344.301 406.948 344.455 407.602 344.608 408.255C344.943 409.678 345.276 411.092 345.808 412.457C346.836 415.094 348.361 417.474 349.897 419.87C350.052 420.112 350.207 420.354 350.362 420.596C352.053 423.246 353.711 423.899 354.835 426.835C356.636 431.542 351.547 432.516 350.907 432.491C350.899 432.49 350.89 432.49 350.881 432.49L350.844 432.489C350.367 432.476 348.794 432.432 347.717 430.759C347.462 430.364 346.704 428.67 346.671 428.584L344.753 423.606C344.044 421.999 343.477 420.355 342.91 418.713C342.399 417.231 341.888 415.75 341.274 414.3C340.731 413.017 340.067 411.807 339.398 410.59C339.025 409.909 338.65 409.227 338.295 408.528C337.84 407.708 337.367 406.904 336.887 406.107C336.417 406.762 335.943 407.411 335.47 408.058C333.396 410.897 331.35 413.699 329.757 416.824C328.437 419.416 327.729 422.259 327.093 425.127C326.498 427.809 326.319 430.558 326.343 433.479C326.116 435.722 324.115 437.355 321.876 437.122C319.638 436.889 318.005 434.879 318.232 432.635C319.336 427.142 321.539 422.477 323.767 417.762C323.826 417.636 323.886 417.509 323.946 417.383C324.897 415.369 325.807 413.338 326.625 411.257C327.861 408.117 328.869 404.956 329.802 401.696C327.503 402.158 325.214 402.67 322.988 403.482C320.942 404.228 319.024 405.252 317.104 406.277L317.103 406.277C316.483 406.608 315.863 406.939 315.239 407.261C313.586 408.112 311.981 409 310.371 409.891C309.461 410.394 308.55 410.898 307.628 411.397C305.538 412.227 303.165 411.198 302.333 409.101C301.5 407.004 302.52 404.627 304.61 403.797C305.474 403.567 306.335 403.344 307.194 403.122L307.194 403.122C309.115 402.625 311.026 402.131 312.945 401.559C313.562 401.376 314.181 401.2 314.799 401.024C316.942 400.415 319.082 399.807 321.11 398.885C323.007 398.023 324.769 396.951 326.491 395.818C326.328 395.714 326.164 395.61 326 395.507C325.599 395.276 325.137 394.98 324.616 394.646C323.35 393.833 321.736 392.798 319.807 391.944C315.733 390.14 310.698 388.757 307.119 387.775C305.869 387.432 304.796 387.137 304.004 386.891C301.928 386.018 300.944 383.621 301.809 381.541C302.674 379.461 305.063 378.481 307.139 379.353C307.976 379.803 309.107 380.481 310.429 381.272C313.591 383.165 317.843 385.711 321.766 387.363C323.712 388.183 325.571 388.649 327.03 389.014C327.628 389.164 328.158 389.297 328.6 389.431C329.112 389.564 329.624 389.689 330.135 389.809C329.987 388.904 329.859 388.001 329.731 387.098C329.464 385.208 329.196 383.319 328.745 381.42C328.552 380.608 328.28 379.818 328.008 379.029C327.852 378.574 327.695 378.119 327.553 377.66L324.105 369.114L322.182 364.201C321.51 362.047 322.708 359.756 324.855 359.087C327.002 358.419 329.291 359.626 329.962 361.78L330.708 367.467L332.383 376.1C332.508 376.467 332.624 376.838 332.741 377.208L332.741 377.208C333.012 378.069 333.283 378.93 333.652 379.752C334.485 381.607 335.517 383.301 336.567 384.992L338.026 381.741C338.139 381.445 338.374 380.963 338.683 380.329C339.307 379.045 340.236 377.136 341.083 374.875C342.64 370.716 344.054 365.501 345.044 361.85C345.439 360.395 345.766 359.188 346.008 358.397C346.864 356.313 349.248 355.322 351.328 356.184C353.409 357.047 354.403 359.44 353.547 361.524C353.218 362.152 352.72 363.045 352.122 364.12C350.285 367.417 347.498 372.422 345.697 376.723C344.525 379.523 343.899 382.008 343.611 383.151C343.574 383.299 343.543 383.425 343.516 383.526C343.276 384.953 343.101 386.378 342.938 387.8C344.044 387.512 345.148 387.239 346.255 386.966C347.557 386.645 348.863 386.323 350.182 385.972C350.553 385.842 350.925 385.716 351.297 385.589L351.298 385.589C354.87 384.376 357.922 382.68 361.034 380.553C361.98 379.907 362.926 379.26 363.898 378.65L370.069 374.773C372.048 373.705 374.524 374.45 375.593 376.437C376.663 378.424 375.925 380.904 373.946 381.972L366.87 384.348C366.032 384.705 365.19 385.048 364.348 385.391L364.348 385.392C361.166 386.689 358.107 388.085 355.188 389.898C354.339 390.425 353.49 390.952 352.61 391.434C351.793 391.966 350.989 392.5 350.188 393.031L350.188 393.031C348.764 393.976 347.351 394.912 345.9 395.819C347.114 396.59 348.304 397.389 349.495 398.188C351.744 399.698 353.994 401.209 356.405 402.529C357.334 403.038 358.308 403.456 359.282 403.875C359.85 404.119 360.418 404.363 360.978 404.625C362.856 405.347 364.657 406.005 366.537 406.492C367.721 406.799 368.915 406.958 370.17 407.1C370.318 407.116 373.229 407.774 374.352 408.178C376.196 408.841 376.757 410.302 376.88 410.619C376.884 410.631 376.888 410.642 376.892 410.65C377.698 412.758 376.648 415.121 374.548 415.925C370.741 417.382 369.491 415.126 363.364 411.912Z" fill="#FFD412"/>
<path fill-rule="evenodd" clip-rule="evenodd" d="M370.338 306.16C368.107 303.631 365.95 301.073 363.806 298.315C363.178 297.614 362.565 296.9 361.951 296.186L361.951 296.185C360.508 294.505 359.066 292.825 357.441 291.329C353.038 287.274 348.209 283.907 343.365 280.53C342.423 279.873 341.48 279.216 340.54 278.553C340.286 280.035 340.045 281.523 339.832 283.022C339.697 284.303 339.525 285.574 339.354 286.842C338.98 289.608 338.608 292.357 338.625 295.153C338.659 300.556 339.756 305.84 340.861 311.16C340.972 311.697 341.084 312.235 341.195 312.773C342.403 318.651 344.917 320.946 344.917 326.949C344.917 336.57 335.168 334.835 334.041 334.352C334.027 334.346 334.012 334.34 333.997 334.333L333.93 334.306C333.089 333.957 330.31 332.805 329.529 329.088C329.345 328.21 329.15 324.672 329.148 324.496L329.125 314.312C328.958 310.963 329.068 307.645 329.178 304.331C329.278 301.339 329.377 298.35 329.272 295.345C329.18 292.688 328.82 290.076 328.459 287.451C328.256 285.982 328.054 284.509 327.897 283.022C327.645 281.25 327.35 279.493 327.038 277.743C325.751 278.591 324.461 279.424 323.176 280.255C317.534 283.903 311.967 287.503 306.989 291.989C302.861 295.708 299.656 300.294 296.561 304.974C293.667 309.35 291.469 314.13 289.516 319.353C287.578 323.198 282.891 324.744 279.054 322.802C275.218 320.86 273.676 316.161 275.613 312.316C281.336 303.274 288.457 296.46 295.654 289.573C295.847 289.389 296.04 289.204 296.233 289.019C299.306 286.077 302.318 283.077 305.201 279.926C309.552 275.17 313.511 270.221 317.403 265.044C312.985 264.3 308.549 263.651 304.02 263.58C299.858 263.514 295.734 264.031 291.606 264.548L291.604 264.549C290.272 264.716 288.939 264.883 287.604 265.03C284.073 265.421 280.601 265.909 277.117 266.398C275.151 266.675 273.18 266.951 271.192 267.212C266.895 267.266 263.362 263.813 263.308 259.505C263.254 255.197 266.699 251.656 270.997 251.602C272.697 251.781 274.386 251.972 276.071 252.162L276.071 252.162C279.84 252.587 283.589 253.009 287.405 253.3C288.631 253.393 289.856 253.502 291.081 253.611C295.321 253.987 299.557 254.362 303.806 254.103C307.783 253.86 311.66 253.151 315.507 252.306C315.288 252.009 315.067 251.712 314.845 251.416C314.286 250.731 313.664 249.887 312.962 248.937C311.256 246.624 309.082 243.677 306.222 240.837C300.184 234.841 292.139 228.941 286.42 224.747C284.423 223.282 282.71 222.025 281.465 221.045C278.353 218.073 278.235 213.128 281.2 210.01C284.166 206.891 289.099 206.773 292.21 209.745C293.396 211.118 294.953 213.098 296.772 215.411C301.123 220.943 306.974 228.385 312.849 234.007C315.763 236.796 318.764 238.895 321.118 240.542C322.083 241.217 322.939 241.816 323.637 242.356C324.46 242.943 325.288 243.515 326.119 244.077C326.473 242.363 326.861 240.666 327.25 238.969C328.064 235.416 328.877 231.865 329.368 228.171C329.579 226.593 329.632 224.999 329.686 223.406C329.717 222.488 329.748 221.57 329.809 220.655L329.491 203.064L329.415 192.993C329.687 188.694 333.391 185.426 337.681 185.699C341.97 185.973 345.231 189.685 344.958 193.985L342.403 204.633L339.497 221.169C339.468 221.908 339.423 222.649 339.378 223.389L339.378 223.389C339.273 225.109 339.169 226.829 339.267 228.547C339.487 232.422 340.171 236.146 340.892 239.878L345.717 235.077C346.121 234.627 346.869 233.928 347.854 233.007C349.845 231.145 352.807 228.375 355.864 224.92C361.484 218.567 367.572 210.234 371.833 204.401C373.532 202.075 374.941 200.147 375.913 198.9C378.864 195.769 383.797 195.628 386.922 198.586C390.046 201.544 390.186 206.488 387.235 209.62C386.218 210.516 384.72 211.769 382.918 213.276C377.386 217.903 368.992 224.924 362.839 231.364C358.833 235.556 356.019 239.56 354.724 241.402C354.556 241.641 354.414 241.843 354.298 242.005C352.894 244.386 351.608 246.807 350.346 249.232C352.517 249.472 354.674 249.74 356.836 250.008C359.38 250.324 361.932 250.64 364.526 250.914C365.278 250.937 366.028 250.965 366.779 250.994L366.78 250.994C373.985 251.268 380.592 250.327 387.6 248.658C389.73 248.15 391.862 247.643 394.013 247.218L407.679 244.516C411.941 243.962 415.85 246.981 416.403 251.253C416.956 255.525 413.944 259.443 409.682 259.997L395.426 259.406C393.687 259.471 391.949 259.508 390.212 259.546L390.21 259.546C383.645 259.687 377.231 260.09 370.781 261.33C368.906 261.691 367.03 262.051 365.129 262.311C363.307 262.702 361.507 263.104 359.715 263.505L359.714 263.505C356.527 264.217 353.365 264.924 350.156 265.551C351.796 267.753 353.375 269.99 354.954 272.227C357.938 276.454 360.923 280.683 364.324 284.682C365.635 286.223 367.088 287.634 368.542 289.045C369.389 289.867 370.236 290.69 371.056 291.539C373.915 294.107 376.681 296.51 379.704 298.662C381.608 300.017 383.631 301.116 385.775 302.225C386.028 302.354 390.774 305.513 392.504 307C395.342 309.44 395.347 312.428 395.348 313.077C395.348 313.102 395.348 313.123 395.348 313.141C395.348 317.448 391.859 320.946 387.561 320.946C379.771 320.946 379.079 316.071 370.338 306.16Z" fill="#FFD412"/>
<path fill-rule="evenodd" clip-rule="evenodd" d="M218.212 263.63C215.981 261.101 213.824 258.543 211.68 255.785C211.053 255.085 210.439 254.37 209.826 253.656L209.825 253.655C208.382 251.975 206.94 250.296 205.315 248.8C200.912 244.744 196.083 241.377 191.239 238C190.297 237.343 189.355 236.686 188.415 236.023C188.16 237.505 187.919 238.993 187.707 240.492C187.572 241.773 187.4 243.044 187.228 244.312C186.854 247.078 186.482 249.827 186.499 252.623C186.533 258.026 187.63 263.31 188.735 268.63C188.847 269.167 188.958 269.705 189.069 270.243C190.278 276.121 192.792 278.416 192.792 284.419C192.792 294.041 183.042 292.305 181.915 291.822C181.902 291.816 181.887 291.81 181.871 291.804L181.804 291.776C180.963 291.427 178.184 290.275 177.404 286.558C177.219 285.68 177.024 282.142 177.022 281.967L176.999 271.782C176.832 268.433 176.943 265.115 177.053 261.801C177.152 258.809 177.251 255.82 177.147 252.816C177.054 250.158 176.694 247.546 176.333 244.921C176.131 243.452 175.928 241.979 175.771 240.492C175.52 238.72 175.224 236.963 174.912 235.214C173.625 236.061 172.336 236.894 171.05 237.725C165.408 241.373 159.841 244.973 154.863 249.459C150.736 253.178 147.53 257.764 144.435 262.444C141.541 266.821 139.344 271.601 137.39 276.823C135.453 280.669 130.765 282.214 126.928 280.272C123.092 278.33 121.55 273.631 123.488 269.786C129.21 260.745 136.331 253.93 143.528 247.044C143.721 246.859 143.914 246.674 144.107 246.489C147.181 243.548 150.192 240.547 153.075 237.396C157.427 232.64 161.385 227.691 165.277 222.514C160.859 221.77 156.423 221.121 151.894 221.05C147.732 220.984 143.609 221.501 139.48 222.019L139.479 222.019C138.146 222.186 136.813 222.353 135.478 222.501C131.947 222.891 128.476 223.379 124.991 223.868C123.025 224.145 121.054 224.422 119.067 224.682C114.769 224.736 111.236 221.283 111.182 216.975C111.128 212.668 114.573 209.126 118.871 209.072C120.572 209.252 122.26 209.442 123.945 209.632L123.946 209.632C127.714 210.057 131.463 210.48 135.279 210.77C136.505 210.864 137.73 210.972 138.955 211.081C143.195 211.457 147.431 211.833 151.68 211.573C155.658 211.33 159.534 210.621 163.382 209.776C163.162 209.479 162.942 209.182 162.719 208.886C162.16 208.201 161.538 207.358 160.837 206.407C159.131 204.094 156.957 201.147 154.097 198.307C148.058 192.311 140.013 186.411 134.295 182.217C132.298 180.752 130.584 179.495 129.339 178.515C126.228 175.543 126.109 170.598 129.075 167.48C132.04 164.362 136.973 164.243 140.084 167.215C141.271 168.588 142.827 170.568 144.647 172.882C148.997 178.414 154.849 185.855 160.724 191.477C163.638 194.266 166.638 196.365 168.992 198.012C169.957 198.687 170.814 199.287 171.511 199.826C172.334 200.413 173.162 200.985 173.993 201.548C174.347 199.833 174.736 198.136 175.124 196.439C175.938 192.886 176.751 189.336 177.243 185.641C177.453 184.063 177.507 182.47 177.561 180.876C177.592 179.959 177.623 179.04 177.684 178.125L177.365 160.534L177.289 150.463C177.562 146.164 181.266 142.896 185.555 143.169C189.844 143.443 193.105 147.155 192.832 151.455L190.278 162.104L187.371 178.639C187.342 179.379 187.297 180.119 187.252 180.859L187.252 180.86C187.148 182.579 187.043 184.3 187.141 186.017C187.362 189.892 188.045 193.617 188.766 197.348L193.591 192.547C193.995 192.097 194.743 191.398 195.728 190.477C197.72 188.615 200.682 185.845 203.738 182.39C209.358 176.038 215.446 167.704 219.707 161.871C221.406 159.545 222.815 157.617 223.787 156.371C226.739 153.239 231.671 153.098 234.796 156.056C237.92 159.014 238.061 163.959 235.11 167.09C234.092 167.986 232.594 169.239 230.792 170.746C225.261 175.373 216.866 182.395 210.713 188.834C206.707 193.027 203.893 197.03 202.598 198.872C202.431 199.111 202.288 199.313 202.172 199.475C200.768 201.856 199.482 204.277 198.22 206.703C200.391 206.943 202.548 207.21 204.71 207.478C207.254 207.794 209.806 208.111 212.4 208.385C213.152 208.407 213.903 208.435 214.653 208.464L214.655 208.464C221.859 208.738 228.466 207.797 235.475 206.128C237.605 205.621 239.736 205.113 241.888 204.688L255.553 201.986C259.815 201.432 263.725 204.451 264.277 208.723C264.83 212.995 261.819 216.913 257.556 217.467L243.301 216.876C241.561 216.941 239.823 216.978 238.086 217.016L238.085 217.016C231.52 217.158 225.105 217.56 218.655 218.8C216.78 219.161 214.904 219.522 213.003 219.781C211.182 220.172 209.381 220.575 207.589 220.975L207.588 220.975C204.401 221.688 201.239 222.394 198.03 223.021C199.671 225.223 201.249 227.46 202.828 229.697C205.812 233.924 208.797 238.153 212.198 242.152C213.509 243.694 214.962 245.104 216.416 246.515C217.263 247.337 218.111 248.16 218.931 249.009C221.789 251.578 224.555 253.98 227.579 256.132C229.482 257.487 231.505 258.586 233.649 259.695C233.902 259.824 238.648 262.984 240.378 264.471C243.216 266.911 243.221 269.898 243.222 270.547C243.222 270.572 243.222 270.593 243.222 270.611C243.222 274.919 239.733 278.416 235.435 278.416C227.645 278.416 226.954 273.542 218.212 263.63Z" fill="#FFD412"/>
<path fill-rule="evenodd" clip-rule="evenodd" d="M147.111 414.682C146.93 412.667 146.794 410.666 146.737 408.573C146.682 408.011 146.639 407.448 146.595 406.886L146.595 406.885C146.494 405.561 146.393 404.238 146.138 402.937C145.447 399.412 144.306 396.067 143.161 392.71C142.939 392.058 142.716 391.404 142.497 390.75C141.847 391.372 141.201 392.001 140.566 392.646C140.046 393.214 139.511 393.764 138.978 394.312C137.814 395.509 136.657 396.698 135.672 398.049C133.769 400.66 132.422 403.594 131.067 406.548C130.93 406.846 130.793 407.144 130.656 407.443C129.152 410.702 129.554 412.705 127.421 415.592C124.003 420.22 119.9 415.899 119.526 415.264C119.522 415.257 119.517 415.248 119.512 415.239L119.489 415.202C119.206 414.734 118.27 413.186 119.213 411.119C119.436 410.631 120.598 408.859 120.66 408.774L124.267 403.868C125.376 402.197 126.608 400.641 127.839 399.086C128.95 397.682 130.06 396.28 131.077 394.798C131.976 393.486 132.73 392.102 133.488 390.71C133.911 389.931 134.337 389.15 134.789 388.378C135.297 387.436 135.778 386.486 136.249 385.533C135.325 385.48 134.404 385.42 133.487 385.36C129.46 385.098 125.487 384.838 121.483 385.216C118.164 385.53 114.983 386.589 111.822 387.734C108.867 388.804 106.105 390.318 103.304 392.131C101 393.288 98.1819 392.355 97.0149 390.05C95.848 387.744 96.7711 384.933 99.0751 383.776C105.057 381.473 110.925 380.741 116.855 380.002C117.014 379.982 117.173 379.962 117.332 379.943C119.865 379.626 122.389 379.26 124.904 378.775C128.699 378.043 132.374 377.078 136.097 375.98C134.223 374.042 132.306 372.144 130.139 370.491C128.148 368.971 125.969 367.745 123.787 366.518L123.786 366.518C123.082 366.122 122.377 365.726 121.678 365.319C119.83 364.245 117.977 363.238 116.116 362.228C115.066 361.658 114.014 361.086 112.96 360.501C110.86 358.99 110.377 356.066 111.881 353.975C113.386 351.884 116.311 351.412 118.411 352.923C119.17 353.617 119.92 354.313 120.668 355.006L120.668 355.006C122.341 356.558 124.006 358.102 125.749 359.606C126.31 360.089 126.864 360.579 127.418 361.07C129.337 362.766 131.254 364.462 133.403 365.856C135.414 367.161 137.542 368.206 139.705 369.175C139.705 368.954 139.703 368.732 139.7 368.51C139.673 367.981 139.672 367.353 139.67 366.645C139.666 364.922 139.661 362.727 139.286 360.339C138.493 355.296 136.695 349.582 135.417 345.52C134.971 344.102 134.588 342.885 134.334 341.968C133.884 339.426 135.583 337.005 138.127 336.566C140.67 336.126 143.1 337.833 143.55 340.375C143.636 341.459 143.686 342.968 143.745 344.731C143.885 348.947 144.074 354.619 144.92 359.423C145.339 361.807 146.046 363.889 146.6 365.523C146.827 366.193 147.029 366.787 147.175 367.296C147.365 367.872 147.562 368.444 147.765 369.011C148.545 368.313 149.336 367.636 150.127 366.959C151.783 365.54 153.438 364.124 154.989 362.523C155.651 361.838 156.243 361.091 156.836 360.344C157.177 359.914 157.518 359.483 157.872 359.065L163.968 350.49L167.509 345.619C169.169 343.649 172.123 343.401 174.102 345.066C176.08 346.731 176.34 349.683 174.68 351.653L169.66 355.862L162.379 362.776C162.102 363.121 161.818 363.461 161.533 363.801L161.533 363.801C160.871 364.591 160.209 365.381 159.646 366.242C158.376 368.185 157.384 370.221 156.407 372.273L160.448 371.689C160.804 371.617 161.414 371.548 162.218 371.457C163.844 371.274 166.261 371.001 168.968 370.432C173.946 369.385 179.853 367.554 183.988 366.272C185.637 365.76 187.003 365.337 187.917 365.085C190.458 364.634 192.896 366.329 193.357 368.869C193.818 371.409 192.13 373.837 189.589 374.289C188.778 374.356 187.608 374.423 186.2 374.504C181.879 374.751 175.321 375.127 170.055 376.025C166.627 376.609 163.842 377.529 162.561 377.952C162.395 378.006 162.254 378.053 162.141 378.089C160.615 378.732 159.132 379.437 157.66 380.153C158.625 381.044 159.574 381.944 160.526 382.846C161.645 383.907 162.767 384.972 163.926 386.031C164.282 386.311 164.635 386.593 164.988 386.875L164.989 386.876C168.378 389.583 171.911 391.492 175.896 393.196C177.107 393.713 178.319 394.231 179.512 394.796L187.086 398.382C189.346 399.64 190.166 402.489 188.915 404.742C187.665 406.994 184.815 407.802 182.556 406.545L175.865 401.164C175 400.573 174.146 399.969 173.292 399.366L173.291 399.366C170.063 397.087 166.815 394.987 163.253 393.278C162.217 392.781 161.181 392.283 160.169 391.729C159.148 391.265 158.134 390.815 157.124 390.367L157.123 390.367C155.328 389.57 153.546 388.779 151.77 387.933C151.782 389.579 151.751 391.22 151.721 392.86C151.663 395.96 151.606 399.061 151.831 402.201C151.918 403.411 152.12 404.609 152.322 405.807C152.44 406.506 152.558 407.204 152.654 407.906C153.125 410.163 153.61 412.308 154.309 414.424C154.748 415.756 155.338 417.008 155.981 418.308C156.058 418.461 157.232 421.677 157.541 423.011C158.048 425.199 156.989 426.638 156.759 426.95C156.75 426.962 156.743 426.972 156.737 426.981C155.206 429.053 152.275 429.488 150.194 427.951C146.424 425.166 147.821 422.574 147.111 414.682Z" fill="#FFD412"/>
<path fill-rule="evenodd" clip-rule="evenodd" d="M152.12 456.757C151.939 454.743 151.803 452.741 151.746 450.648C151.691 450.087 151.648 449.524 151.605 448.961L151.604 448.96C151.503 447.636 151.402 446.313 151.147 445.013C150.456 441.488 149.315 438.142 148.17 434.785C147.948 434.133 147.725 433.48 147.506 432.825C146.856 433.447 146.21 434.076 145.575 434.721C145.055 435.289 144.52 435.839 143.987 436.387C142.823 437.584 141.666 438.773 140.681 440.124C138.778 442.735 137.431 445.669 136.076 448.623C135.939 448.921 135.802 449.22 135.665 449.518C134.161 452.777 134.563 454.78 132.43 457.667C129.012 462.295 124.909 457.974 124.535 457.34C124.531 457.332 124.526 457.324 124.521 457.315L124.498 457.277C124.215 456.809 123.279 455.261 124.222 453.194C124.445 452.706 125.607 450.935 125.669 450.85L129.276 445.943C130.385 444.273 131.617 442.716 132.848 441.161C133.959 439.758 135.069 438.356 136.086 436.873C136.985 435.562 137.739 434.177 138.497 432.785C138.92 432.006 139.346 431.225 139.798 430.454C140.306 429.512 140.787 428.561 141.258 427.608C140.334 427.555 139.413 427.495 138.496 427.435C134.469 427.173 130.496 426.914 126.492 427.292C123.173 427.605 119.992 428.664 116.831 429.809C113.876 430.879 111.114 432.393 108.313 434.206C106.009 435.363 103.191 434.43 102.024 432.125C100.857 429.819 101.78 427.008 104.084 425.851C110.066 423.548 115.934 422.817 121.864 422.077C122.023 422.058 122.182 422.038 122.341 422.018C124.874 421.702 127.398 421.335 129.913 420.85C133.708 420.119 137.383 419.153 141.106 418.055C139.232 416.118 137.315 414.219 135.148 412.566C133.157 411.046 130.978 409.821 128.796 408.593L128.795 408.593C128.091 408.197 127.386 407.801 126.687 407.394C124.84 406.32 122.986 405.313 121.125 404.303C120.075 403.733 119.023 403.161 117.969 402.576C115.869 401.066 115.386 398.142 116.891 396.05C118.395 393.959 121.32 393.488 123.42 394.998C124.179 395.692 124.929 396.388 125.677 397.081L125.677 397.082C127.35 398.633 129.015 400.177 130.759 401.681C131.319 402.164 131.873 402.655 132.427 403.145C134.346 404.842 136.263 406.537 138.412 407.931C140.423 409.236 142.551 410.281 144.714 411.25C144.714 411.029 144.712 410.807 144.709 410.586C144.682 410.056 144.681 409.428 144.679 408.72C144.675 406.997 144.67 404.803 144.295 402.414C143.502 397.371 141.704 391.657 140.426 387.595C139.98 386.177 139.597 384.96 139.343 384.043C138.893 381.501 140.592 379.081 143.136 378.641C145.679 378.201 148.109 379.908 148.559 382.45C148.645 383.534 148.695 385.043 148.754 386.807C148.894 391.023 149.083 396.694 149.929 401.499C150.348 403.882 151.055 405.964 151.609 407.598C151.836 408.268 152.038 408.862 152.184 409.371C152.374 409.948 152.571 410.519 152.774 411.086C153.554 410.388 154.345 409.711 155.136 409.034C156.792 407.616 158.447 406.199 159.998 404.598C160.66 403.914 161.252 403.167 161.845 402.419C162.186 401.989 162.527 401.559 162.881 401.14L168.977 392.565L172.518 387.694C174.178 385.724 177.132 385.476 179.111 387.141C181.09 388.806 181.349 391.758 179.689 393.728L174.669 397.937L167.388 404.851C167.111 405.196 166.827 405.536 166.542 405.876L166.542 405.876C165.88 406.666 165.218 407.456 164.655 408.317C163.385 410.26 162.393 412.296 161.416 414.348L165.457 413.764C165.813 413.692 166.423 413.623 167.227 413.532C168.853 413.349 171.271 413.076 173.977 412.507C178.955 411.461 184.862 409.629 188.997 408.347C190.646 407.836 192.012 407.412 192.926 407.16C195.467 406.709 197.905 408.405 198.366 410.945C198.827 413.484 197.139 415.913 194.598 416.364C193.787 416.431 192.617 416.498 191.209 416.579C186.888 416.826 180.33 417.202 175.064 418.1C171.636 418.684 168.851 419.604 167.57 420.027C167.404 420.082 167.263 420.128 167.15 420.164C165.624 420.808 164.141 421.512 162.669 422.228C163.634 423.119 164.583 424.019 165.535 424.921C166.654 425.983 167.776 427.047 168.935 428.107C169.291 428.386 169.644 428.668 169.997 428.95L169.998 428.951C173.387 431.658 176.92 433.568 180.905 435.271C182.116 435.788 183.328 436.306 184.521 436.871L192.095 440.457C194.355 441.715 195.175 444.564 193.924 446.817C192.674 449.069 189.824 449.877 187.565 448.62L180.874 443.239C180.009 442.648 179.155 442.044 178.301 441.441L178.3 441.441C175.072 439.162 171.824 437.062 168.262 435.353C167.226 434.856 166.19 434.359 165.178 433.804C164.157 433.341 163.143 432.89 162.133 432.442L162.132 432.442C160.337 431.645 158.555 430.855 156.779 430.009C156.791 431.654 156.76 433.295 156.73 434.935C156.672 438.035 156.615 441.137 156.84 444.276C156.927 445.486 157.129 446.684 157.332 447.882C157.449 448.581 157.567 449.279 157.663 449.981C158.134 452.239 158.619 454.383 159.318 456.499C159.757 457.831 160.347 459.083 160.99 460.383C161.067 460.536 162.241 463.752 162.55 465.086C163.057 467.274 161.998 468.713 161.768 469.026C161.759 469.037 161.752 469.048 161.746 469.056C160.215 471.128 157.284 471.563 155.203 470.026C151.433 467.241 152.83 464.649 152.12 456.757Z" fill="#FFD412"/>
<path fill-rule="evenodd" clip-rule="evenodd" d="M270.036 375.678C267.323 375.171 264.644 374.609 261.873 373.911C261.115 373.776 260.36 373.624 259.605 373.473L259.604 373.473C257.827 373.116 256.052 372.76 254.251 372.614C249.368 372.219 244.559 372.481 239.734 372.744C238.795 372.795 237.857 372.847 236.917 372.893C237.498 373.976 238.092 375.057 238.709 376.13C239.267 377.024 239.796 377.93 240.323 378.833C241.474 380.805 242.618 382.765 244.037 384.558C246.778 388.024 250.146 390.877 253.536 393.75C253.879 394.04 254.221 394.33 254.564 394.621C258.302 397.801 261.079 398.014 264.101 401.884C268.944 408.086 261.78 411.878 260.811 412.135C260.799 412.138 260.786 412.142 260.773 412.145L260.716 412.161C259.998 412.36 257.625 413.017 255.25 411.014C254.69 410.542 252.782 408.359 252.693 408.247L247.552 401.694C245.759 399.619 244.159 397.425 242.562 395.233C241.12 393.254 239.68 391.278 238.1 389.394C236.702 387.727 235.156 386.225 233.601 384.715C232.731 383.87 231.859 383.023 231.009 382.143C229.955 381.127 228.88 380.144 227.798 379.173C227.394 380.368 226.982 381.554 226.571 382.738C224.768 387.931 222.988 393.056 222.035 398.456C221.244 402.932 221.485 407.503 221.844 412.079C222.18 416.358 223.168 420.546 224.537 424.897C225.223 428.352 222.976 431.709 219.524 432.39C216.071 433.071 212.712 430.819 212.026 427.364C211.167 418.653 212.33 410.674 213.507 402.609C213.538 402.393 213.57 402.176 213.601 401.96C214.103 398.516 214.536 395.064 214.81 391.581C215.223 386.323 215.285 381.138 215.19 375.841C211.966 377.587 208.777 379.404 205.819 381.639C203.101 383.693 200.701 386.104 198.299 388.517L198.298 388.518C197.522 389.297 196.747 390.076 195.96 390.844C193.878 392.874 191.884 394.938 189.883 397.008C188.753 398.177 187.621 399.349 186.47 400.517C183.725 402.717 179.708 402.271 177.505 399.522C175.301 396.772 175.742 392.754 178.487 390.554C179.674 389.813 180.859 389.085 182.042 388.359L182.042 388.358C184.687 386.734 187.319 385.118 189.927 383.383C190.764 382.825 191.609 382.278 192.454 381.731C195.379 379.838 198.301 377.946 200.911 375.638C203.355 373.478 205.499 371.068 207.555 368.585C207.264 368.504 206.973 368.424 206.68 368.345C205.975 368.185 205.149 367.955 204.218 367.695C201.953 367.064 199.067 366.259 195.793 365.869C188.879 365.047 180.719 365.296 174.919 365.473C172.893 365.535 171.155 365.588 169.858 365.584C166.355 365.235 163.79 362.107 164.133 358.604C164.477 355.1 167.6 352.538 171.103 352.887C172.559 353.174 174.56 353.666 176.898 354.241C182.489 355.615 190.01 357.464 196.63 358.129C199.914 358.458 202.906 358.3 205.254 358.175C206.216 358.125 207.07 358.079 207.791 358.076C208.618 358.04 209.44 357.991 210.259 357.935C209.625 356.652 209.021 355.362 208.417 354.072C207.154 351.372 205.891 348.674 204.349 346.045C203.69 344.921 202.923 343.867 202.155 342.813C201.714 342.206 201.272 341.599 200.85 340.978L191.79 329.799L186.672 323.346C184.684 320.437 185.428 316.465 188.333 314.48C191.237 312.496 195.21 313.246 197.198 316.155L200.91 324.306L207.358 336.429C207.712 336.92 208.056 337.42 208.399 337.92L208.399 337.92C209.198 339.081 209.996 340.243 210.923 341.301C213.016 343.687 215.332 345.744 217.676 347.786L218.372 342.261C218.406 341.767 218.536 340.94 218.708 339.85C219.056 337.646 219.572 334.368 219.805 330.602C220.233 323.676 219.966 315.237 219.779 309.33C219.704 306.975 219.642 305.023 219.642 303.729C219.97 300.224 223.081 297.648 226.586 297.981C230.09 298.314 232.669 301.43 232.342 304.936C232.136 306.026 231.801 307.588 231.397 309.467C230.157 315.236 228.276 323.991 227.549 331.241C227.075 335.962 227.274 339.96 227.366 341.8C227.378 342.038 227.388 342.24 227.395 342.403C227.688 344.645 228.076 346.854 228.483 349.053C230.005 348.114 231.531 347.2 233.061 346.284C234.861 345.206 236.666 344.124 238.478 342.994C238.974 342.63 239.473 342.27 239.971 341.91L239.972 341.909C244.757 338.457 248.546 334.522 252.227 329.915C253.346 328.515 254.466 327.114 255.64 325.757L263.096 317.131C265.566 314.626 269.608 314.603 272.115 317.078C274.622 319.554 274.651 323.596 272.181 326.101L262.687 332.901C261.597 333.819 260.494 334.719 259.393 335.618L259.392 335.619C255.228 339.017 251.292 342.508 247.756 346.557C246.728 347.734 245.699 348.911 244.604 350.037C243.625 351.206 242.666 352.373 241.712 353.533L241.711 353.534C240.014 355.599 238.33 357.647 236.575 359.668C238.742 360.261 240.886 360.907 243.03 361.554C247.084 362.776 251.138 363.998 255.345 364.862C256.966 365.195 258.613 365.372 260.262 365.55C261.222 365.653 262.183 365.756 263.139 365.89C266.276 366.106 269.27 366.262 272.304 366.126C274.214 366.04 276.072 365.729 278.014 365.364C278.242 365.32 282.894 364.966 284.758 365.053C287.817 365.196 289.324 367.119 289.652 367.537C289.664 367.553 289.675 367.566 289.684 367.578C291.852 370.355 291.362 374.367 288.589 376.532C283.563 380.456 280.664 377.662 270.036 375.678Z" fill="#FFD412"/>
<path fill-rule="evenodd" clip-rule="evenodd" d="M263.047 385.345C261.661 385.086 260.291 384.799 258.875 384.442C258.487 384.373 258.101 384.295 257.715 384.218L257.715 384.218C256.807 384.036 255.899 383.854 254.978 383.779C252.483 383.577 250.024 383.711 247.557 383.845C247.078 383.872 246.598 383.898 246.117 383.921C246.415 384.475 246.718 385.028 247.034 385.576C247.319 386.033 247.589 386.496 247.859 386.958C248.447 387.966 249.032 388.968 249.757 389.884C251.158 391.656 252.88 393.115 254.613 394.583C254.788 394.731 254.963 394.88 255.138 395.029C257.049 396.654 258.469 396.763 260.013 398.741C262.489 401.911 258.827 403.85 258.332 403.981C258.326 403.983 258.319 403.985 258.312 403.986L258.283 403.995C257.916 404.096 256.703 404.432 255.489 403.408C255.203 403.167 254.228 402.051 254.182 401.994L251.554 398.644C250.637 397.583 249.82 396.462 249.003 395.341C248.266 394.33 247.53 393.319 246.722 392.356C246.008 391.504 245.217 390.736 244.423 389.964C243.978 389.533 243.532 389.1 243.098 388.65C242.559 388.131 242.009 387.628 241.456 387.132C241.25 387.742 241.039 388.349 240.829 388.954C239.907 391.609 238.997 394.229 238.51 396.989C238.106 399.277 238.229 401.614 238.413 403.953C238.584 406.14 239.09 408.281 239.789 410.505C240.14 412.271 238.991 413.987 237.227 414.335C235.462 414.683 233.744 413.532 233.394 411.766C232.955 407.313 233.549 403.234 234.151 399.112C234.167 399.001 234.183 398.89 234.199 398.78C234.456 397.019 234.677 395.255 234.817 393.474C235.028 390.787 235.06 388.136 235.011 385.428C233.363 386.321 231.733 387.25 230.221 388.392C228.832 389.442 227.605 390.675 226.377 391.908L226.376 391.909C225.98 392.307 225.583 392.705 225.181 393.098C224.117 394.136 223.098 395.19 222.075 396.249C221.497 396.846 220.919 397.445 220.33 398.043C218.927 399.167 216.873 398.939 215.747 397.533C214.621 396.128 214.846 394.074 216.249 392.95C216.856 392.571 217.462 392.199 218.067 391.827L218.067 391.827C219.419 390.997 220.764 390.171 222.097 389.284C222.525 388.999 222.957 388.719 223.389 388.439C224.884 387.471 226.378 386.504 227.712 385.325C228.961 384.22 230.057 382.989 231.109 381.719C230.96 381.678 230.811 381.637 230.661 381.597C230.301 381.515 229.878 381.397 229.402 381.264C228.245 380.942 226.769 380.53 225.096 380.331C221.561 379.911 217.39 380.038 214.425 380.129C213.39 380.16 212.502 380.187 211.839 380.185C210.048 380.007 208.737 378.408 208.912 376.617C209.088 374.826 210.684 373.516 212.475 373.695C213.219 373.842 214.242 374.093 215.437 374.387C218.295 375.089 222.14 376.034 225.524 376.374C227.202 376.543 228.732 376.462 229.932 376.398C230.424 376.372 230.86 376.349 231.229 376.347C231.652 376.329 232.072 376.304 232.491 376.275C232.166 375.619 231.858 374.96 231.549 374.301C230.903 372.92 230.258 371.541 229.47 370.197C229.133 369.623 228.741 369.084 228.348 368.545C228.122 368.235 227.896 367.924 227.681 367.607L223.05 361.893L220.433 358.594C219.417 357.107 219.797 355.076 221.282 354.062C222.767 353.048 224.798 353.431 225.814 354.918L227.712 359.085L231.008 365.282C231.189 365.533 231.364 365.788 231.54 366.044L231.54 366.044C231.948 366.638 232.356 367.231 232.83 367.772C233.9 368.992 235.084 370.043 236.282 371.087L236.638 368.263C236.655 368.01 236.722 367.588 236.81 367.03C236.987 365.904 237.251 364.229 237.37 362.303C237.589 358.763 237.452 354.449 237.357 351.43C237.319 350.226 237.287 349.228 237.287 348.567C237.454 346.775 239.045 345.458 240.836 345.628C242.628 345.798 243.946 347.391 243.779 349.183C243.674 349.74 243.502 350.539 243.296 351.5C242.662 354.448 241.701 358.924 241.329 362.63C241.086 365.043 241.188 367.087 241.235 368.028C241.242 368.149 241.247 368.253 241.25 368.336C241.4 369.482 241.599 370.611 241.806 371.735C242.584 371.255 243.364 370.788 244.146 370.319C245.066 369.768 245.99 369.215 246.915 368.638C247.169 368.452 247.424 368.268 247.679 368.084L247.679 368.083C250.126 366.318 252.062 364.307 253.944 361.952C254.516 361.236 255.088 360.52 255.688 359.826L259.5 355.417C260.763 354.137 262.828 354.125 264.11 355.39C265.392 356.655 265.407 358.722 264.144 360.002L259.29 363.478C258.733 363.948 258.17 364.408 257.607 364.867L257.606 364.868C255.478 366.605 253.466 368.389 251.658 370.459C251.133 371.061 250.607 371.663 250.047 372.238C249.547 372.836 249.057 373.432 248.569 374.025L248.568 374.026C247.701 375.081 246.84 376.128 245.943 377.161C247.05 377.464 248.146 377.795 249.243 378.125C251.315 378.75 253.387 379.374 255.538 379.816C256.366 379.987 257.208 380.077 258.051 380.168C258.542 380.221 259.033 380.273 259.522 380.342C261.126 380.452 262.656 380.532 264.207 380.462C265.183 380.419 266.133 380.259 267.125 380.073C267.242 380.05 269.62 379.869 270.573 379.914C272.137 379.987 272.907 380.97 273.075 381.184C273.081 381.192 273.086 381.199 273.091 381.204C274.199 382.624 273.949 384.675 272.531 385.782C269.962 387.788 268.48 386.36 263.047 385.345Z" fill="#FFD412"/>
<path fill-rule="evenodd" clip-rule="evenodd" d="M468.715 235.423C467.402 233.927 466.132 232.415 464.87 230.784C464.501 230.37 464.14 229.948 463.779 229.525L463.778 229.525C462.929 228.532 462.08 227.539 461.124 226.654C458.531 224.256 455.689 222.266 452.837 220.269C452.283 219.88 451.728 219.492 451.175 219.1C451.025 219.976 450.883 220.856 450.758 221.742C450.678 222.499 450.577 223.251 450.476 224.001C450.256 225.636 450.037 227.262 450.047 228.915C450.067 232.109 450.713 235.233 451.363 238.379C451.429 238.697 451.495 239.014 451.56 239.333C452.271 242.808 453.751 244.165 453.751 247.714C453.751 253.403 448.012 252.377 447.349 252.091C447.341 252.088 447.332 252.084 447.322 252.08L447.283 252.064C446.788 251.858 445.152 251.177 444.693 248.979C444.584 248.46 444.469 246.368 444.468 246.264L444.455 240.243C444.356 238.263 444.421 236.301 444.486 234.341C444.545 232.572 444.603 230.805 444.542 229.029C444.487 227.457 444.275 225.913 444.062 224.361C443.943 223.492 443.824 222.622 443.732 221.742C443.584 220.694 443.41 219.656 443.226 218.621C442.468 219.122 441.709 219.615 440.953 220.106C437.631 222.263 434.354 224.392 431.424 227.044C428.994 229.243 427.107 231.954 425.285 234.722C423.582 237.309 422.288 240.135 421.138 243.223C419.997 245.497 417.238 246.41 414.979 245.262C412.721 244.114 411.814 241.336 412.954 239.062C416.323 233.717 420.515 229.688 424.751 225.616C424.865 225.507 424.979 225.397 425.092 225.288C426.901 223.549 428.674 221.775 430.371 219.912C432.933 217.1 435.263 214.173 437.554 211.113C434.953 210.673 432.342 210.289 429.676 210.247C427.226 210.208 424.799 210.514 422.368 210.82L422.367 210.82C421.583 210.919 420.798 211.017 420.013 211.105C417.934 211.336 415.89 211.624 413.839 211.913C412.681 212.077 411.521 212.241 410.351 212.394C407.822 212.426 405.742 210.385 405.71 207.838C405.678 205.291 407.706 203.197 410.236 203.165C411.237 203.271 412.231 203.384 413.223 203.496L413.224 203.496C415.442 203.747 417.649 203.997 419.895 204.169C420.617 204.224 421.338 204.289 422.059 204.353C424.555 204.575 427.049 204.797 429.55 204.644C431.891 204.5 434.173 204.081 436.438 203.581C436.309 203.406 436.179 203.23 436.048 203.055C435.72 202.65 435.353 202.151 434.94 201.589C433.936 200.222 432.656 198.479 430.973 196.8C427.418 193.255 422.682 189.767 419.316 187.287C418.14 186.421 417.131 185.678 416.398 185.098C414.567 183.341 414.497 180.417 416.243 178.574C417.988 176.73 420.893 176.66 422.724 178.417C423.422 179.229 424.339 180.399 425.41 181.767C427.971 185.038 431.415 189.438 434.874 192.762C436.589 194.411 438.355 195.652 439.741 196.626C440.309 197.025 440.813 197.379 441.224 197.698C441.708 198.045 442.196 198.384 442.685 198.716C442.893 197.703 443.122 196.699 443.351 195.696C443.83 193.595 444.309 191.496 444.598 189.312C444.722 188.378 444.753 187.436 444.785 186.494C444.803 185.952 444.822 185.409 444.858 184.868L444.67 174.467L444.625 168.513C444.786 165.971 446.966 164.038 449.491 164.2C452.016 164.362 453.936 166.557 453.775 169.099L452.271 175.395L450.56 185.171C450.543 185.609 450.517 186.046 450.49 186.484L450.49 186.484C450.429 187.501 450.367 188.518 450.425 189.534C450.555 191.825 450.957 194.027 451.381 196.233L454.222 193.395C454.46 193.129 454.9 192.715 455.48 192.171C456.652 191.07 458.396 189.432 460.195 187.389C463.504 183.633 467.087 178.706 469.596 175.257C470.596 173.882 471.425 172.742 471.998 172.005C473.735 170.154 476.639 170.07 478.478 171.819C480.317 173.568 480.4 176.492 478.663 178.343C478.064 178.873 477.182 179.614 476.121 180.505C472.865 183.24 467.923 187.392 464.301 191.199C461.943 193.678 460.286 196.045 459.524 197.134C459.425 197.275 459.342 197.395 459.273 197.491C458.447 198.899 457.69 200.33 456.947 201.764C458.225 201.906 459.494 202.064 460.767 202.223C462.265 202.409 463.767 202.597 465.294 202.759C465.737 202.772 466.179 202.789 466.62 202.805L466.621 202.805C470.862 202.967 474.752 202.411 478.877 201.424C480.131 201.124 481.386 200.824 482.653 200.573L490.697 198.976C493.206 198.648 495.507 200.433 495.833 202.959C496.158 205.485 494.385 207.801 491.876 208.129L483.484 207.779C482.46 207.818 481.437 207.84 480.415 207.862L480.414 207.862C476.549 207.946 472.773 208.184 468.976 208.917C467.873 209.13 466.768 209.343 465.649 209.497C464.577 209.728 463.517 209.966 462.462 210.203L462.462 210.203C460.585 210.624 458.724 211.042 456.835 211.412C457.801 212.714 458.73 214.037 459.659 215.359C461.416 217.859 463.173 220.359 465.175 222.724C465.947 223.635 466.802 224.469 467.658 225.303C468.157 225.789 468.656 226.276 469.138 226.778C470.821 228.297 472.449 229.717 474.229 230.99C475.35 231.791 476.541 232.44 477.803 233.096C477.952 233.172 480.746 235.04 481.764 235.92C483.435 237.362 483.438 239.128 483.438 239.513C483.438 239.527 483.438 239.54 483.438 239.55C483.438 242.097 481.384 244.165 478.854 244.165C474.268 244.165 473.861 241.283 468.715 235.423Z" fill="#FFD412"/>
<path fill-rule="evenodd" clip-rule="evenodd" d="M510.597 192.884C509.098 191.721 507.638 190.534 506.165 189.236C505.745 188.914 505.33 188.584 504.916 188.254L504.916 188.253C503.942 187.476 502.969 186.7 501.911 186.042C499.045 184.26 496.008 182.898 492.962 181.531C492.37 181.266 491.777 181 491.186 180.731C491.189 181.57 491.201 182.411 491.23 183.255C491.28 183.971 491.31 184.686 491.338 185.399C491.402 186.955 491.465 188.502 491.75 190.034C492.302 192.997 493.438 195.787 494.581 198.595C494.697 198.879 494.812 199.163 494.927 199.447C496.184 202.552 497.818 203.558 498.41 206.853C499.359 212.134 493.728 212.162 493.049 212.011C493.041 212.009 493.032 212.007 493.022 212.005L492.982 211.997C492.477 211.89 490.807 211.537 490.003 209.576C489.813 209.113 489.355 207.19 489.336 207.094L488.319 201.507C487.895 199.685 487.63 197.853 487.364 196.023C487.125 194.37 486.886 192.72 486.531 191.082C486.217 189.632 485.758 188.235 485.296 186.83C485.038 186.045 484.779 185.257 484.545 184.456C484.229 183.509 483.89 182.574 483.543 181.645C482.906 182.24 482.266 182.827 481.628 183.413C478.828 185.983 476.065 188.519 473.719 191.482C471.774 193.939 470.431 196.779 469.159 199.659C467.97 202.352 467.211 205.197 466.632 208.26C465.926 210.566 463.453 211.886 461.113 211.206C458.773 210.526 457.446 208.102 458.151 205.797C460.465 200.258 463.781 195.801 467.133 191.297C467.223 191.176 467.312 191.055 467.402 190.935C468.833 189.011 470.224 187.061 471.528 185.041C473.496 181.993 475.225 178.878 476.894 175.645C474.346 175.681 471.798 175.771 469.254 176.188C466.917 176.571 464.658 177.27 462.397 177.969L462.396 177.969C461.667 178.195 460.936 178.421 460.203 178.636C458.264 179.206 456.368 179.823 454.465 180.443C453.391 180.792 452.314 181.143 451.227 181.486C448.825 181.948 446.506 180.408 446.051 178.049C445.596 175.69 447.176 173.4 449.577 172.938C450.548 172.865 451.512 172.799 452.475 172.734L452.475 172.734C454.628 172.588 456.769 172.443 458.935 172.218C459.631 172.146 460.327 172.082 461.024 172.019C463.436 171.798 465.846 171.578 468.2 171.008C470.403 170.474 472.505 169.695 474.576 168.844C474.424 168.703 474.271 168.562 474.117 168.422C473.737 168.103 473.305 167.702 472.819 167.251C471.635 166.153 470.127 164.754 468.245 163.484C464.271 160.8 459.184 158.372 455.567 156.645C454.304 156.042 453.22 155.525 452.426 155.112C450.391 153.794 449.837 151.092 451.19 149.082C452.543 147.072 455.295 146.51 457.33 147.829C458.13 148.463 459.197 149.393 460.444 150.48C463.426 153.078 467.438 156.573 471.283 159.068C473.19 160.305 475.077 161.156 476.558 161.823C477.165 162.096 477.704 162.339 478.148 162.565C478.667 162.804 479.187 163.034 479.708 163.26C479.737 162.283 479.787 161.312 479.838 160.342C479.943 158.31 480.048 156.279 479.959 154.202C479.921 153.315 479.794 152.435 479.667 151.555C479.594 151.048 479.521 150.541 479.465 150.032L477.551 140.409L476.515 134.889C476.244 132.502 477.996 130.336 480.425 130.054C482.855 129.773 485.047 131.482 485.318 133.869L484.938 139.971L484.941 149.339C484.998 149.748 485.046 150.159 485.094 150.57L485.094 150.57C485.205 151.525 485.316 152.479 485.54 153.412C486.046 155.517 486.796 157.492 487.568 159.468L489.797 156.347C489.979 156.059 490.328 155.6 490.789 154.996C491.721 153.773 493.107 151.955 494.478 149.751C496.999 145.699 499.587 140.512 501.398 136.881C502.12 135.434 502.719 134.234 503.141 133.452C504.485 131.436 507.234 130.862 509.275 132.171C511.317 133.48 511.883 136.18 510.539 138.196C510.058 138.79 509.342 139.629 508.482 140.637C505.84 143.733 501.831 148.432 499.02 152.586C497.19 155.29 496.009 157.771 495.465 158.912C495.395 159.06 495.335 159.185 495.286 159.286C494.735 160.734 494.253 162.192 493.785 163.651C495.025 163.564 496.259 163.494 497.497 163.423C498.953 163.34 500.413 163.257 501.893 163.147C502.316 163.083 502.74 163.023 503.163 162.963L503.164 162.963C507.226 162.389 510.833 161.207 514.594 159.586C515.737 159.093 516.881 158.6 518.044 158.15L525.431 155.292C527.764 154.558 530.251 155.822 530.982 158.111C531.713 160.4 530.413 162.854 528.08 163.587L520.037 164.697C519.07 164.908 518.1 165.104 517.131 165.299L517.13 165.299C513.467 166.038 509.914 166.904 506.424 168.234C505.409 168.621 504.394 169.007 503.355 169.341C502.373 169.739 501.405 170.141 500.441 170.541L500.44 170.542C498.725 171.253 497.024 171.959 495.289 172.626C496.424 173.67 497.529 174.739 498.634 175.808C500.723 177.828 502.811 179.848 505.111 181.701C505.997 182.415 506.95 183.043 507.903 183.671C508.459 184.037 509.015 184.403 509.558 184.787C511.412 185.909 513.198 186.949 515.104 187.826C516.303 188.378 517.545 188.778 518.855 189.171C519.01 189.216 521.979 190.472 523.095 191.115C524.925 192.168 525.222 193.807 525.287 194.164C525.29 194.177 525.292 194.189 525.294 194.198C525.718 196.563 524.109 198.834 521.702 199.266C517.339 200.05 516.471 197.444 510.597 192.884Z" fill="#FFD412"/>
</g>
</g>
<path d="M319.797 271.874C319.932 271.264 320.068 270.654 320.203 270.044C319.731 269.726 319.25 269.456 318.714 269.24C316.682 268.302 313.303 268.706 311.498 270.975C307.821 276.124 309.135 281.342 311.028 285.678C312.142 287.859 313.294 289.996 314.922 292.032C315.092 292.237 315.27 292.441 315.477 292.65C315.584 292.756 315.691 292.859 315.836 292.977C315.909 293.037 315.989 293.099 316.101 293.17C316.233 293.231 316.305 293.364 316.826 293.396C316.826 292.771 316.826 292.146 316.826 291.521C317.228 291.55 317.19 291.613 317.228 291.607C317.245 291.609 317.235 291.591 317.222 291.566C317.194 291.515 317.151 291.44 317.107 291.358C317.02 291.193 316.928 291.001 316.84 290.804C315.97 288.774 315.306 286.477 314.623 284.24C313.607 280.709 313.682 276.125 315.315 274.205C315.957 273.451 316.717 272.763 318.448 272.228C318.865 272.098 319.305 271.978 319.797 271.874Z" fill="black"/>
<path d="M335.393 307.988C335.015 308.635 334.636 309.283 334.258 309.93C335.366 310.674 336.539 311.44 337.688 312.176C354.03 322.214 370.633 332.139 390.758 335.452C393.164 335.687 395.693 335.717 398.373 334.899C401.008 334.22 404.038 331.603 404.453 328.567L404.445 328.595C404.668 327.396 404.743 326.275 404.714 325.098C404.615 323.575 404.587 321.899 403.225 320.284C402.625 320.734 402.025 321.184 401.425 321.634C401.63 322.318 401.451 323.594 401.132 324.737C400.889 325.617 400.566 326.54 400.206 327.323L400.198 327.351C399.091 329.842 395.424 329.875 391.381 329.484C373.695 326.645 356.09 317.839 339.03 309.796C337.817 309.201 336.575 308.581 335.393 307.988Z" fill="black"/>
<path d="M407.5 253.419C414.294 253.235 422.209 249.549 431 245.069C432.5 244.302 456.5 236.459 473 245.959C486.2 253.559 489.167 260.792 489 263.459C488.167 270.126 484.6 283.659 477 284.459C467.5 285.459 465 281.959 467.5 277.959C470 273.959 477 267.459 475.5 261.459C474 255.459 470 248.959 460.5 250.959C451 252.959 434.5 256.98 419.5 256.22C414.4 255.678 410.149 254.788 407.5 253.419Z" fill="#E789FA"/>
<path d="M454 268.459C462.516 267.114 465.214 267.308 464.122 268.459C466.915 266.126 472 260.359 470 257.959C468 255.559 466.167 255.459 465.5 255.459C454.351 256.542 433.654 257.723 419.5 256.22M419.5 256.22C414.4 255.678 410.149 254.788 407.5 253.419C414.294 253.235 422.209 249.549 431 245.069C432.5 244.302 456.5 236.459 473 245.959C486.2 253.559 489.167 260.792 489 263.459C488.167 270.126 484.6 283.659 477 284.459C467.5 285.459 465 281.959 467.5 277.959C470 273.959 477 267.459 475.5 261.459C474 255.459 470 248.959 460.5 250.959C451 252.959 434.5 256.98 419.5 256.22Z" stroke="black"/>
<path d="M235.5 288.459C253.667 291.459 294.3 294.159 311.5 280.959C314.667 278.459 321.5 271.859 323.5 265.459" stroke="black"/>
<path d="M474 239.959C473.757 239.959 473.502 239.894 473.241 239.78C465.741 238.112 447.997 237.042 431 245.069C434.22 243.428 437.557 241.68 441 239.959C456 232.459 469.5 235.459 470 236.459C470.419 237.297 471.892 239.19 473.241 239.78C473.507 239.839 473.76 239.899 474 239.959Z" fill="black"/>
<path d="M467.5 226.959C468.5 227.959 475.5 232.459 475.5 233.959C475.5 235.459 475.5 239.959 474 239.959M474 239.959C472.5 239.959 470.5 237.459 470 236.459C469.5 235.459 456 232.459 441 239.959C437.557 241.68 434.22 243.428 431 245.069C448.6 236.757 467 238.199 474 239.959Z" stroke="black"/>
<path d="M368 418.959C361.2 420.559 343.833 413.292 336 409.459C336 410.659 338.667 429.292 340 438.459C348 463.959 403.5 511.459 406 511.459C408.5 511.459 411 520.459 415 522.459C419 524.459 449 527.959 453.5 525.959C458 523.959 454.5 520.959 453.5 520.459C452.7 520.059 440.833 514.292 435 511.459C393.5 489.959 366 435.459 366.5 431.459C366.9 428.259 367.667 421.792 368 418.959Z" fill="url(#paint2_linear_59_135)" stroke="black"/>
<path d="M403 205.959C403.975 205.569 405.068 204.847 405.817 203.862C407.45 201.713 405.248 198.925 402.555 199.098C400.199 199.249 397.277 199.959 394 199.959C388.5 199.959 388 199.959 387 201.959C386 203.959 382.5 202.959 381.5 206.959C380.5 210.959 400.5 206.959 403 205.959Z" fill="black"/>
<path d="M390 193.459C386 192.959 376.8 194.159 372 202.959M403 205.959C403.975 205.569 405.068 204.847 405.817 203.862C407.45 201.713 405.248 198.925 402.555 199.098C400.199 199.249 397.277 199.959 394 199.959C388.5 199.959 388 199.959 387 201.959C386 203.959 382.5 202.959 381.5 206.959C380.5 210.959 400.5 206.959 403 205.959Z" stroke="black"/>
<path d="M459.046 205.959H451.609C448.701 205.959 445.956 207.302 444.17 209.597L442.25 212.067C440.906 213.794 440.819 216.187 442.032 218.008C442.66 218.948 443.582 219.653 444.655 220.011L452.845 222.741C454.272 223.216 455.767 223.459 457.272 223.459H462.5C464.157 223.459 465.5 222.116 465.5 220.459V212.413C465.5 210.255 464.422 208.24 462.626 207.043C461.566 206.336 460.32 205.959 459.046 205.959Z" fill="black" stroke="black"/>
<path d="M137.318 0.918007C136.773 0.611992 136.228 0.305977 135.683 -3.83556e-05C133.803 3.14106 132.16 6.42611 130.656 9.76665C117.743 39.9812 112.242 73.5407 116.032 106.504C116.535 110.517 117.21 114.522 118.075 118.481C124.217 146.468 137.054 175.199 161.482 191.866C164.539 193.924 167.749 195.748 171.081 197.298C171.36 196.738 171.64 196.179 171.919 195.62C168.77 193.93 165.761 191.994 162.913 189.854C140.237 172.58 128.789 144.806 122.926 117.437C122.118 113.624 121.48 109.761 120.993 105.881C117.32 74.0285 121.795 41.0144 132.933 10.721C134.236 7.37328 135.668 4.07395 137.318 0.918007Z" fill="black"/>
<path d="M234.826 221.58C234.609 222.166 234.391 222.752 234.174 223.338C235.382 223.897 236.618 224.48 237.866 225.078C248.868 230.417 259.634 236.193 269.905 242.599C279.983 249.103 290.447 255.949 296.493 266.127C297.13 267.28 297.672 268.465 298.092 269.691C298.697 269.536 299.303 269.382 299.908 269.227C299.658 267.824 299.256 266.441 298.733 265.09C293.615 253.037 282.928 245.059 272.562 238.363C261.96 231.751 250.561 226.618 238.78 222.785C237.446 222.354 236.122 221.949 234.826 221.58Z" fill="black"/>
<defs>
<linearGradient id="paint0_linear_59_135" x1="275.227" y1="148.174" x2="275.227" y2="480.773" gradientUnits="userSpaceOnUse">
<stop stop-color="white"/>
<stop offset="0.461538" stop-color="#F2EAD5"/>
</linearGradient>
<linearGradient id="paint1_linear_59_135" x1="275.249" y1="148.827" x2="275.249" y2="478.755" gradientUnits="userSpaceOnUse">
<stop stop-color="white"/>
<stop offset="1" stop-color="#F2EAD5"/>
</linearGradient>
<linearGradient id="paint2_linear_59_135" x1="395.871" y1="409.459" x2="395.871" y2="526.556" gradientUnits="userSpaceOnUse">
<stop stop-color="#FFD412"/>
<stop offset="1" stop-color="#F2EAD5"/>
</linearGradient>
</defs>
</svg>
