<svg width="411" height="632" viewBox="0 0 411 632" fill="none" xmlns="http://www.w3.org/2000/svg">
<path fill-rule="evenodd" clip-rule="evenodd" d="M306.578 18.3288C284.412 7.867 193.448 62.2687 165.596 73.4714C148.448 80.3689 50.2067 134.666 47.4934 154.936C43.2618 186.554 100.285 160.669 115.805 160.669C120.048 160.669 137.972 156.355 136.646 159.236C128.381 177.173 -6.77595 287.106 22.0167 309.956C40.4442 324.58 120.431 304.138 130.468 313.544C133.158 316.063 109.31 358.68 103.837 368.448C85.2477 401.617 45.3094 495.787 49.51 500.462C59.983 512.121 308.244 330.613 299.14 299.553C290.514 270.126 216.91 283.316 188.755 270.126C176.697 264.476 339.437 151.432 319.266 118.667C313.769 109.737 241.074 138.309 224.652 145.956C223.818 146.344 212.965 151.607 212.297 149.905C209.521 142.828 246.183 110.944 268.373 87.6286C288.528 66.4508 319.266 24.3172 306.578 18.3288Z" fill="#9946F7"/>
<path fill-rule="evenodd" clip-rule="evenodd" d="M306.578 18.3288C284.412 7.867 193.448 62.2687 165.596 73.4714C148.448 80.3689 50.2067 134.666 47.4934 154.936C43.2618 186.554 100.285 160.669 115.805 160.669C120.048 160.669 137.972 156.355 136.646 159.236C128.381 177.173 -6.77595 287.106 22.0167 309.956C40.4442 324.58 120.431 304.138 130.468 313.544C133.158 316.063 109.31 358.68 103.837 368.448C85.2477 401.617 45.3094 495.787 49.51 500.462C59.983 512.121 308.244 330.613 299.14 299.553C290.514 270.126 216.91 283.316 188.755 270.126C176.697 264.476 339.437 151.432 319.266 118.667C313.769 109.737 241.074 138.309 224.652 145.956C223.818 146.344 212.965 151.607 212.297 149.905C209.521 142.828 246.183 110.944 268.373 87.6286C288.528 66.4508 319.266 24.3172 306.578 18.3288Z" fill="url(#paint0_linear_59_133)"/>
<path d="M216 299C211.5 299 200 311 192.5 313C187.373 314.367 182.479 312.93 177.5 310.926C180.833 313.451 188.5 318.2 192.5 317C196.319 315.854 205.973 309.457 211.211 306.5C212.807 307 216 308.7 216 311.5C216 315 206.5 325.598 201 326.081C202.995 326 204.746 326 205.5 326C207.5 326 219.5 317 222 308.5C224.5 300 220.5 299 216 299Z" fill="black"/>
<path d="M170.5 333.445C173.277 333.87 175.877 334 177.5 334C182 334 190.5 329 192.5 327.5C193.439 326.795 195.923 326.422 198.5 326.224C199.34 326.159 200.19 326.113 201 326.081M214.5 305C214.028 305 212.83 305.586 211.211 306.5M211.211 306.5C205.973 309.457 196.319 315.854 192.5 317C188.5 318.2 180.833 313.451 177.5 310.926C182.479 312.93 187.373 314.367 192.5 313C200 311 211.5 299 216 299C220.5 299 224.5 300 222 308.5C219.5 317 207.5 326 205.5 326C204.746 326 202.995 326 201 326.081M211.211 306.5C212.807 307 216 308.7 216 311.5C216 315 206.5 325.598 201 326.081M166 332.482C163.899 331.878 161.946 331.049 160.5 329.92" stroke="black"/>
<path d="M192.5 325.5C193.439 324.796 195.923 324.422 198.5 324.224C197.5 321.983 195.2 317.7 194 318.5C192.5 319.5 191 324.5 192.5 325.5Z" fill="white"/>
<path d="M166 321C166 321.905 166.758 324.564 167.416 326.673C167.656 327.441 166.948 328.172 166.193 327.889C165.015 327.447 163.926 326.918 163.002 326.286C162.688 326.072 162.548 325.685 162.631 325.314C162.84 324.372 163.181 322.959 163.5 322C164 320.5 166 319.5 166 321Z" fill="white"/>
<path d="M170.5 329.445C173.277 329.87 175.877 332 177.5 332C182 332 190.5 327 192.5 325.5M205.5 324C204.746 324 202.995 324 201 324.081C200.19 324.113 199.34 324.159 198.5 324.224M192.5 325.5C193.439 324.796 195.923 324.422 198.5 324.224M192.5 325.5C191 324.5 192.5 319.5 194 318.5C195.2 317.7 197.5 321.983 198.5 324.224M166 321C166 321.905 166.758 324.564 167.416 326.673C167.656 327.441 166.948 328.172 166.193 327.889C165.015 327.447 163.926 326.918 163.002 326.286C162.688 326.072 162.548 325.685 162.631 325.314C162.84 324.372 163.181 322.959 163.5 322C164 320.5 166 319.5 166 321Z" stroke="black"/>
<path d="M170.443 330.646C168.417 330.337 166.127 329.522 164.023 328.426C161.056 326.881 160.004 327.509 161.5 330.5C162 331.5 166.089 334.957 172.516 335.802C172.105 335.142 171.714 333.946 171.362 332.868C171.011 331.794 170.698 330.838 170.443 330.646Z" fill="#FFD412"/>
<path d="M230.607 221.016C232.064 221.678 233.301 222.362 234.281 223.047C235.913 224.189 237.367 225.639 239.008 226.766C243.589 229.913 245.871 233 247.934 235.789C249.339 237.689 250.642 239.451 252.5 241C255.5 243.5 255.167 253.05 251.492 265.646C251.532 266.24 251.511 267.199 251.488 268.193C251.464 269.279 251.439 270.406 251.492 271.146C267.163 268.146 268.935 269.784 272.943 272.646C275.063 274.161 276.878 277.267 278.165 280.295C279.514 283.473 282.08 286.139 285.444 286.916C286.107 287.069 286.79 287.172 287.463 287.068C289.504 286.75 291.671 285.398 288.943 281.646C286.077 277.706 285.403 267.86 285.413 262.015C285.416 260.774 285.275 259.539 284.892 258.359C283.943 255.434 282.189 250.64 279.943 246.146C276.443 239.146 257.443 247.146 251.492 235.146C246.769 225.621 235.214 221.727 230.607 221.016Z" fill="#FFD412"/>
<path fill-rule="evenodd" clip-rule="evenodd" d="M147.819 281.767C154.136 287.5 155.9 297.807 156.031 304.619C156.061 306.173 157.761 307.354 159.273 306.996C162.247 306.291 166.383 306.022 170.443 307.646C171.668 308.136 172.88 308.653 174.083 309.166C180.243 311.793 186.168 314.32 192.443 312.646C196.255 311.63 201.1 308.03 205.535 304.735C209.825 301.548 213.73 298.646 215.943 298.646C220.443 298.646 224.443 299.646 221.943 308.146C219.443 316.646 207.443 325.646 205.443 325.646C203.443 325.646 194.443 325.646 192.443 327.146C190.443 328.646 183.943 330.646 179.443 330.646C179.003 330.646 178.344 330.677 177.562 330.714C175.46 330.814 172.467 330.956 170.443 330.646C170.698 330.838 171.011 331.794 171.362 332.868C171.714 333.946 172.105 335.142 172.516 335.802C176.145 341.627 171.809 346.203 165.604 349.135C163.172 350.285 161.426 351.799 160.144 353.35C157.095 357.04 155.669 364.36 155.672 369.146C152.429 396.48 146.543 460.146 148.943 496.146C148.776 502.48 148.143 516.046 146.943 519.646C145.443 524.146 139.943 541.146 139.443 552.646C139.323 555.399 139.232 558.353 139.142 561.266C138.857 570.525 138.583 579.386 137.443 580.146C135.943 581.146 119.443 597.646 118.943 600.146C118.87 600.51 118.765 600.927 118.652 601.379C117.987 604.028 117.025 607.865 120.443 609.146C124.443 610.646 135.443 611.646 136.443 611.146C136.568 611.084 136.873 610.958 137.315 610.777C140.4 609.512 150.13 605.52 151.443 601.146C152.943 596.146 152.943 586.646 152.943 584.646C152.943 582.646 153.443 557.646 156.443 549.646C157.572 546.635 159.409 533.283 161.608 516.787C167.552 528.353 178.888 540.883 187.729 549.244C190.074 551.462 191.541 554.461 191.659 557.687C191.917 564.745 192.073 573.938 191.443 576.146C190.891 578.077 183.727 583.132 177.53 587.505C176.628 588.141 175.747 588.763 174.91 589.358C172.041 591.399 169.786 595.002 171.665 597.98C175.183 603.556 185.49 602.386 192.754 601.561C194.326 601.383 195.755 601.22 196.943 601.146C200.82 600.904 210.644 595.021 219.343 589.124C224.072 585.917 241.294 582.785 246.943 583.646C252.997 584.57 258.874 584.636 264.393 584.136C263.167 587.181 261.541 590.225 259.443 592.646C252.943 600.146 246.943 614.646 246.943 618.646C246.943 622.646 250.443 623.146 253.443 622.646C254.113 622.534 254.959 622.498 255.879 622.458C259.074 622.318 263.166 622.14 263.943 618.646C264.943 614.146 267.443 607.646 269.443 605.646C270.807 604.281 276.364 590.575 279.755 581.212C288.495 578.672 295.3 575.156 298.943 572.646C297.859 576.696 291.439 581.009 286.328 583.742C283.861 585.061 281.724 587.003 280.701 589.607C279.338 593.076 277.943 597.6 277.943 601.146C277.943 607.646 294.443 611.646 298.943 601.146C302.027 593.949 315.609 585.749 324.782 581.137C327.438 579.802 329.602 577.639 330.794 574.915L335.943 563.146C339.99 555.639 343.094 548.647 345.392 542.146C370.512 533.19 369.186 552.609 368.253 566.27C368.092 568.625 367.943 570.808 367.943 572.646C367.943 582.023 353.583 601.803 345.06 612.202C344.002 613.492 343.17 614.966 342.812 616.595C341.054 624.592 342.404 632.635 359.443 614.146C382.943 588.646 395.943 543.646 388.443 518.146C382.443 497.746 360.832 505.646 350.777 512.146C350.063 484.213 330.602 471.024 318.443 467.646C319.776 464.646 320.743 457.946 315.943 449.146C309.943 438.146 300.943 404.646 298.943 385.146C297.382 369.927 275.109 342.829 263.98 329.288C260.85 325.48 258.601 322.744 257.943 321.646C255.718 317.939 252.784 289.1 251.492 271.146C251.439 270.406 251.464 269.279 251.488 268.193C251.511 267.199 251.532 266.24 251.492 265.646C255.167 253.05 255.5 243.5 252.5 241C250.642 239.451 249.339 237.689 247.934 235.789C245.871 233 243.589 229.913 239.008 226.766C237.367 225.639 235.913 224.189 234.281 223.047C233.301 222.362 232.064 221.678 230.607 221.016C214.025 213.479 169.071 208.68 152.943 234.146C152.837 234.313 152.732 234.48 152.628 234.646C150.9 234.313 147.043 233.946 145.443 235.146C143.443 236.646 131.417 254.646 136.943 261.146C141.292 266.262 142.395 266.313 142.411 265.678C142.43 271.718 143.86 276.304 145.476 279.161C146.034 280.149 146.884 280.919 147.725 281.682L147.819 281.767ZM182.943 479.108C180.061 472.876 176.419 464.035 172.743 453.607C172.019 451.555 171.877 449.337 172.383 447.22C170.111 456.694 167.726 472.082 165.48 488.111C170.528 482.594 176.042 479.569 182.943 479.108ZM237.943 538.646C236.443 542.646 228.443 543.146 225.443 540.646C224.69 540.019 224.157 539.36 223.837 538.646C222.882 536.515 223.821 533.892 226.443 530.146C226.717 529.754 227.016 529.423 227.334 529.146C229.415 527.337 232.322 527.843 234.587 528.826C236.221 529.535 237.458 530.94 237.942 532.654C238.44 534.414 238.692 536.647 237.943 538.646Z" fill="#FFD412"/>
<path d="M225.443 540.646C228.443 543.146 236.443 542.646 237.943 538.646C238.692 536.647 238.44 534.414 237.942 532.654C237.458 530.94 236.221 529.535 234.587 528.826C232.322 527.843 229.415 527.337 227.334 529.146C227.016 529.423 226.717 529.754 226.443 530.146C223.821 533.892 222.882 536.515 223.837 538.646C224.157 539.36 224.69 540.019 225.443 540.646Z" fill="#FFD412"/>
<path d="M244.443 287.146C246.535 281.376 249.236 273.381 251.492 265.646M251.492 265.646C255.167 253.05 255.5 243.5 252.5 241C250.642 239.451 249.339 237.689 247.934 235.789C245.871 233 243.589 229.913 239.008 226.766C237.367 225.639 235.913 224.189 234.281 223.047C233.301 222.362 232.064 221.678 230.607 221.016M251.492 265.646C251.532 266.24 251.511 267.199 251.488 268.193C251.464 269.279 251.439 270.406 251.492 271.146M318.443 467.646C319.776 464.646 320.743 457.946 315.943 449.146C309.943 438.146 300.943 404.646 298.943 385.146C297.382 369.927 275.109 342.829 263.98 329.288C260.85 325.48 258.601 322.744 257.943 321.646C255.718 317.939 252.784 289.1 251.492 271.146M318.443 467.646C282.377 459.175 289.943 509.646 298.943 527.146C306.143 541.146 301.943 563.313 298.943 572.646M318.443 467.646C330.602 471.024 350.063 484.213 350.777 512.146M298.943 572.646C297.859 576.696 291.439 581.009 286.328 583.742M298.943 572.646C295.3 575.156 288.495 578.672 279.755 581.212M246.943 583.646C252.997 584.57 258.874 584.636 264.393 584.136M246.943 583.646C241.294 582.785 224.072 585.917 219.343 589.124M246.943 583.646C241.294 582.785 224.072 585.918 219.343 589.124M207.943 485.146C197.721 480.649 189.672 478.659 182.943 479.108M182.943 479.108C180.061 472.876 176.419 464.035 172.743 453.607C172.019 451.555 171.877 449.337 172.383 447.22M182.943 479.108C176.042 479.569 170.528 482.594 165.48 488.111M170.443 330.646C168.417 330.337 166.127 329.522 164.023 328.426C161.056 326.881 160.004 327.509 161.5 330.5C162 331.5 166.089 334.957 172.516 335.802M170.443 330.646C170.698 330.838 171.011 331.794 171.362 332.868C171.714 333.946 172.105 335.142 172.516 335.802M170.443 330.646C172.467 330.956 175.46 330.814 177.562 330.714C178.344 330.677 179.003 330.646 179.443 330.646C183.943 330.646 190.443 328.646 192.443 327.146C194.443 325.646 203.443 325.646 205.443 325.646C207.443 325.646 219.443 316.646 221.943 308.146C224.443 299.646 220.443 298.646 215.943 298.646C213.73 298.646 209.825 301.548 205.535 304.735C201.1 308.03 196.255 311.63 192.443 312.646C186.168 314.32 180.243 311.793 174.083 309.166C172.88 308.653 171.668 308.136 170.443 307.646C166.383 306.022 162.247 306.291 159.273 306.996C157.761 307.354 156.061 306.173 156.031 304.619C155.9 297.807 154.136 287.5 147.819 281.767M152.628 234.646C152.732 234.48 152.837 234.313 152.943 234.146C169.071 208.68 214.025 213.479 230.607 221.016M152.628 234.646C150.9 234.313 147.043 233.946 145.443 235.146C143.443 236.646 131.417 254.646 136.943 261.146C141.292 266.262 142.395 266.313 142.411 265.678M152.628 234.646C144.851 247.101 142.393 257.646 142.411 265.646C142.411 265.657 142.411 265.668 142.411 265.678M230.5 221C230.535 221.005 230.571 221.011 230.607 221.016M251.492 271.146C267.163 268.146 268.935 269.784 272.943 272.646C275.063 274.161 276.878 277.267 278.165 280.295C279.514 283.473 282.08 286.139 285.444 286.916C286.107 287.069 286.79 287.172 287.463 287.068C289.504 286.75 291.671 285.398 288.943 281.646C286.077 277.706 285.403 267.86 285.413 262.015C285.416 260.774 285.275 259.539 284.892 258.359C283.943 255.434 282.189 250.64 279.943 246.146C276.443 239.146 257.443 247.146 251.492 235.146C246.769 225.621 235.214 221.727 230.607 221.016M350.777 512.146C360.832 505.646 382.443 497.746 388.443 518.146C395.943 543.646 382.943 588.646 359.443 614.146C342.404 632.635 341.054 624.592 342.812 616.595M350.777 512.146C350.995 520.712 349.451 530.665 345.392 542.146M345.392 542.146C343.094 548.647 339.99 555.639 335.943 563.146L330.794 574.915M345.392 542.146C370.512 533.19 369.186 552.609 368.253 566.27C368.092 568.625 367.943 570.808 367.943 572.646C367.943 582.023 353.583 601.803 345.06 612.202M155.672 369.146C155.672 369.002 155.674 368.858 155.679 368.713C155.822 364.127 157.221 356.887 160.144 353.35M155.672 369.146C152.429 396.48 146.543 460.146 148.943 496.146C148.776 502.48 148.143 516.046 146.943 519.646C145.443 524.146 139.943 541.146 139.443 552.646C139.323 555.399 139.232 558.353 139.142 561.266C138.857 570.525 138.583 579.386 137.443 580.146C135.943 581.146 119.443 597.646 118.943 600.146C118.87 600.51 118.765 600.927 118.652 601.379C117.987 604.028 117.025 607.865 120.443 609.146C124.443 610.646 135.443 611.646 136.443 611.146C136.568 611.084 136.873 610.958 137.315 610.777C140.4 609.512 150.13 605.52 151.443 601.146C152.943 596.146 152.943 586.646 152.943 584.646C152.943 582.646 153.443 557.646 156.443 549.646C157.572 546.635 159.409 533.283 161.608 516.787M155.672 369.146C155.669 364.36 157.095 357.04 160.144 353.35M173.943 441.646C179.143 426.446 183.776 414.313 185.443 410.146M173.943 441.646C173.432 443.14 172.911 445.017 172.385 447.212C172.384 447.215 172.383 447.217 172.383 447.22M173.943 441.646C173.431 443.142 172.91 445.022 172.383 447.22M233.943 411.646C242.966 427.598 260.618 460.839 261.421 470.26C261.471 470.851 261.47 471.423 261.528 472.013C263.883 496.094 268.233 548.54 267.443 572.646C267.144 575.132 266.206 579.634 264.393 584.136M275.943 410.146C278.109 425.813 282.443 457.746 282.443 460.146C282.443 463.146 285.443 531.646 286.443 538.646C287.443 545.646 282.443 570.146 282.443 572.646C282.443 573.44 281.333 576.856 279.755 581.212M223.837 538.646C222.882 536.515 223.821 533.892 226.443 530.146C226.717 529.754 227.016 529.423 227.334 529.146M223.837 538.646C224.157 539.36 224.69 540.019 225.443 540.646C228.443 543.146 236.443 542.646 237.943 538.646C238.692 536.647 238.44 534.414 237.942 532.654C237.458 530.94 236.221 529.535 234.587 528.826C232.322 527.843 229.415 527.337 227.334 529.146M223.837 538.646C224.039 540.48 224.843 544.546 226.443 546.146C228.043 547.746 232.776 553.146 234.943 555.646M227.334 529.146C226.965 530.313 226.448 533.246 227.334 535.646C228.221 538.046 229.776 538.646 230.443 538.646M147.819 281.767C147.788 281.739 147.756 281.71 147.725 281.682M147.819 281.767L147.725 281.682M145.476 279.161C143.86 276.304 142.43 271.718 142.411 265.678M145.476 279.161C146.034 280.149 146.884 280.919 147.725 281.682M145.476 279.161C145.496 279.197 145.517 279.233 145.537 279.269C146.083 280.217 146.91 280.953 147.725 281.682M342.812 616.595C343.17 614.966 344.002 613.492 345.06 612.202M342.812 616.595C343.17 614.966 344.002 613.492 345.06 612.202M330.794 574.915C329.602 577.639 327.438 579.802 324.782 581.137M330.794 574.915C329.604 577.635 327.434 579.803 324.782 581.137M324.782 581.137C315.609 585.749 302.027 593.949 298.943 601.146C294.443 611.646 277.943 607.646 277.943 601.146C277.943 597.6 279.338 593.076 280.701 589.607M280.701 589.607C281.724 587.003 283.861 585.061 286.328 583.742M280.701 589.607C281.724 587.003 283.862 585.061 286.328 583.742M279.755 581.212C276.364 590.575 270.807 604.281 269.443 605.646C267.443 607.646 264.943 614.146 263.943 618.646C263.166 622.14 259.074 622.318 255.879 622.458C254.959 622.498 254.113 622.534 253.443 622.646C250.443 623.146 246.943 622.646 246.943 618.646C246.943 614.646 252.943 600.146 259.443 592.646C261.541 590.225 263.167 587.181 264.393 584.136M279.755 581.212C275.118 582.56 269.936 583.633 264.393 584.136M219.343 589.124C210.644 595.021 200.82 600.904 196.943 601.146C195.755 601.22 194.326 601.383 192.754 601.561C185.49 602.386 175.183 603.556 171.665 597.98M171.665 597.98C169.786 595.002 172.041 591.399 174.91 589.358M171.665 597.98C169.787 595.004 172.042 591.398 174.91 589.358M174.91 589.358C175.747 588.763 176.628 588.141 177.53 587.505C183.727 583.132 190.891 578.077 191.443 576.146C192.073 573.938 191.917 564.745 191.659 557.687M191.659 557.687C191.541 554.461 190.074 551.462 187.729 549.244M191.659 557.687C191.541 554.469 190.069 551.457 187.729 549.244M187.729 549.244C178.888 540.883 167.552 528.353 161.608 516.787M161.608 516.787C157.567 508.923 156.019 501.505 159.443 496.146C161.419 493.052 163.411 490.372 165.48 488.111M160.144 353.35C161.426 351.799 163.172 350.285 165.604 349.135M165.604 349.135C171.809 346.203 176.145 341.627 172.516 335.802M165.604 349.135C166.24 348.835 166.922 348.468 167.655 348.078C172.864 345.311 175.635 340.809 172.516 335.802M165.48 488.111C167.726 472.082 170.111 456.694 172.383 447.22" stroke="black"/>
<path d="M225.443 540.646C228.443 543.146 236.443 542.646 237.943 538.646C238.692 536.647 238.44 534.414 237.942 532.654C237.458 530.94 236.221 529.535 234.587 528.826C232.322 527.842 229.415 527.337 227.334 529.146C227.016 529.423 226.717 529.754 226.443 530.146C223.821 533.892 222.882 536.515 223.837 538.646C224.157 539.36 224.69 540.019 225.443 540.646Z" fill="black"/>
<path d="M223.837 538.646C222.882 536.515 223.821 533.892 226.443 530.146C226.717 529.754 227.016 529.423 227.334 529.146M223.837 538.646C224.157 539.36 224.69 540.019 225.443 540.646C228.443 543.146 236.443 542.646 237.943 538.646C238.692 536.647 238.44 534.414 237.942 532.654C237.458 530.94 236.221 529.535 234.587 528.826C232.322 527.842 229.415 527.337 227.334 529.146M223.837 538.646C224.039 540.479 224.843 544.546 226.443 546.146C228.043 547.746 232.776 553.146 234.943 555.646M227.334 529.146C226.965 530.313 226.448 533.246 227.334 535.646C228.221 538.046 229.776 538.646 230.443 538.646" stroke="black"/>
<path d="M170.443 330.646C168.417 330.337 166.127 329.522 164.023 328.426C161.057 326.881 160.004 327.509 161.5 330.5C161.914 331.329 164.793 333.844 169.424 335.163C170.636 335.508 171.753 334.066 171.362 332.868C171.011 331.794 170.698 330.838 170.443 330.646Z" fill="#FFD412"/>
<path d="M157.443 307C160.443 305.5 164.443 305.246 170.443 307.646C171.668 308.136 172.88 308.653 174.083 309.166C180.243 311.793 186.168 314.32 192.443 312.646C196.255 311.63 201.1 308.03 205.535 304.735C209.825 301.548 213.73 298.646 215.943 298.646C220.443 298.646 224.443 299.646 221.943 308.146C219.443 316.646 207.443 325.646 205.443 325.646C203.443 325.646 194.443 325.646 192.443 327.146C190.443 328.646 183.943 330.646 179.443 330.646C179.003 330.646 178.344 330.677 177.562 330.714C175.46 330.814 172.467 330.956 170.443 330.646M170.443 330.646C168.417 330.337 166.127 329.522 164.023 328.426C161.057 326.881 160.004 327.509 161.5 330.5C161.914 331.329 164.793 333.844 169.424 335.163C170.636 335.508 171.753 334.066 171.362 332.868C171.011 331.794 170.698 330.838 170.443 330.646Z" stroke="black" stroke-width="4" stroke-linecap="round"/>
<g opacity="0.4">
<path d="M194.5 254.5C189.905 250.671 200.217 243.787 206.662 240.428C207.213 240.141 207.885 239.872 208.417 240.193C210.217 241.277 204.846 246.603 203.5 247.5C202 248.5 200.5 259.5 194.5 254.5Z" fill="#F2EAD5"/>
<path d="M176.5 244C177.225 241.463 172.533 239.83 169.413 239.173C168.815 239.047 168.193 239.086 167.614 239.283C158.652 242.331 161.046 247.454 162.5 246C164 244.5 166.5 245.5 169 246C171.5 246.5 175.5 247.5 176.5 244Z" fill="#F2EAD5"/>
<path d="M194.5 308.5C195.612 306.276 187.935 296.149 183.09 291.494C182.401 290.833 181.479 290.508 180.526 290.452C173.823 290.055 161.466 287.388 158.5 288.5C154.5 290 156 304.5 158.5 304.5C161 304.5 172 305.5 176.5 307.5C181 309.5 193 311.5 194.5 308.5Z" fill="#F2EAD5"/>
</g>
<g opacity="0.6">
<path d="M180.916 249.984C178.865 261.416 171.734 272.495 166.447 279.057C164.991 280.864 165.84 283.688 168.094 284.235L176.819 286.35C178.335 286.717 179.782 285.85 180.123 284.328C182.054 275.723 187.959 249.484 193.5 246.5C200 243 203 234 214.5 234C226 234 245 250.5 245.5 260C245.829 266.257 243.696 278.59 242.002 286.846C241.657 288.529 243.535 289.81 244.964 288.857C245.312 288.625 245.57 288.295 245.704 287.9C250.053 275.005 256.907 248.907 251 243C243.5 235.5 232.5 216.5 198.5 217C164.5 217.5 159 229 156.5 232C154.103 234.877 146.189 244.649 145.542 250.297C145.489 250.759 145.587 251.244 145.936 251.553C146.697 252.225 148.063 252.472 149 251C154 241.5 161.5 234 170 234C176.594 234 179.959 243.715 180.917 249.015C180.975 249.336 180.974 249.663 180.916 249.984Z" fill="url(#paint1_linear_59_133)"/>
<path d="M180.916 249.984C178.865 261.416 171.734 272.495 166.447 279.057C164.991 280.864 165.84 283.688 168.094 284.235L176.819 286.35C178.335 286.717 179.782 285.85 180.123 284.328C182.054 275.723 187.959 249.484 193.5 246.5C200 243 203 234 214.5 234C226 234 245 250.5 245.5 260C245.829 266.257 243.696 278.59 242.002 286.846C241.657 288.529 243.535 289.81 244.964 288.857C245.312 288.625 245.57 288.295 245.704 287.9C250.053 275.005 256.907 248.907 251 243C243.5 235.5 232.5 216.5 198.5 217C164.5 217.5 159 229 156.5 232C154.103 234.877 146.189 244.649 145.542 250.297C145.489 250.759 145.587 251.244 145.936 251.553C146.697 252.225 148.063 252.472 149 251C154 241.5 161.5 234 170 234C176.594 234 179.959 243.715 180.917 249.015C180.975 249.336 180.974 249.663 180.916 249.984Z" fill="black" fill-opacity="0.08"/>
</g>
<path d="M159.193 290.484L160.252 293.129C161.357 295.892 163.657 298.004 166.504 298.871L167.034 299.032C170.934 300.219 175.162 298.895 177.688 295.695L179.168 293.82C180.311 292.372 180.649 290.446 180.065 288.696C179.412 286.736 177.711 285.31 175.667 285.01L164.777 283.408C163.044 283.154 161.299 283.789 160.135 285.098C158.826 286.57 158.462 288.655 159.193 290.484Z" fill="black" stroke="black"/>
<path d="M225 250C216.2 246.8 212.667 252.333 212 255.5C211.673 256.521 212.751 257.855 213.589 258.641C213.837 258.874 214.194 258.933 214.521 258.837C220.19 257.178 229.077 258.06 233.638 258.844C234.133 258.929 234.622 258.645 234.772 258.166C235.953 254.42 235.281 253.738 225 250Z" fill="black" stroke="black"/>
<path d="M176.5 254C176.873 255.867 174.081 257.298 172.352 257.887C172.126 257.964 171.88 257.943 171.656 257.86C167.647 256.366 162.629 259.325 161.664 260.997C161.497 261.287 161.335 261.616 161.038 261.768C159.3 262.656 155.865 263.32 154.5 261.5C153 259.5 158 253 165 251C172 249 176 251.5 176.5 254Z" fill="black" stroke="black"/>
<g opacity="0.6">
<path d="M205 355.5C217.198 342.326 233.682 311.057 240.047 293.757C240.342 292.954 240.955 292.302 241.764 292.023C246.703 290.324 249.561 291.349 251.076 292.974C252.306 294.294 250.951 296.463 249.547 297.597C249.078 297.977 248.561 298.439 248 299C245 302 240.5 334 240.5 342C240.5 350 220 387 211 392C204.666 395.519 200.06 395.426 197.114 393.083C196.351 392.476 196.15 391.438 196.37 390.487C199.751 375.872 196.296 366.621 205 355.5Z" fill="url(#paint2_linear_59_133)"/>
<path d="M205 355.5C217.198 342.326 233.682 311.057 240.047 293.757C240.342 292.954 240.955 292.302 241.764 292.023C246.703 290.324 249.561 291.349 251.076 292.974C252.306 294.294 250.951 296.463 249.547 297.597C249.078 297.977 248.561 298.439 248 299C245 302 240.5 334 240.5 342C240.5 350 220 387 211 392C204.666 395.519 200.06 395.426 197.114 393.083C196.351 392.476 196.15 391.438 196.37 390.487C199.751 375.872 196.296 366.621 205 355.5Z" fill="black" fill-opacity="0.08"/>
<path d="M205 355.5C217.198 342.326 233.682 311.057 240.047 293.757C240.342 292.954 240.955 292.302 241.764 292.023C246.703 290.324 249.561 291.349 251.076 292.974C252.306 294.294 250.951 296.463 249.547 297.597C249.078 297.977 248.561 298.439 248 299C245 302 240.5 334 240.5 342C240.5 350 220 387 211 392C204.666 395.519 200.06 395.426 197.114 393.083C196.351 392.476 196.15 391.438 196.37 390.487C199.751 375.872 196.296 366.621 205 355.5Z" fill="url(#paint3_linear_59_133)"/>
<path d="M205 355.5C217.198 342.326 233.682 311.057 240.047 293.757C240.342 292.954 240.955 292.302 241.764 292.023C246.703 290.324 249.561 291.349 251.076 292.974C252.306 294.294 250.951 296.463 249.547 297.597C249.078 297.977 248.561 298.439 248 299C245 302 240.5 334 240.5 342C240.5 350 220 387 211 392C204.666 395.519 200.06 395.426 197.114 393.083C196.351 392.476 196.15 391.438 196.37 390.487C199.751 375.872 196.296 366.621 205 355.5Z" fill="black" fill-opacity="0.08"/>
</g>
<g opacity="0.6">
<path d="M182.5 357.5C178.186 354.864 175.332 351.857 173.594 349.403C172.364 347.668 169.699 346.962 168.044 348.298C165.445 350.394 162.562 352.703 161.5 353.5C159.5 355 161 363.5 161.5 370C162 376.5 189 393 189 389C189 385.91 189 372.002 191.251 366.098C191.404 365.698 191.504 365.268 191.314 364.884C190.702 363.645 188.437 361.128 182.5 357.5Z" fill="url(#paint4_linear_59_133)"/>
<path d="M182.5 357.5C178.186 354.864 175.332 351.857 173.594 349.403C172.364 347.668 169.699 346.962 168.044 348.298C165.445 350.394 162.562 352.703 161.5 353.5C159.5 355 161 363.5 161.5 370C162 376.5 189 393 189 389C189 385.91 189 372.002 191.251 366.098C191.404 365.698 191.504 365.268 191.314 364.884C190.702 363.645 188.437 361.128 182.5 357.5Z" fill="black" fill-opacity="0.08"/>
</g>
<path d="M278.5 416.5C281.07 413.195 282.152 387.169 282.441 371.446C282.481 369.255 284.336 367.796 285.836 369.393C293.806 377.881 303.507 413.253 310.038 441.761C310.91 445.568 299.312 466.289 296.5 469C282.5 482.5 291.5 514 296.5 526.5C300.275 535.937 298.409 557.1 296.787 568.137C296.613 569.321 295.904 570.351 294.863 570.94C288.694 574.432 279.573 579.025 282.5 575C285.7 570.6 287.5 534.5 288 517C286.167 500.333 283.1 466.5 285.5 464.5C288.5 462 275 421 278.5 416.5Z" fill="url(#paint5_linear_59_133)"/>
<path d="M278.5 416.5C281.07 413.195 282.152 387.169 282.441 371.446C282.481 369.255 284.336 367.796 285.836 369.393C293.806 377.881 303.507 413.253 310.038 441.761C310.91 445.568 299.312 466.289 296.5 469C282.5 482.5 291.5 514 296.5 526.5C300.275 535.937 298.409 557.1 296.787 568.137C296.613 569.321 295.904 570.351 294.863 570.94C288.694 574.432 279.573 579.025 282.5 575C285.7 570.6 287.5 534.5 288 517C286.167 500.333 283.1 466.5 285.5 464.5C288.5 462 275 421 278.5 416.5Z" fill="black" fill-opacity="0.1"/>
<path d="M195.152 486.324C210.762 486.696 217.567 505.684 219.446 517.316C219.712 518.963 218.757 520.502 217.602 521.706C208.741 530.941 215.389 563.04 216.795 572.42C218.305 582.49 200.689 584 195.152 584C189.616 584 195.152 562.854 195.152 557.315C195.152 551.777 165.457 520.058 163.947 501.932C162.437 483.807 174.013 485.821 195.152 486.324Z" fill="url(#paint6_linear_59_133)"/>
<path d="M195.152 486.324C210.762 486.696 217.567 505.684 219.446 517.316C219.712 518.963 218.757 520.502 217.602 521.706C208.741 530.941 215.389 563.04 216.795 572.42C218.305 582.49 200.689 584 195.152 584C189.616 584 195.152 562.854 195.152 557.315C195.152 551.777 165.457 520.058 163.947 501.932C162.437 483.807 174.013 485.821 195.152 486.324Z" fill="black" fill-opacity="0.12"/>
<g opacity="0.6">
<path d="M359.5 614.5C342.461 632.989 341.111 624.946 342.869 616.949C343.227 615.32 344.06 613.845 345.117 612.556C352.476 603.577 364.187 587.604 367.248 577.373C367.463 575.796 367.731 574.287 368 573C368 574.28 367.732 575.755 367.248 577.373C366.348 583.968 366.362 591.76 371 589.5C376.747 586.7 383.044 573.333 385.475 567C380.202 584.458 371.139 601.871 359.5 614.5Z" fill="black"/>
<path d="M336 563.5C340.047 555.993 343.151 549.001 345.45 542.5M350.834 512.5C351.053 521.066 349.508 531.019 345.45 542.5M388.5 518.5C392.285 531.371 390.849 549.209 385.475 567M368 573C368 582.376 353.64 602.157 345.117 612.556C344.06 613.845 343.227 615.32 342.869 616.949C341.111 624.946 342.461 632.989 359.5 614.5C371.139 601.871 380.202 584.458 385.475 567M368 573C368 560.5 374.899 532 345.45 542.5M368 573C366.606 579.667 365.253 592.3 371 589.5C376.747 586.7 383.044 573.333 385.475 567" stroke="black"/>
</g>
<path d="M206.5 325C208.5 324.502 219.5 315.5 222.5 305.5C215.197 305.371 198.175 317.543 183.424 318.071C178.405 318.25 172.483 318.12 169.072 321.806C168.53 322.392 168.021 323.087 167.5 323.998C165.746 327.068 164.5 339.401 167.5 340C168.443 340.171 172 341.5 178.5 340C179.916 339.673 181.25 338.389 182.619 336.933C185.571 333.791 188.465 330.304 191.618 327.364C191.757 327.234 191.885 327.113 192 326.998C192.8 326.197 193.167 320.498 194 320.498C195.504 320.498 195.502 320.965 198.207 325.056C198.398 325.345 198.663 325.587 199.003 325.658C200.414 325.949 203.536 325.738 206.5 325Z" fill="#E789FA" stroke="black"/>
<path opacity="0.4" d="M303 488.5C306.2 484.9 318 490 323.5 493C334.113 497.197 317.591 544.112 307.526 568.245C307.205 569.016 306.457 569.5 305.622 569.5C304.283 569.5 303.296 568.254 303.625 566.956C304.468 563.639 305.773 558.874 307 555.5C309 550 306 527.5 303 519C300 510.5 299 493 303 488.5Z" fill="#F2EAD5"/>
<g opacity="0.6">
<path d="M252.5 268C251.807 266.268 254.813 257.166 257.038 251.077C257.607 249.519 259.112 248.46 260.755 248.675C277.79 250.905 280.549 273.696 281.5 277.5C282.5 281.5 276.5 277.5 271.5 271.5C266.5 265.5 253.5 270.5 252.5 268Z" fill="url(#paint7_linear_59_133)"/>
<path d="M252.5 268C251.807 266.268 254.813 257.166 257.038 251.077C257.607 249.519 259.112 248.46 260.755 248.675C277.79 250.905 280.549 273.696 281.5 277.5C282.5 281.5 276.5 277.5 271.5 271.5C266.5 265.5 253.5 270.5 252.5 268Z" fill="black" fill-opacity="0.08"/>
</g>
<path d="M170.82 344.079C170.607 343.36 170.394 342.64 170.18 341.921C168.984 342.251 167.744 342.561 166.679 343.93C166.166 344.607 165.959 345.663 166.119 346.468C166.263 347.299 166.619 347.958 166.98 348.507C180.586 361.101 200.786 362.32 216.947 354.095C219.261 352.827 221.597 351.574 223.94 350.328C232.464 345.783 241.128 341.373 249.579 336.367C253.794 333.836 258 331.202 261.874 327.881C263.789 326.177 265.722 324.372 267.032 321.672C267.653 320.359 268.032 318.606 267.587 316.969C267.174 315.354 266.077 314.069 265.067 313.225C263.15 311.641 261.088 310.762 258.941 309.965C258.647 310.655 258.353 311.345 258.06 312.035C259.978 312.993 261.762 314.062 263.051 315.397C266.319 318.357 262.816 321.842 259.182 324.539C255.473 327.249 251.244 329.553 247.014 331.797C238.515 336.252 229.737 340.439 221.123 345.03C218.754 346.29 216.392 347.579 214.053 348.905C200.864 356.259 181.368 355.767 169.375 346.763C169.118 346.461 168.927 346.14 168.854 345.911C168.785 345.68 168.773 345.574 168.863 345.369C169.058 344.934 169.875 344.412 170.82 344.079Z" fill="black"/>
<path d="M149.933 298.972C150.311 298.324 150.689 297.676 151.067 297.028C144.31 292.928 137.915 288.187 131.966 282.971C119.777 272.163 108.728 258.991 104.763 243.461C100.453 227.836 107.499 211.728 119.292 200.828C147.71 174.253 190.788 181.843 228.513 183.51C255.574 184.927 295.126 186.097 307.057 153.519C322.403 112.741 327.345 69.4052 329.34 26.5318C329.642 18.4937 329.786 10.5321 329.625 2.49364C328.875 2.49788 328.125 2.50212 327.375 2.50636C327.286 10.4802 326.906 18.3954 326.382 26.3773C323.219 68.9261 317.354 111.965 301.943 151.481C291.646 179.637 256.297 179.002 228.834 177.519C191.581 176.071 146.759 167.722 115.708 197.172C103.293 208.824 95.4864 227.51 100.694 244.513C105.434 261.344 117.299 274.505 130.042 285.224C136.272 290.383 142.917 295.009 149.933 298.972Z" fill="black"/>
<path d="M126.726 599.498C126.477 599.476 126.237 599.46 126.004 599.45C123.899 599.378 122.156 599.908 120.871 601.345C120.261 602.077 119.64 603.013 119.592 604.616C119.573 605.4 119.929 606.348 120.46 606.803C120.981 607.277 121.519 607.405 122.039 607.487C122.273 607.523 122.507 607.544 122.751 607.569C122.751 607.569 122.751 607.569 122.751 607.569C122.766 607.324 122.768 607.083 122.769 606.852C122.771 606.336 122.786 605.852 122.964 605.609C123.143 605.352 123.405 605.464 123.564 605.479C123.886 605.518 124.29 605.162 124.702 604.706C125.537 603.762 126.238 602.262 126.607 600.208C126.647 599.981 126.686 599.744 126.726 599.498Z" fill="black"/>
<path d="M132.716 600.724C132.467 600.732 132.226 600.744 131.994 600.761C129.895 600.936 128.226 601.666 127.118 603.245C126.598 604.043 126.091 605.044 126.231 606.642C126.304 607.423 126.769 608.323 127.349 608.713C127.923 609.122 128.472 609.187 128.998 609.207C129.234 609.215 129.469 609.209 129.715 609.205C129.715 609.205 129.715 609.205 129.715 609.205C129.701 608.96 129.675 608.721 129.648 608.49C129.59 607.978 129.548 607.495 129.696 607.233C129.844 606.957 130.117 607.038 130.277 607.034C130.602 607.035 130.961 606.634 131.316 606.133C132.035 605.098 132.556 603.527 132.681 601.443C132.694 601.213 132.706 600.973 132.716 600.724Z" fill="black"/>
<path d="M253.169 615C252.92 615.008 252.679 615.02 252.447 615.037C250.348 615.212 248.68 615.943 247.571 617.521C247.052 618.319 246.545 619.321 246.685 620.919C246.758 621.699 247.222 622.6 247.802 622.989C248.376 623.399 248.925 623.463 249.451 623.484C249.687 623.492 249.923 623.485 250.168 623.482C250.168 623.482 250.168 623.482 250.168 623.482C250.154 623.236 250.128 622.997 250.102 622.767C250.043 622.255 250.002 621.772 250.15 621.51C250.297 621.233 250.571 621.314 250.73 621.311C251.055 621.312 251.414 620.911 251.77 620.41C252.488 619.375 253.009 617.803 253.134 615.72C253.148 615.489 253.159 615.249 253.169 615Z" fill="black"/>
<path d="M259.169 615C258.92 615.008 258.679 615.02 258.447 615.037C256.348 615.212 254.68 615.943 253.571 617.521C253.052 618.319 252.545 619.321 252.685 620.919C252.758 621.699 253.222 622.6 253.802 622.989C254.376 623.399 254.925 623.463 255.451 623.484C255.687 623.492 255.923 623.485 256.168 623.482C256.168 623.482 256.168 623.482 256.168 623.482C256.154 623.236 256.128 622.997 256.102 622.767C256.043 622.255 256.002 621.772 256.15 621.51C256.297 621.233 256.571 621.314 256.73 621.311C257.055 621.312 257.414 620.911 257.77 620.41C258.488 619.375 259.009 617.803 259.134 615.72C259.148 615.489 259.159 615.249 259.169 615Z" fill="black"/>
<path d="M285.169 594C284.92 594.008 284.679 594.02 284.447 594.037C282.348 594.212 280.68 594.943 279.571 596.521C279.052 597.319 278.545 598.321 278.685 599.919C278.758 600.699 279.222 601.6 279.802 601.989C280.376 602.399 280.925 602.463 281.451 602.484C281.687 602.492 281.923 602.485 282.168 602.482C282.168 602.482 282.168 602.482 282.168 602.482C282.154 602.236 282.128 601.997 282.102 601.767C282.043 601.255 282.002 600.772 282.15 600.51C282.297 600.233 282.571 600.314 282.73 600.311C283.055 600.312 283.414 599.911 283.77 599.41C284.488 598.375 285.009 596.803 285.134 594.72C285.148 594.489 285.159 594.249 285.169 594Z" fill="black"/>
<path d="M289.169 598C288.92 598.008 288.679 598.02 288.447 598.037C286.348 598.212 284.68 598.943 283.571 600.521C283.052 601.319 282.545 602.321 282.685 603.919C282.758 604.699 283.222 605.6 283.802 605.989C284.376 606.399 284.925 606.463 285.451 606.484C285.687 606.492 285.923 606.485 286.168 606.482C286.168 606.482 286.168 606.482 286.168 606.482C286.154 606.236 286.128 605.997 286.102 605.767C286.043 605.255 286.002 604.772 286.15 604.51C286.297 604.233 286.571 604.314 286.73 604.311C287.055 604.312 287.414 603.911 287.77 603.41C288.488 602.375 289.009 600.803 289.134 598.72C289.148 598.489 289.159 598.249 289.169 598Z" fill="black"/>
<path d="M287.169 584C286.92 584.008 286.679 584.02 286.447 584.037C284.348 584.212 282.68 584.943 281.571 586.521C281.052 587.319 280.545 588.321 280.685 589.919C280.758 590.699 281.222 591.6 281.802 591.989C282.376 592.399 282.925 592.463 283.451 592.484C283.687 592.492 283.923 592.485 284.168 592.482C284.168 592.482 284.168 592.482 284.168 592.482C284.154 592.236 284.128 591.997 284.102 591.767C284.043 591.255 284.002 590.772 284.15 590.51C284.297 590.233 284.571 590.314 284.73 590.311C285.055 590.312 285.414 589.911 285.77 589.41C286.488 588.375 287.009 586.803 287.134 584.72C287.148 584.489 287.159 584.249 287.169 584Z" fill="black"/>
<path d="M184.169 593C183.92 593.008 183.679 593.02 183.447 593.037C181.348 593.212 179.68 593.943 178.571 595.521C178.052 596.319 177.545 597.321 177.685 598.919C177.758 599.699 178.222 600.6 178.802 600.989C179.376 601.399 179.925 601.463 180.451 601.484C180.687 601.492 180.923 601.485 181.168 601.482C181.168 601.482 181.168 601.482 181.168 601.482C181.154 601.236 181.128 600.997 181.102 600.767C181.043 600.255 181.002 599.772 181.15 599.51C181.297 599.233 181.571 599.314 181.73 599.311C182.055 599.312 182.414 598.911 182.77 598.41C183.488 597.375 184.009 595.803 184.134 593.72C184.148 593.489 184.159 593.249 184.169 593Z" fill="black"/>
<path d="M191.169 592C190.92 592.008 190.679 592.02 190.447 592.037C188.348 592.212 186.68 592.943 185.571 594.521C185.052 595.319 184.545 596.321 184.685 597.919C184.758 598.699 185.222 599.6 185.802 599.989C186.376 600.399 186.925 600.463 187.451 600.484C187.687 600.492 187.923 600.485 188.168 600.482C188.168 600.482 188.168 600.482 188.168 600.482C188.154 600.236 188.128 599.997 188.102 599.767C188.043 599.255 188.002 598.772 188.15 598.51C188.297 598.233 188.571 598.314 188.73 598.311C189.055 598.312 189.414 597.911 189.77 597.41C190.488 596.375 191.009 594.803 191.134 592.72C191.148 592.489 191.159 592.249 191.169 592Z" fill="black"/>
<path d="M141.207 600C140.958 599.978 140.718 599.962 140.485 599.952C138.38 599.88 136.638 600.41 135.352 601.847C134.742 602.579 134.122 603.514 134.073 605.118C134.055 605.902 134.41 606.85 134.941 607.305C135.463 607.779 136.001 607.907 136.52 607.989C136.754 608.025 136.988 608.046 137.233 608.071C137.233 608.071 137.233 608.071 137.233 608.071C137.247 607.826 137.25 607.585 137.251 607.353C137.252 606.838 137.268 606.354 137.445 606.111C137.624 605.854 137.886 605.966 138.045 605.981C138.368 606.02 138.771 605.664 139.183 605.208C140.018 604.264 140.719 602.764 141.088 600.71C141.128 600.483 141.168 600.246 141.207 600Z" fill="black"/>
<defs>
<linearGradient id="paint0_linear_59_133" x1="169.5" y1="17" x2="169.5" y2="501" gradientUnits="userSpaceOnUse">
<stop offset="0.274038" stop-color="#9946F7"/>
<stop offset="1" stop-color="#1EF79A"/>
</linearGradient>
<linearGradient id="paint1_linear_59_133" x1="199.398" y1="216.99" x2="199.398" y2="291.5" gradientUnits="userSpaceOnUse">
<stop stop-color="#FFD412"/>
<stop offset="1" stop-color="#E789FA"/>
</linearGradient>
<linearGradient id="paint2_linear_59_133" x1="224.25" y1="291.148" x2="224.25" y2="394.756" gradientUnits="userSpaceOnUse">
<stop stop-color="#FFD412"/>
<stop offset="1" stop-color="#E789FA"/>
</linearGradient>
<linearGradient id="paint3_linear_59_133" x1="224.25" y1="291.148" x2="224.25" y2="394.756" gradientUnits="userSpaceOnUse">
<stop stop-color="#FFD412"/>
<stop offset="1" stop-color="#E789FA"/>
</linearGradient>
<linearGradient id="paint4_linear_59_133" x1="175.995" y1="345.5" x2="175.995" y2="389.617" gradientUnits="userSpaceOnUse">
<stop stop-color="#FFD412"/>
<stop offset="1" stop-color="#E789FA"/>
</linearGradient>
<linearGradient id="paint5_linear_59_133" x1="314.5" y1="472.034" x2="277.916" y2="472.034" gradientUnits="userSpaceOnUse">
<stop stop-color="#FFD412"/>
<stop offset="1" stop-color="#E789FA"/>
</linearGradient>
<linearGradient id="paint6_linear_59_133" x1="163.815" y1="535" x2="219.815" y2="535" gradientUnits="userSpaceOnUse">
<stop stop-color="#FFD412"/>
<stop offset="1" stop-color="#E789FA"/>
</linearGradient>
<linearGradient id="paint7_linear_59_133" x1="267.004" y1="248.5" x2="267.004" y2="279.11" gradientUnits="userSpaceOnUse">
<stop stop-color="#FFD412"/>
<stop offset="1" stop-color="#E789FA"/>
</linearGradient>
</defs>
</svg>
