<svg width="120" height="90" viewBox="0 0 120 90" fill="none" xmlns="http://www.w3.org/2000/svg">
<path d="M118.647 11.2179C118.76 11.402 118.814 11.594 118.807 11.7939C118.801 11.9538 118.756 12.1023 118.671 12.2394L118.483 12.473C118.354 12.7086 118.216 12.9539 118.067 13.2089C117.918 13.4438 117.82 13.6705 117.773 13.889C117.47 14.5388 117.286 14.9426 117.22 15.1004C117.005 15.5332 116.873 15.8588 116.826 16.0773C116.823 16.1572 116.767 16.3254 116.658 16.5817C116.571 16.7788 116.364 17.2619 116.037 18.0309C115.908 18.2866 115.721 18.7703 115.476 19.4822L115.278 19.9856C115.063 20.4183 114.813 20.9899 114.528 21.7004C114.484 21.819 114.43 21.9371 114.365 22.055C114.302 22.1528 114.248 22.251 114.205 22.3495C114.118 22.5466 114.011 22.753 113.883 22.9687C113.776 23.1651 113.7 23.3425 113.654 23.501L113.621 23.5899L112.882 24.9749C112.326 26.0161 112.005 26.5953 111.921 26.7124C111.727 27.1259 111.459 27.6168 111.119 28.1853C110.993 28.361 110.865 28.5867 110.735 28.8623C110.626 29.1186 110.518 29.365 110.409 29.6014C110.194 30.0341 109.973 30.3466 109.746 30.5388L109.683 30.6266C109.406 31.0972 108.911 31.5202 108.198 31.8955C108.096 31.952 108.005 31.9788 107.925 31.976C107.825 31.9725 107.716 31.9287 107.599 31.8446C107.402 31.7576 107.218 31.5911 107.046 31.3449L106.625 30.5197C106.606 30.479 106.598 30.4287 106.6 30.3687C106.602 30.3088 106.594 30.2485 106.577 30.1878C106.599 30.1285 106.621 30.0693 106.643 30.01C106.645 29.9501 106.657 29.8904 106.679 29.8312C106.85 29.517 106.969 29.271 107.035 29.0932C107.1 28.9553 107.164 28.8275 107.229 28.7097C107.273 28.5712 107.338 28.4433 107.422 28.3262C107.464 28.2676 107.54 28.1102 107.649 27.8538C108.061 26.9277 108.459 26.1511 108.841 25.5241L109.832 23.7876C110.065 23.4156 110.321 22.9642 110.6 22.4336C111.223 21.2147 111.622 20.3981 111.796 19.9839L112.317 18.8314C112.384 18.6336 112.461 18.4262 112.549 18.2091C112.636 17.9921 112.693 17.8039 112.718 17.6447C112.744 17.4855 112.8 17.3174 112.886 17.1403C113.017 16.8247 113.106 16.5776 113.152 16.3991C113.283 16.0835 113.404 15.7775 113.515 15.4812C113.78 14.7501 114.01 14.1777 114.205 13.7643C114.4 13.3309 114.616 12.8781 114.853 12.4061C115.022 12.1319 115.13 11.9155 115.176 11.757C115.198 11.6777 115.358 11.4031 115.655 10.9332C115.741 10.7561 115.886 10.6111 116.09 10.4982C116.416 10.3494 116.609 10.2561 116.67 10.2183C116.914 10.1267 117.125 10.0841 117.305 10.0904C117.405 10.0939 117.534 10.1184 117.693 10.164C117.811 10.2081 117.9 10.2612 117.957 10.3233C118.112 10.4688 118.342 10.767 118.647 11.2179Z" fill="#E789FA"/>
<path d="M79.84 14.16C79.9467 14.8267 80.0133 15.2933 80.04 15.56V15.84C79.9867 16.16 79.9467 16.5333 79.92 16.96C79.92 17.3867 79.9067 17.8 79.88 18.2C79.8533 18.52 79.72 19.1067 79.48 19.96C79.3733 20.3867 79.1067 20.8133 78.68 21.24C78.3333 21.64 77.8 21.9867 77.08 22.28L76.88 22.32C76.48 22.32 76.1467 22.2133 75.88 22C75.6133 21.76 75.4133 21.4533 75.28 21.08C75.0667 20.3867 74.96 19.8533 74.96 19.48L74.92 17.08C74.92 16.7867 74.88 16.4533 74.8 16.08C74.7467 15.7067 74.6933 15.3467 74.64 15C74.64 14.92 74.6267 14.8533 74.6 14.8C74.5733 14.72 74.5467 14.6533 74.52 14.6C74.44 14.44 74.4 14.2933 74.4 14.16C74.4 13.9733 74.48 13.72 74.64 13.4L74.8 13.2C75.2533 12.8267 75.6667 12.5333 76.04 12.32C76.44 12.08 76.8133 11.96 77.16 11.96C77.4267 11.96 77.6267 11.9867 77.76 12.04C77.8933 12.0667 78.0267 12.1333 78.16 12.24L79 12.96C79.0533 12.9867 79.1867 13.1067 79.4 13.32C79.6667 13.5867 79.8133 13.8667 79.84 14.16Z" fill="#1EF79A"/>
<path d="M52.3972 12.6946C52.8786 13.1679 53.2092 13.5039 53.3889 13.7028L53.555 13.9281C53.702 14.2173 53.8913 14.5416 54.1231 14.9008C54.3762 15.2443 54.6108 15.5849 54.8267 15.9227C54.9951 16.1961 55.2359 16.7474 55.5491 17.5767C55.7164 17.9834 55.7549 18.4851 55.6647 19.0817C55.623 19.6093 55.3994 20.2049 54.994 20.8682L54.8567 21.0191C54.5347 21.2564 54.2031 21.3684 53.8619 21.3549C53.5048 21.32 53.1619 21.1918 52.833 20.9704C52.2499 20.5389 51.8476 20.1729 51.626 19.8724L50.1697 17.9644C49.9956 17.7283 49.7656 17.4837 49.4797 17.2307C49.2152 16.9618 48.9587 16.7037 48.7101 16.4563C48.6626 16.3919 48.6123 16.3462 48.5592 16.3191C48.4903 16.2705 48.4292 16.2327 48.3761 16.2056C48.2168 16.1243 48.0976 16.0299 48.0184 15.9226C47.9077 15.7724 47.8217 15.521 47.7606 15.1685L47.7707 14.9125C47.9141 14.343 48.0727 13.8617 48.2466 13.4684C48.4262 13.0379 48.6555 12.7197 48.9345 12.514C49.1492 12.3558 49.326 12.2586 49.4649 12.2224C49.5881 12.1647 49.735 12.1393 49.9056 12.146L51.009 12.2271C51.0677 12.2169 51.2462 12.2344 51.5445 12.2795C51.9174 12.3359 52.2016 12.4743 52.3972 12.6946Z" fill="#F2EAD5"/>
<path d="M29.2 51.5092C29.0677 52.1713 28.9677 52.6319 28.8998 52.8912L28.8023 53.1536C28.6408 53.435 28.4733 53.771 28.2996 54.1617C28.151 54.5616 27.9945 54.9444 27.8302 55.3101C27.6938 55.6008 27.3644 56.1042 26.8422 56.8205C26.5936 57.1833 26.195 57.4904 25.6464 57.7417C25.1822 57.9959 24.5615 58.1351 23.7844 58.1592L23.583 58.1271C23.208 57.9877 22.9327 57.7716 22.7571 57.4788C22.5907 57.1609 22.5101 56.8038 22.5151 56.4074C22.5567 55.6832 22.6424 55.1461 22.7725 54.7961L23.571 52.5325C23.6732 52.2576 23.7518 51.9312 23.8068 51.5533C23.8869 51.1848 23.9623 50.8288 24.0331 50.4853C24.0609 50.4103 24.0716 50.3431 24.0652 50.2838C24.0681 50.1996 24.0663 50.1278 24.0599 50.0685C24.0406 49.8907 24.0542 49.7392 24.1007 49.6143C24.1657 49.4393 24.3289 49.2297 24.5904 48.9855L24.81 48.8537C25.365 48.6617 25.8546 48.5307 26.2789 48.4608C26.7375 48.3751 27.1292 48.3927 27.4542 48.5134C27.7041 48.6063 27.8823 48.701 27.9887 48.7974C28.1044 48.8689 28.2062 48.9778 28.294 49.1242L28.8306 50.0917C28.8713 50.1353 28.9545 50.2942 29.0801 50.5685C29.2372 50.9114 29.2772 51.2249 29.2 51.5092Z" fill="#9946F7"/>
<path d="M14.4369 37.3691C14.4498 38.0441 14.4509 38.5155 14.4402 38.7833L14.4012 39.0606C14.3039 39.37 14.2123 39.7342 14.1265 40.153C14.0672 40.5755 13.9965 40.983 13.9144 41.3754C13.8434 41.6885 13.6298 42.2509 13.2734 43.0626C13.1084 43.4702 12.7849 43.8556 12.303 44.2188C11.9041 44.5667 11.3277 44.8357 10.5739 45.026L10.3703 45.0378C9.97416 44.9821 9.65891 44.8301 9.42452 44.5818C9.19385 44.307 9.03847 43.9755 8.95838 43.5872C8.8436 42.871 8.81219 42.328 8.86414 41.9583L9.15849 39.5761C9.19931 39.2856 9.20608 38.9499 9.17881 38.5691C9.17795 38.192 9.17523 37.828 9.17065 37.4773C9.18178 37.3981 9.17786 37.3302 9.15887 37.2737C9.1436 37.1908 9.12647 37.121 9.10748 37.0645C9.05052 36.8949 9.03132 36.7441 9.04987 36.6121C9.07585 36.4272 9.19032 36.1875 9.39329 35.8929L9.57957 35.7171C10.0804 35.4105 10.5306 35.1775 10.93 35.0182C11.3595 34.8362 11.7459 34.7693 12.0892 34.8176C12.3532 34.8547 12.5476 34.9089 12.6722 34.9803C12.8005 35.0252 12.9233 35.1098 13.0405 35.234L13.7721 36.0639C13.8212 36.0977 13.9365 36.2351 14.1181 36.476C14.3451 36.7772 14.4514 37.0749 14.4369 37.3691Z" fill="#F2EAD5"/>
<path d="M23.9606 8.67778C24.2318 8.77602 24.4466 8.93246 24.6048 9.1471C24.7314 9.31882 24.8071 9.51145 24.832 9.72499L24.8288 10.125C24.8899 10.4775 24.9481 10.8487 25.0036 11.2385C25.0432 11.6068 25.1286 11.9248 25.2597 12.1926C25.4814 13.1225 25.6234 13.697 25.6856 13.9162C25.8191 14.5466 25.9514 14.9957 26.0825 15.2635C26.1458 15.3493 26.2266 15.5713 26.325 15.9295C26.3974 16.2074 26.5812 16.8836 26.8763 17.9581C26.9533 18.3321 27.1585 18.9925 27.492 19.9392L27.7024 20.629C27.8359 21.2594 28.0479 22.0639 28.3385 23.0423C28.3905 23.2027 28.4318 23.3711 28.4624 23.5474C28.4771 23.7021 28.5026 23.849 28.5387 23.988C28.6111 24.2659 28.67 24.5704 28.7152 24.9015C28.7661 25.1952 28.8334 25.4438 28.9171 25.6472L28.9561 25.7675L29.3312 27.8266C29.6118 29.3757 29.7566 30.2462 29.7657 30.4383C29.9048 31.0315 30.0321 31.7659 30.1476 32.6415C30.1612 32.9297 30.2144 33.2714 30.3071 33.6669C30.4055 34.025 30.496 34.3725 30.5785 34.7092C30.712 35.3396 30.7398 35.8492 30.662 36.2379L30.6688 36.382C30.7695 37.1028 30.6025 37.9548 30.1677 38.9379C30.1079 39.0814 30.035 39.1848 29.9492 39.2481C29.8418 39.3272 29.6921 39.3713 29.5 39.3804C29.2221 39.4528 28.8916 39.4314 28.5085 39.3163L27.3847 38.803C27.3316 38.7759 27.2813 38.7301 27.2339 38.6657C27.1864 38.6014 27.1282 38.5449 27.0592 38.4963C27.0332 38.4161 27.0072 38.3359 26.9812 38.2557C26.9338 38.1913 26.897 38.119 26.871 38.0387C26.7895 37.5687 26.7098 37.2134 26.6318 36.9727C26.5854 36.775 26.5469 36.588 26.5164 36.4118C26.4485 36.2299 26.4101 36.0429 26.401 35.8508C26.3965 35.7548 26.345 35.5277 26.2466 35.1695C25.9107 33.86 25.6828 32.7194 25.5628 31.7478L25.1604 29.1124C25.0959 28.5305 24.9895 27.8469 24.8413 27.0617C24.4827 25.272 24.2231 24.0885 24.0625 23.5111L23.652 21.8757C23.5581 21.6136 23.4671 21.3328 23.3789 21.0334C23.2907 20.734 23.194 20.4905 23.0889 20.303C22.9838 20.1155 22.9029 19.8935 22.8464 19.637C22.722 19.1986 22.61 18.867 22.5106 18.6422C22.3862 18.2038 22.2589 17.7841 22.1289 17.383C21.801 16.3989 21.5675 15.6103 21.4284 15.0172C21.2734 14.4025 21.1241 13.7506 20.9804 13.0614C20.9306 12.6343 20.8639 12.3191 20.7802 12.1157C20.7384 12.014 20.6778 11.5949 20.5986 10.8582C20.542 10.6017 20.5736 10.33 20.6933 10.0429C20.9101 9.61803 21.0349 9.36039 21.0677 9.26998C21.2461 8.97278 21.4319 8.75297 21.6251 8.61055C21.7324 8.53143 21.8878 8.45004 22.0911 8.36638C22.2516 8.31437 22.3877 8.29682 22.4996 8.31374C22.7821 8.3374 23.2691 8.45875 23.9606 8.67778Z" fill="#1DD0F0"/>
</svg>
