<svg width="1920" height="813" viewBox="0 0 1920 813" fill="none" xmlns="http://www.w3.org/2000/svg">
<rect x="0.5" y="0.5" width="1919" height="812" stroke="#E67474"/>
<path d="M1387.42 67.3008C1279.85 1.54165 1192.77 111.172 1162.68 174.207C1149.7 199.231 1116.65 276.831 1124.2 324.826C1134.65 391.345 1451.09 563.821 1548.97 573.799C1646.85 583.777 1664.43 407.975 1667.28 369.014C1670.13 330.053 1750.9 200.34 1693.41 158.527C1635.92 116.715 1521.89 149.5 1387.42 67.3008Z" fill="#E789FA"/>
<path d="M1387.42 67.3008C1279.85 1.54165 1192.77 111.172 1162.68 174.207C1149.7 199.231 1116.65 276.831 1124.2 324.826C1134.65 391.345 1451.09 563.821 1548.97 573.799C1646.85 583.777 1664.43 407.975 1667.28 369.014C1670.13 330.053 1750.9 200.34 1693.41 158.527C1635.92 116.715 1521.89 149.5 1387.42 67.3008Z" fill="url(#paint0_linear_51_98)" fill-opacity="0.58"/>
<path d="M1387.42 67.3008C1279.85 1.54165 1192.77 111.172 1162.68 174.207C1149.7 199.231 1116.65 276.831 1124.2 324.826C1134.65 391.345 1451.09 563.821 1548.97 573.799C1646.85 583.777 1664.43 407.975 1667.28 369.014C1670.13 330.053 1750.9 200.34 1693.41 158.527C1635.92 116.715 1521.89 149.5 1387.42 67.3008Z" stroke="black"/>
<path d="M894.823 369.363C893.323 373.696 893.123 384.263 904.323 391.863C915.523 399.463 978.323 412.363 1008.32 417.863C1026.82 408.03 1066.02 388.163 1074.82 387.363C1083.62 386.563 1084.49 386.363 1083.82 386.363C1073.66 385.696 1052.92 384.163 1051.32 383.363C1036.99 389.53 1007.02 402.063 1001.82 402.863C995.323 403.863 987.091 404.363 974.091 398.363C963.691 393.563 943.591 379.363 936.091 373.363C930.091 374.53 913.223 375.763 894.823 369.363Z" stroke="url(#paint1_linear_51_98)" stroke-width="4"/>
<path d="M985.591 257.383C983.658 257.526 981.091 257.883 978.591 258.883C965.192 264.243 953.591 279.383 914.591 295.883C901.164 301.564 892.984 302.649 888.336 302.036M985.591 257.383C985.774 257.371 985.959 257.36 986.147 257.348M985.591 257.383C985.779 257.369 985.964 257.358 986.147 257.348M1015.09 284.048C1007.32 283.754 1000.6 283.543 997.091 283.383C986.091 282.883 981.591 276.383 984.591 276.883C987.591 277.383 995.591 270.383 997.091 265.383C998.308 261.324 995.063 256.875 986.147 257.348M1015.09 284.048C1031.66 284.675 1052.23 286.936 1057.59 287.383C1063.59 287.883 1069.76 287.883 1071.59 287.883C1071.92 277.717 1068.69 258.883 1055.09 256.883C1041.63 254.904 1004.05 256.22 986.147 257.348M1015.09 284.048C1005.59 291.326 985.791 306.083 982.591 306.883C978.893 307.808 913.255 313.431 888.336 302.036M888.336 302.036C886.296 301.103 884.529 300.056 883.091 298.883C883.237 300.051 884.715 301.559 888.336 302.036Z" stroke="url(#paint2_linear_51_98)" stroke-width="4"/>
<path d="M996.591 395.383C988.091 395.883 981.591 390.883 979.591 389.883C977.826 389.001 920.067 358.174 907.591 350.256C931.257 366.132 979.891 398.183 985.091 399.383C991.591 400.883 998.591 404.195 1022.59 393.883C1016.59 395.883 1012.42 391.05 1011.09 388.383H1008.59C1007.42 390.55 1003.39 394.983 996.591 395.383Z" fill="black"/>
<path d="M907.591 350.256C906.655 349.662 905.974 349.197 905.591 348.883C903.066 346.818 901.518 344.215 900.626 341.962M907.591 350.256C920.067 358.174 977.826 389.001 979.591 389.883C981.591 390.883 988.091 395.883 996.591 395.383C1003.39 394.983 1007.42 390.55 1008.59 388.383H1011.09C1012.42 391.05 1016.59 395.883 1022.59 393.883C998.591 404.195 991.591 400.883 985.091 399.383C979.891 398.183 931.257 366.132 907.591 350.256ZM900.626 341.962C899.428 340.46 899.276 338.955 899.591 337.883C899.662 338.807 899.963 340.288 900.626 341.962Z" stroke="black"/>
<path d="M1022.59 393.883C1016.59 395.883 1012.42 391.05 1011.09 388.383H1008.59C1007.42 390.55 1003.39 394.983 996.591 395.383C988.091 395.883 981.591 390.883 979.591 389.883C977.826 389.001 920.067 358.174 907.591 350.256M1022.59 393.883C1030.09 391.383 1097.09 360.883 1099.09 358.883C1101.09 356.883 1068.59 365.883 1016.09 360.883C974.091 356.883 956.257 335.883 952.591 325.883C947.757 333.383 933.991 348.183 917.591 347.383C907.394 346.886 902.596 344.43 900.626 341.962M1022.59 393.883C998.591 404.195 991.591 400.883 985.091 399.383C979.891 398.183 931.257 366.132 907.591 350.256M907.591 350.256C906.655 349.662 905.974 349.197 905.591 348.883C903.066 346.818 901.518 344.215 900.626 341.962M900.626 341.962C899.428 340.46 899.276 338.955 899.591 337.883C899.662 338.807 899.963 340.288 900.626 341.962Z" stroke="url(#paint3_linear_51_98)" stroke-width="4"/>
<path d="M283.249 204.836C295.117 187.542 310.371 175.796 328.037 165C381.367 132.41 407.312 132.312 449.052 157.356C477.738 174.568 542.475 173.36 571.898 163.062C595.098 154.942 626.563 106 651.031 106C665.996 106 675.753 109.69 689.252 115.69C707.816 123.941 708.369 144.949 705.294 162.632C700.546 189.935 686.831 220.926 697.004 249.409C702.44 264.631 721.344 266.28 734.794 262.544C752.447 257.641 769.786 241.881 784.105 230.999C799.709 219.139 818.232 211.236 837.937 218.402C854.671 224.487 870.452 231.259 870.452 251.455C870.452 270.906 860.724 295.43 849.134 310.993C835.941 328.71 824.105 348.782 805.53 361.703C804.771 362.231 804.01 362.746 803.245 363.248C785.576 377.583 737.019 462.673 784.105 487.5C833.415 513.5 819.681 549.5 718.181 700C616.681 850.5 328.037 700 304.681 638C281.325 576 349.181 515 449.052 517.5C548.923 520 499.681 377.315 433.181 348.245C406.86 336.739 381.416 338.991 360.226 346.55C359.229 347.11 358.26 347.676 357.322 348.245C342.302 357.365 325.43 365.748 312.211 377.315C291.834 395.145 267.431 406.703 239.537 400.14C202.051 391.319 213.875 354.935 218.865 324.99C222.355 304.051 233.43 287.526 243.521 268.897C255.339 247.079 269.258 225.223 283.249 204.836Z" fill="#FFD412"/>
<path d="M283.249 204.836C295.117 187.542 310.371 175.796 328.037 165C381.367 132.41 407.312 132.312 449.052 157.356C477.738 174.568 542.475 173.36 571.898 163.062C595.098 154.942 626.563 106 651.031 106C665.996 106 675.753 109.69 689.252 115.69C707.816 123.941 708.369 144.949 705.294 162.632C700.546 189.935 686.831 220.926 697.004 249.409C702.44 264.631 721.344 266.28 734.794 262.544C752.447 257.641 769.786 241.881 784.105 230.999C799.709 219.139 818.232 211.236 837.937 218.402C854.671 224.487 870.452 231.259 870.452 251.455C870.452 270.906 860.724 295.43 849.134 310.993C835.941 328.71 824.105 348.782 805.53 361.703C804.771 362.231 804.01 362.746 803.245 363.248C785.576 377.583 737.019 462.673 784.105 487.5C833.415 513.5 819.681 549.5 718.181 700C616.681 850.5 328.037 700 304.681 638C281.325 576 349.181 515 449.052 517.5C548.923 520 499.681 377.315 433.181 348.245C406.86 336.739 381.416 338.991 360.226 346.55C359.229 347.11 358.26 347.676 357.322 348.245C342.302 357.365 325.43 365.748 312.211 377.315C291.834 395.145 267.431 406.703 239.537 400.14C202.051 391.319 213.875 354.935 218.865 324.99C222.355 304.051 233.43 287.526 243.521 268.897C255.339 247.079 269.258 225.223 283.249 204.836Z" fill="url(#paint4_linear_51_98)" fill-opacity="0.51"/>
<path d="M1471.59 471.863C1465.19 467.063 1470.92 459.53 1474.59 456.363C1466.09 457.363 1457.09 451.863 1459.09 442.363C1460.69 434.763 1471.84 437.363 1475.67 439.363C1476.89 436.716 1479.01 433.703 1482.09 432.863C1486.49 431.663 1488.59 436.363 1489.09 438.863C1490.29 435.663 1494.26 435.53 1496.09 435.863C1498.09 436.196 1501.39 438.663 1498.59 445.863C1497.88 447.697 1496.74 448.985 1495.37 449.863C1500.09 453.363 1505.59 458.363 1498.59 463.863C1494.89 466.772 1490.84 465.616 1487.79 463.631C1485.46 467.798 1477.99 476.663 1471.59 471.863Z" fill="#1EF79A"/>
<path d="M1487.79 463.631C1485.46 467.798 1477.99 476.663 1471.59 471.863C1465.19 467.063 1470.92 459.53 1474.59 456.363C1466.09 457.363 1457.09 451.863 1459.09 442.363C1460.69 434.763 1471.84 437.363 1475.67 439.363M1484.09 460.363C1486.59 463.363 1492.99 468.263 1498.59 463.863C1505.59 458.363 1500.09 453.363 1495.37 449.863M1482.09 450.363C1486.42 451.863 1495.79 453.063 1498.59 445.863C1501.39 438.663 1498.09 436.196 1496.09 435.863C1494.26 435.53 1490.29 435.663 1489.09 438.863C1488.59 436.363 1486.49 431.663 1482.09 432.863C1477.69 434.063 1475.26 439.696 1474.59 442.363" stroke="black" stroke-linecap="round"/>
<path d="M1004.09 703.363C1005.1 702.989 1006.52 702.424 1008.09 701.736C1009.59 698.363 1005.08 697.121 995.586 695.363C982.087 692.863 972.088 706.363 955.089 702.363C941.49 699.163 932.09 683.363 929.687 686.363C929.758 687.085 929.887 687.914 930.091 688.863C931.591 695.863 950.089 707.363 964.088 709.863C978.087 712.363 980.587 703.363 987.587 700.863C988.536 700.524 989.547 700.324 990.586 700.233C995.677 699.79 1001.46 701.979 1004.09 703.363Z" fill="#1EF79A"/>
<path d="M992.591 719.863C994.191 715.463 1001.59 708.03 1004.09 703.363C1001.46 701.979 995.677 699.79 990.586 700.233L988.591 710.863C988.591 714.863 983.091 716.863 982.091 719.863C981.291 722.263 984.757 723.53 986.591 723.863C987.924 724.363 990.991 724.263 992.591 719.863Z" fill="#1EF79A"/>
<path d="M1004.09 703.363C1001.59 708.03 994.191 715.463 992.591 719.863C990.991 724.263 987.924 724.363 986.591 723.863C984.757 723.53 981.291 722.263 982.091 719.863C983.091 716.863 988.591 714.863 988.591 710.863M1004.09 703.363C1001.46 701.979 995.677 699.79 990.586 700.233M1004.09 703.363C1005.1 702.989 1006.52 702.424 1008.09 701.736M988.591 710.863C988.591 707.663 990.586 703.443 990.586 700.233M988.591 710.863L990.586 700.233M990.586 700.233C989.547 700.324 988.536 700.524 987.587 700.863C980.587 703.363 978.087 712.363 964.088 709.863C950.089 707.363 931.591 695.863 930.091 688.863C929.887 687.914 929.758 687.085 929.687 686.363M929.687 686.363C929.339 682.829 930.399 681.863 931.091 681.863L935.591 680.863C942.553 681.53 957.739 682.663 962.784 681.863C960.782 682.501 958.865 682.863 957.091 682.863C949.091 682.863 954.757 685.196 958.591 686.363C963.091 687.696 974.691 688.863 985.091 682.863C998.091 675.363 1004.09 675.363 1011.59 676.363C1014.22 676.714 1016.18 677.526 1017.59 678.454C1019.4 679.642 1020.31 681.021 1020.59 681.863C1020.92 685.53 1020.79 693.563 1017.59 696.363C1015.42 698.266 1011.42 700.277 1008.09 701.736M929.687 686.363C932.09 683.363 941.49 699.163 955.089 702.363C972.088 706.363 982.087 692.863 995.586 695.363C1005.08 697.121 1009.59 698.363 1008.09 701.736" stroke="black" stroke-linecap="round"/>
<path d="M958.591 686.363C954.757 685.196 949.091 682.863 957.091 682.863C958.865 682.863 960.782 682.501 962.784 681.863C957.739 682.663 942.553 681.53 935.591 680.863L931.091 681.863C930.399 681.863 929.339 682.829 929.687 686.363C932.09 683.363 941.49 699.163 955.089 702.363C972.088 706.363 982.087 692.863 995.586 695.363C1005.08 697.121 1009.59 698.363 1008.09 701.736C1011.42 700.277 1015.42 698.266 1017.59 696.363C1020.79 693.563 1020.92 685.53 1020.59 681.863C1020.31 681.021 1019.4 679.642 1017.59 678.454C1016.18 677.526 1014.22 676.714 1011.59 676.363C1004.09 675.363 998.091 675.363 985.091 682.863C974.691 688.863 963.091 687.696 958.591 686.363Z" fill="#E789FA"/>
<path d="M987.587 700.863C988.536 700.524 989.547 700.324 990.586 700.233C995.677 699.79 1001.46 701.979 1004.09 703.363C1005.1 702.989 1006.52 702.424 1008.09 701.736M930.091 688.863C929.887 687.914 929.758 687.085 929.687 686.363M929.687 686.363C929.339 682.829 930.399 681.863 931.091 681.863L935.591 680.863C942.553 681.53 957.739 682.663 962.784 681.863C960.782 682.501 958.865 682.863 957.091 682.863C949.091 682.863 954.757 685.196 958.591 686.363C963.091 687.696 974.691 688.863 985.091 682.863C998.091 675.363 1004.09 675.363 1011.59 676.363C1014.22 676.714 1016.18 677.526 1017.59 678.454C1019.4 679.642 1020.31 681.021 1020.59 681.863C1020.92 685.53 1020.79 693.563 1017.59 696.363C1015.42 698.266 1011.42 700.277 1008.09 701.736M929.687 686.363C932.09 683.363 941.49 699.163 955.089 702.363C972.088 706.363 982.087 692.863 995.586 695.363C1005.08 697.121 1009.59 698.363 1008.09 701.736" stroke="black" stroke-linecap="round"/>
<path d="M1253.59 261.5C1253.76 259.167 1257.29 254.5 1270.09 254.5C1279.77 254.5 1284.15 253.546 1285.78 252.721C1286.06 252.473 1286.33 252.233 1286.59 252C1286.55 252.203 1286.31 252.455 1285.78 252.721C1278.66 259.04 1264.82 269.925 1260.59 268C1255.09 265.5 1253.09 265.5 1253.59 261.5Z" fill="black" stroke="black"/>
<path d="M1251.59 258L1252.68 248.753C1259.59 251.07 1266.07 251.918 1270.94 252.021C1272.99 252.064 1274.75 251.974 1276.15 251.807C1277.36 251.661 1278.29 251.455 1278.87 251.226C1282.87 249.657 1283.96 253.539 1283.35 253.902C1283.13 254.036 1279.87 255.147 1275.51 256.367C1272.2 257.295 1268.25 258.285 1264.51 258.953C1261.83 259.433 1259.27 259.747 1257.13 259.754C1255.51 259.76 1254.14 259.59 1253.15 259.183C1252.15 258.777 1252.28 258.685 1251.59 258Z" fill="white"/>
<path d="M1257.13 259.754C1255.51 259.76 1254.14 259.59 1253.15 259.183C1252.15 258.777 1252.28 258.685 1251.59 258L1252.68 248.753C1262.5 252.047 1271.45 252.372 1276.15 251.807M1257.13 259.754C1257.34 258.916 1258.61 253.857 1259.22 251.433M1257.13 259.754C1259.27 259.747 1261.83 259.433 1264.51 258.953M1264.51 258.953C1264.44 257.698 1264.92 254.071 1265.16 252.414M1264.51 258.953C1268.25 258.285 1272.2 257.295 1275.51 256.367M1270.61 257.396C1270.91 256.232 1270.89 252.869 1270.94 252.021M1275.51 256.367C1279.87 255.147 1283.13 254.036 1283.35 253.902C1283.96 253.539 1282.87 249.657 1278.87 251.226C1278.29 251.455 1277.36 251.661 1276.15 251.807M1275.51 256.367C1275.67 255.742 1276 253.067 1276.15 251.807" stroke="black"/>
<path d="M1002.09 220.363C1000.89 218.363 1002.33 211.616 1003.16 208.616C1000.47 207.014 997.49 205.36 997.091 203.363C996.591 200.863 1005.26 195.696 1009.59 193.363C1016.26 190.03 1025.99 193.5 1033.59 201.5C1043.09 211.5 1043.09 213 1038.59 215C1034.09 217 1028.09 214.363 1026.09 215.863C1024.49 217.063 1023.42 218.309 1023.09 218.782C1028.82 222.495 1035.85 222.785 1039.09 222.363C1039.76 222.196 1041.39 222.363 1042.59 224.363C1043.79 226.363 1040.42 227.53 1038.59 227.863C1030.68 227.863 1024.3 226.235 1019.47 224.078C1018.97 224.744 1017.19 226.363 1015.59 226.363C1013.59 226.363 1003.59 222.863 1002.09 220.363Z" fill="#F2EAD5"/>
<path d="M1003.16 208.616C1002.33 211.616 1000.89 218.363 1002.09 220.363C1003.59 222.863 1013.59 226.363 1015.59 226.363C1017.19 226.363 1018.97 224.744 1019.47 224.078M1003.16 208.616C1000.47 207.014 997.49 205.36 997.091 203.363C996.591 200.863 1005.26 195.696 1009.59 193.363C1016.26 190.03 1025.99 193.5 1033.59 201.5C1043.09 211.5 1043.09 213 1038.59 215C1034.09 217 1028.09 214.363 1026.09 215.863C1024.49 217.063 1023.42 218.309 1023.09 218.782M1003.16 208.616C1005.24 209.852 1007.16 211.057 1007.59 212.363C1008.59 215.363 1012.59 214.363 1012.59 212.863C1012.59 211.363 1012.09 207.363 1009.59 205.863C1007.59 204.663 1006.76 203.03 1006.59 202.363C1007.76 201.196 1008.59 200.863 1010.09 200.363M1009.09 216.363C1011.92 220.53 1021.79 227.863 1038.59 227.863C1040.42 227.53 1043.79 226.363 1042.59 224.363C1041.39 222.363 1039.76 222.196 1039.09 222.363C1035.85 222.785 1028.82 222.495 1023.09 218.782M1020.09 216.363C1021.02 217.297 1022.04 218.098 1023.09 218.782" stroke="black"/>
<path d="M1438.25 491.014C1445.19 490.181 1459.75 486.977 1463.75 483.377C1467.75 479.777 1469.42 481.21 1469.75 482.377C1469.92 483.398 1469.45 485.932 1466.25 487.908C1462.25 490.377 1450.86 496.014 1447.47 495.514C1454.33 498.186 1462.19 499.771 1470.09 498.514C1471.49 498.291 1472.82 498.012 1474.09 497.684C1475.26 495.127 1477.15 491.177 1476.75 486.377C1476.35 481.577 1478.92 482.377 1480.25 483.377C1480.92 485.044 1482.05 486.177 1481.25 489.377C1480.25 493.377 1484.25 482.877 1484.25 480.877C1484.25 478.877 1486.75 475.877 1488.25 476.877C1489.55 477.745 1488.59 484.266 1486.36 488.588C1487.96 485.892 1490.12 481.919 1490.75 479.377C1491.55 476.177 1493.08 476.044 1493.75 476.377C1494.28 476.842 1495.55 478.664 1495.24 479.834C1495.22 479.894 1495.2 479.954 1495.18 480.014C1493.39 485.395 1487.4 494.235 1474.09 497.684C1472.82 498.012 1471.49 498.291 1470.09 498.514C1462.19 499.771 1454.33 498.186 1447.47 495.514C1444.12 494.206 1441 492.637 1438.25 491.014Z" fill="#F2EAD5"/>
<path d="M1020.09 187.014C1016.59 188.347 1009.59 191.414 1009.59 193.014C1009.59 195.014 1008.59 203.514 1011.59 207.014C1013.99 209.814 1015.92 206.847 1016.59 205.014C1016.26 202.847 1015.79 198.314 1016.59 197.514C1017.59 196.514 1035.59 190.014 1042.59 205.014C1043.59 206.847 1043.49 210.814 1035.09 212.014C1024.59 213.514 1024.09 212.014 1022.59 212.514C1021.09 213.014 1021.09 216.014 1021.59 216.514C1022.09 217.014 1034.59 224.514 1044.59 221.014C1054.59 217.514 1058.59 214.014 1064.59 210.014C1074.92 213.681 1098.59 225.214 1110.59 242.014C1125.59 263.014 1135.59 296.014 1141.09 304.514C1146.59 313.014 1169.59 349.514 1215.09 357.514C1216.59 357.514 1218.03 358.514 1222.56 357.514C1223.39 371.22 1235.94 395.728 1242.59 407.014C1240.26 413.681 1235.29 427.714 1234.09 430.514C1232.89 433.314 1231.59 441.014 1231.09 444.514C1223.59 441.347 1207.49 433.414 1203.09 427.014C1198.69 420.614 1189.09 414.014 1182.59 412.127C1188.25 417.66 1190.5 424.64 1190.74 432.014C1191.26 448.115 1182.21 466.098 1178.09 475.014C1173.16 485.699 1163.16 497.059 1158.09 500.489C1156.99 501.232 1156.12 501.603 1155.59 501.514C1155.1 501.433 1154.75 501.309 1154.49 501.158C1166.63 516.285 1198.62 547.979 1234.09 559.014C1270.09 570.214 1294.59 551.514 1303.59 542.514C1311.59 533.014 1330.79 512.514 1321.59 472.514C1312.39 432.514 1313.22 405.128 1314.72 395.794C1321.73 406.347 1330.41 419.127 1341.09 434.514C1384.69 497.314 1434.59 517.347 1454.09 519.514C1458.59 520.347 1470.19 521.114 1480.59 517.514C1490.99 513.914 1494.92 496.701 1495.59 488.545C1496.43 487.643 1497.11 486.79 1497.59 486.014C1501.59 479.514 1498.59 477.014 1497.59 476.514C1496.79 476.114 1495.92 477.681 1495.59 478.514C1495.5 478.922 1495.39 479.364 1495.24 479.834C1495.22 479.894 1495.2 479.954 1495.18 480.014C1493.39 485.395 1487.4 494.235 1474.09 497.684C1472.82 498.012 1471.49 498.291 1470.09 498.514C1462.19 499.771 1454.33 498.186 1447.47 495.514C1444.12 494.206 1441 492.637 1438.25 491.014C1434.09 488.569 1430.74 486.001 1428.59 484.014C1365.09 445.014 1332.09 336.014 1322.59 319.514C1319.91 314.853 1316.15 312.466 1312.09 311.511C1312.09 309.514 1308.09 293.014 1307.09 286.514C1306.29 281.314 1305.47 269.333 1305.31 267L1303.55 249.287C1303.5 248.846 1303.46 248.418 1303.43 248C1302.6 236.116 1312.39 233.285 1317.43 214.5C1321.83 198.1 1315.6 190.333 1311.93 188.5C1312.93 185.5 1307.93 185 1295.43 179.5C1283.85 174.403 1273.13 177.977 1264.09 188.5C1262.06 194 1255.83 205.2 1255.43 206C1254.93 207 1253.93 218.5 1256.43 221.417C1252.14 224.217 1245.93 230.754 1245.93 233.637C1245.93 236.885 1248.87 237.111 1251.93 239C1251.93 239 1250.74 242.748 1249.93 245.137C1248.63 249.01 1248.1 250.833 1249.93 252C1263.43 254.5 1273.13 254 1275.93 252C1279.43 249.5 1281.43 253 1280.93 253.5C1280.43 254 1270.59 265.5 1256.43 265.5C1249.36 265.5 1252.09 261.5 1248.93 263C1246.67 264.072 1246.83 280.27 1257.09 282.5C1258.78 282.867 1261.17 283.229 1262.93 283L1264.59 288.5C1266.09 293.5 1266.71 296.15 1266.09 304.014H1250.72C1244.55 304.014 1225.62 303.514 1199.22 301.514C1172.82 299.514 1154.55 275.347 1148.72 263.514C1145.22 253.681 1133.42 229.614 1114.22 212.014C1095.02 194.414 1066.43 192 1047.37 193.5C1045.74 192.278 1043.7 190.796 1041.09 189.014C1033.49 183.814 1023.92 185.514 1020.09 187.014Z" fill="#F2EAD5"/>
<path d="M1054.25 197.877C1052.8 197.514 1051.69 196.735 1047.37 193.5M1235.75 319.877C1229.25 330.377 1223.75 337.877 1222.25 353.877C1222.16 354.804 1222.5 356.444 1222.56 357.514M1222.56 357.514C1223.39 371.22 1235.94 395.728 1242.59 407.014C1240.26 413.681 1235.29 427.714 1234.09 430.514C1232.89 433.314 1231.59 441.014 1231.09 444.514C1223.59 441.347 1207.49 433.414 1203.09 427.014C1198.69 420.614 1189.09 414.014 1182.59 412.127M1222.56 357.514C1218.03 358.514 1216.59 357.514 1215.09 357.514C1169.59 349.514 1146.59 313.014 1141.09 304.514C1135.59 296.014 1125.59 263.014 1110.59 242.014C1098.59 225.214 1074.92 213.681 1064.59 210.014C1058.59 214.014 1054.59 217.514 1044.59 221.014C1034.59 224.514 1022.09 217.014 1021.59 216.514C1021.09 216.014 1021.09 213.014 1022.59 212.514C1024.09 212.014 1024.59 213.514 1035.09 212.014C1043.49 210.814 1043.59 206.847 1042.59 205.014C1035.59 190.014 1017.59 196.514 1016.59 197.514C1015.79 198.314 1016.26 202.847 1016.59 205.014C1015.92 206.847 1013.99 209.814 1011.59 207.014C1008.59 203.514 1009.59 195.014 1009.59 193.014C1009.59 191.414 1016.59 188.347 1020.09 187.014C1023.92 185.514 1033.49 183.814 1041.09 189.014C1043.7 190.796 1045.74 192.278 1047.37 193.5M1182.59 412.127C1181.59 412.127 1173.75 408.877 1170.75 416.377C1168.35 422.377 1170.75 424.544 1172.25 424.877C1178.01 426.544 1190.05 430.814 1190.74 432.014M1182.59 412.127C1188.25 417.66 1190.5 424.64 1190.74 432.014M1190.74 432.014C1191.26 448.115 1182.21 466.098 1178.09 475.014C1173.16 485.699 1163.16 497.059 1158.09 500.489M1158.09 500.489C1156.99 501.232 1156.12 501.603 1155.59 501.514C1155.1 501.433 1154.75 501.309 1154.49 501.158M1158.09 500.489L1154.25 498.377C1153.89 498.739 1153.51 499.327 1153.62 499.852M1153.62 499.852C1153.79 500.071 1154.31 500.931 1154.49 501.158M1153.62 499.852C1153.67 500.099 1154.17 500.968 1154.49 501.158M1314.72 395.794C1313.22 405.128 1312.39 432.514 1321.59 472.514C1330.79 512.514 1311.59 533.014 1303.59 542.514C1294.59 551.514 1270.09 570.214 1234.09 559.014C1198.62 547.979 1166.63 516.285 1154.49 501.158M1314.72 395.794C1321.73 406.347 1330.41 419.127 1341.09 434.514C1384.69 497.314 1434.59 517.347 1454.09 519.514C1458.59 520.347 1470.19 521.114 1480.59 517.514C1490.99 513.914 1494.92 496.701 1495.59 488.545M1314.72 395.794C1293.11 363.276 1287 351.261 1287.25 349.877M1495.59 488.545C1496.43 487.643 1497.11 486.79 1497.59 486.014C1501.59 479.514 1498.59 477.014 1497.59 476.514C1496.79 476.114 1495.92 477.681 1495.59 478.514C1495.5 478.922 1495.39 479.364 1495.24 479.834M1495.59 488.545C1492.59 495.514 1481.71 502.258 1476.75 505.377M1438.25 491.014C1434.09 488.569 1430.74 486.001 1428.59 484.014C1365.09 445.014 1332.09 336.014 1322.59 319.514C1319.91 314.853 1316.15 312.466 1312.09 311.511M1438.25 491.014C1445.19 490.181 1459.75 486.977 1463.75 483.377C1467.75 479.777 1469.42 481.21 1469.75 482.377C1469.92 483.398 1469.45 485.932 1466.25 487.908C1462.25 490.377 1450.86 496.014 1447.47 495.514M1438.25 491.014C1441 492.637 1444.12 494.206 1447.47 495.514M1447.47 495.514C1454.33 498.186 1462.19 499.771 1470.09 498.514C1471.49 498.291 1472.82 498.012 1474.09 497.684M1474.09 497.684C1475.26 495.127 1477.15 491.177 1476.75 486.377C1476.35 481.577 1478.92 482.377 1480.25 483.377C1480.92 485.044 1482.05 486.177 1481.25 489.377C1480.25 493.377 1484.25 482.877 1484.25 480.877C1484.25 478.877 1486.75 475.877 1488.25 476.877C1489.55 477.745 1488.59 484.266 1486.36 488.588M1474.09 497.684C1487.4 494.235 1493.39 485.395 1495.18 480.014M1486.36 488.588C1486.02 489.244 1485.65 489.85 1485.25 490.377C1485.56 489.897 1485.94 489.286 1486.36 488.588ZM1486.36 488.588C1487.96 485.892 1490.12 481.919 1490.75 479.377C1491.55 476.177 1493.08 476.044 1493.75 476.377C1494.28 476.842 1495.55 478.664 1495.24 479.834M1495.18 480.014C1495.2 479.953 1495.22 479.893 1495.24 479.834M1495.18 480.014C1495.2 479.954 1495.22 479.894 1495.24 479.834M1291.25 314.877C1295.89 312.182 1304.66 309.76 1312.09 311.511M1312.09 311.511C1312.09 309.514 1308.09 293.014 1307.09 286.514C1306.29 281.314 1305.47 269.333 1305.31 267L1303.55 249.287M1047.37 193.5C1066.43 192 1095.02 194.414 1114.22 212.014C1133.42 229.614 1145.22 253.681 1148.72 263.514C1154.55 275.347 1172.82 299.514 1199.22 301.514C1225.62 303.514 1244.55 304.014 1250.72 304.014H1266.09M1266.09 304.014C1266.71 296.15 1266.09 293.5 1264.59 288.5L1262.93 283M1266.09 304.014C1265.81 307.634 1262.64 310.355 1261.38 312.877M1303.59 250.863C1303.43 250.091 1303.64 249.992 1303.55 249.287M1303.43 248C1302.6 236.116 1312.39 233.285 1317.43 214.5C1321.83 198.1 1315.6 190.333 1311.93 188.5C1312.93 185.5 1307.93 185 1295.43 179.5C1283.85 174.403 1273.13 177.977 1264.09 188.5C1262.06 194 1255.83 205.2 1255.43 206C1254.93 207 1253.93 218.5 1256.43 221.417M1303.43 248C1303.46 248.418 1303.5 248.846 1303.55 249.287M1303.43 248L1303.55 249.287M1256.43 221.417C1258.36 220.157 1259.67 218.484 1260.38 217.863C1262.2 216.263 1264.95 211.197 1266.09 208.863M1256.43 221.417C1252.14 224.217 1245.93 230.754 1245.93 233.637C1245.93 236.885 1248.87 237.111 1251.93 239M1261.68 238.363C1261.25 239.196 1262.32 241.263 1258.09 240.863C1256.62 240.724 1253.11 239.728 1251.93 239M1290.09 273.363C1285.19 275.814 1275.93 283.637 1262.93 283M1262.93 283C1261.17 283.229 1258.78 282.867 1257.09 282.5C1246.83 280.27 1246.67 264.072 1248.93 263C1252.09 261.5 1249.36 265.5 1256.43 265.5C1270.59 265.5 1280.43 254 1280.93 253.5C1281.43 253 1279.43 249.5 1275.93 252C1273.13 254 1263.43 254.5 1249.93 252C1248.1 250.833 1248.63 249.01 1249.93 245.137C1250.74 242.748 1251.93 239 1251.93 239" stroke="black" stroke-linecap="round"/>
<path d="M1266.87 206.492C1266.72 206.688 1266.56 206.883 1266.4 207.078C1266.21 207.029 1266.01 206.973 1265.82 206.923C1265.05 206.711 1264.35 206.462 1263.68 206.133C1261.34 204.996 1258.83 204.18 1256.15 204.163C1255.96 204.162 1255.77 204.166 1255.58 204.174C1255.53 203.929 1255.48 203.683 1255.44 203.438C1255.63 203.372 1255.83 203.313 1256.03 203.26C1258.86 202.511 1261.95 203.056 1264.56 204.338C1265.31 204.707 1265.98 205.245 1266.51 205.941C1266.64 206.112 1266.77 206.301 1266.87 206.492Z" fill="black"/>
<path d="M1275.31 208.491C1275.09 208.371 1274.88 208.251 1274.66 208.131C1274.82 207.658 1275.11 207.221 1275.45 206.857C1276.89 205.408 1278.84 204.935 1280.63 204.725C1282.9 204.494 1285.14 204.583 1287.36 204.885C1291.76 206.136 1294.55 208.82 1297.65 211.314C1297.99 211.6 1298.32 211.889 1298.64 212.184C1298.49 212.38 1298.33 212.575 1298.18 212.771C1297.82 212.523 1297.46 212.28 1297.1 212.039C1293.89 209.972 1290.38 207.48 1287.14 206.733C1285.05 206.538 1282.9 206.502 1280.84 206.713C1279.21 206.903 1277.55 207.081 1276.21 207.789C1275.88 207.972 1275.57 208.197 1275.31 208.491Z" fill="black"/>
<path d="M1289.59 222.855C1289.28 223.163 1288.96 223.471 1288.65 223.779C1288.44 223.555 1288.19 223.351 1287.91 223.166C1284.77 221.335 1280.64 221.004 1276.84 220.921L1275.46 220.962L1276.59 220.154C1279.02 218.617 1281.86 217.698 1284.74 217.986C1285.12 218.029 1285.5 218.099 1285.87 218.196C1285.84 218.356 1285.8 218.516 1285.76 218.677C1285.41 218.599 1285.05 218.547 1284.69 218.52C1282 218.34 1279.26 219.342 1277.08 220.845L1276.82 220.077C1280.77 220.046 1284.81 220.1 1288.59 222.086C1288.94 222.3 1289.28 222.548 1289.59 222.855Z" fill="black"/>
<path d="M1253.54 216.979C1253.45 216.548 1253.36 216.117 1253.28 215.686C1253.51 215.645 1253.75 215.614 1253.99 215.595C1256.32 215.394 1258.68 216.336 1260.15 218.166L1259.36 218.385C1259.57 216.77 1259.34 214.691 1257.84 213.953C1257.66 213.869 1257.47 213.808 1257.28 213.768C1257.3 213.605 1257.33 213.442 1257.36 213.28C1257.59 213.312 1257.83 213.371 1258.05 213.46C1260.02 214.333 1260.34 216.661 1260.24 218.487L1260.09 219.55L1259.46 218.706C1258.15 217.269 1256.03 216.562 1254.13 216.865C1253.93 216.894 1253.74 216.932 1253.54 216.979Z" fill="black"/>
<path d="M1182.09 410.476C1181.09 410.476 1173.59 407.863 1170.59 415.363C1169.35 418.458 1169.39 420.534 1169.93 421.863C1170.43 423.111 1171.36 423.702 1172.09 423.863C1177.85 425.53 1189.55 429.163 1190.24 430.363C1190 422.989 1187.75 416.009 1182.09 410.476Z" fill="#9946F7"/>
<path d="M1079.09 525.364C1072.69 531.764 1073.09 535.03 1074.09 535.864C1078.59 530.53 1089.39 522.564 1096.59 533.364C1105.04 546.031 1114.8 555.617 1107.3 582.364C1106.81 584.121 1106.24 585.952 1105.59 587.864C1097.19 612.664 1090.42 602.53 1088.09 594.364C1086.92 599.03 1086.69 608.864 1095.09 610.864C1105.59 613.364 1108.09 605.364 1116.09 595.364C1122.49 587.364 1134.76 590.03 1140.09 592.364C1144.92 594.53 1157.19 596.664 1167.59 587.864C1172.32 583.863 1175.09 581.363 1175.09 581.363C1184.92 571.863 1207.59 555.064 1227.59 559.864C1252.59 565.864 1277.09 564.5 1300.09 549C1323.09 533.5 1329.09 494.364 1319.59 452.864C1311.99 419.664 1313.09 400.364 1314.59 394.864C1312.35 391.287 1309.27 386.308 1305.95 380.864C1305 381.864 1302.59 382.864 1300.59 378.864C1300.06 377.797 1299.45 375.02 1300.09 372.864C1300.2 372.48 1300.32 372.103 1300.45 371.732C1302.25 366.373 1305.14 362.322 1308.09 357.864C1310.72 354.031 1317.05 347.513 1321.59 346.864C1330.32 345.617 1335.74 347.285 1338.59 349.203C1339.36 349.722 1339.94 350.26 1340.35 350.763L1326.09 319.864C1324.92 316.03 1319.49 308.064 1307.09 306.864C1294.69 305.664 1289.59 311.364 1288.59 314.364L1277.59 338.364C1269.09 339.864 1251.19 341.964 1247.59 338.364C1243.99 334.764 1254.76 312.167 1260.59 302.5C1250.76 300.833 1229.89 299.564 1225.09 298.364C1219.09 296.864 1212.66 308.442 1210.09 324.864C1207.59 340.863 1211.59 358.864 1216.09 359.864C1219.69 360.664 1221.81 358.196 1222.14 356.863C1222.28 358.3 1222.53 359.841 1222.89 361.462C1225.93 375.489 1236.27 395.488 1242.09 405.363C1239.76 412.03 1234.79 426.063 1233.59 428.863C1232.39 431.663 1231.09 439.363 1230.59 442.863C1223.09 439.696 1206.99 431.763 1202.59 425.363C1198.19 418.963 1188.59 412.363 1182.09 410.476C1187.75 416.009 1190 422.989 1190.24 430.363C1190.76 446.464 1181.71 464.447 1177.59 473.363C1172.66 484.048 1162.66 495.409 1157.59 498.838C1156.49 499.581 1155.62 499.952 1155.09 499.863C1153.99 499.68 1153.55 499.281 1153.46 498.838C1153.35 498.313 1153.73 497.725 1154.09 497.363L1157.59 498.838C1162.66 495.409 1172.66 484.048 1177.59 473.363C1181.71 464.447 1190.76 446.464 1190.24 430.363C1189.55 429.163 1177.85 425.53 1172.09 423.863C1171.36 423.702 1170.43 423.111 1169.93 421.863C1170.15 427.863 1160.39 442.463 1119.59 452.864C1078.79 463.264 1076.92 493.531 1081.09 507.364C1081.27 507.682 1081.46 507.999 1081.64 508.315C1083.52 511.822 1085.11 519.343 1079.09 525.364Z" fill="#9946F7"/>
<path d="M1088.09 594.364C1090.42 602.53 1097.19 612.664 1105.59 587.864C1106.24 585.952 1106.81 584.121 1107.3 582.364M1088.09 594.364L1107.3 582.364M1088.09 594.364C1086.92 599.03 1086.69 608.864 1095.09 610.864C1105.59 613.364 1108.09 605.364 1116.09 595.364C1122.49 587.364 1134.76 590.03 1140.09 592.364C1144.92 594.53 1157.19 596.664 1167.59 587.864C1172.32 583.863 1175.09 581.363 1175.09 581.363C1184.92 571.863 1207.59 555.064 1227.59 559.864C1252.59 565.864 1277.09 564.5 1300.09 549C1323.09 533.5 1329.09 494.364 1319.59 452.864C1311.99 419.664 1313.09 400.364 1314.59 394.864C1312.35 391.287 1309.27 386.308 1305.95 380.864M1107.3 582.364C1114.8 555.617 1105.04 546.031 1096.59 533.364C1089.39 522.564 1078.59 530.53 1074.09 535.864C1073.09 535.03 1072.69 531.764 1079.09 525.364C1085.11 519.343 1083.52 511.822 1081.64 508.315C1081.46 507.999 1081.27 507.682 1081.09 507.364C1076.92 493.531 1078.79 463.264 1119.59 452.864C1160.39 442.463 1170.15 427.863 1169.93 421.863M1287.59 348.864C1290.02 353.921 1295.11 362.773 1300.45 371.732M1341.09 352.364C1341.09 353.964 1340.76 353.697 1340.09 353.364L1338.59 349.203M1341.09 352.364C1341.09 351.948 1340.85 351.382 1340.35 350.763M1341.09 352.364L1340.35 350.763M1338.59 349.203C1335.74 347.285 1330.32 345.617 1321.59 346.864C1317.05 347.513 1310.72 354.031 1308.09 357.864C1305.14 362.322 1302.25 366.373 1300.45 371.732M1338.59 349.203C1339.36 349.722 1339.94 350.26 1340.35 350.763M1305.95 380.864C1304.76 378.909 1303.54 376.895 1302.32 374.864C1301.7 373.822 1301.07 372.776 1300.45 371.732M1305.95 380.864C1305 381.864 1302.59 382.864 1300.59 378.864C1300.06 377.797 1299.45 375.02 1300.09 372.864C1300.2 372.48 1300.32 372.103 1300.45 371.732M1235.59 318.863C1229.09 329.363 1223.59 336.863 1222.09 352.863C1222 353.79 1222 354.794 1222.06 355.863C1222.16 357.576 1222.45 359.458 1222.89 361.462M1182.09 410.476C1188.59 412.363 1198.19 418.963 1202.59 425.363C1206.99 431.763 1223.09 439.696 1230.59 442.863C1231.09 439.363 1232.39 431.663 1233.59 428.863C1234.79 426.063 1239.76 412.03 1242.09 405.363C1236.27 395.488 1225.93 375.489 1222.89 361.462M1182.09 410.476C1181.09 410.476 1173.59 407.863 1170.59 415.363C1169.35 418.458 1169.39 420.534 1169.93 421.863M1182.09 410.476C1187.75 416.009 1190 422.989 1190.24 430.363M1190.24 430.363C1190.76 446.464 1181.71 464.447 1177.59 473.363C1172.66 484.048 1162.66 495.409 1157.59 498.838M1190.24 430.363C1189.55 429.163 1177.85 425.53 1172.09 423.863C1171.36 423.702 1170.43 423.111 1169.93 421.863M1157.59 498.838C1156.49 499.581 1155.62 499.952 1155.09 499.863C1153.99 499.68 1153.55 499.281 1153.46 498.838C1153.35 498.313 1153.73 497.725 1154.09 497.363L1157.59 498.838ZM1340.35 350.763L1326.09 319.864C1324.92 316.03 1319.49 308.064 1307.09 306.864C1294.69 305.664 1289.59 311.364 1288.59 314.364L1277.59 338.364C1269.09 339.864 1251.19 341.964 1247.59 338.364C1243.99 334.764 1254.76 312.167 1260.59 302.5C1250.76 300.833 1229.89 299.564 1225.09 298.364C1219.09 296.864 1212.66 308.442 1210.09 324.864C1207.59 340.863 1211.59 358.864 1216.09 359.864C1219.69 360.664 1221.81 358.196 1222.14 356.863C1222.28 358.3 1222.53 359.841 1222.89 361.462" stroke="black" stroke-linecap="round"/>
<path d="M1143.59 417.863C1155.19 417.863 1180.09 428.196 1191.09 433.363C1185.89 468.163 1168.26 489.53 1160.09 495.863C1157.26 494.03 1150.7 490.172 1147.5 489.372C1145.92 511.833 1173.79 527.576 1187.09 541.863C1200.59 556.363 1219.59 566.363 1235.59 572.363C1251.59 578.363 1254.59 580.363 1262.59 581.363C1279.59 575.726 1283.09 591.863 1287.09 604C1291.09 616.137 1267.09 680 1269.59 666C1271.59 654.8 1262.76 632.242 1258.09 622.363C1246.09 595.863 1230.09 603.863 1202.59 591.863C1175.09 579.863 1139.59 558.363 1111.59 531.863C1083.59 505.363 1076.59 480.863 1080.59 458.363C1084.59 435.863 1100.09 430.363 1109.09 425.863C1118.09 421.363 1129.09 417.863 1143.59 417.863Z" fill="#F2EAD5"/>
<path d="M1149.09 479.863C1148.29 481.463 1147.76 486.196 1147.59 488.363C1145.09 511.363 1173.59 527.363 1187.09 541.863C1200.59 556.363 1219.59 566.363 1235.59 572.363C1251.59 578.363 1254.59 580.363 1262.59 581.363C1279.59 575.726 1283.09 591.863 1287.09 604C1291.09 616.137 1267.09 680 1269.59 666C1271.59 654.8 1262.76 632.242 1258.09 622.363C1246.09 595.863 1230.09 603.863 1202.59 591.863C1175.09 579.863 1139.59 558.363 1111.59 531.863C1083.59 505.363 1076.59 480.863 1080.59 458.363C1084.59 435.863 1100.09 430.363 1109.09 425.863C1118.09 421.363 1129.09 417.863 1143.59 417.863C1155.19 417.863 1180.09 428.196 1191.09 433.363C1185.89 468.163 1168.26 489.53 1160.09 495.863C1157.26 494.03 1150.7 490.172 1147.5 489.372" stroke="black" stroke-width="2" stroke-linecap="round"/>
<path d="M1065.59 548.363C1068.39 544.363 1079.76 534.696 1085.09 530.363C1086.09 530.03 1088.89 529.463 1092.09 529.863C1096.09 530.363 1107.59 546.363 1110.09 555.363C1112.59 564.363 1110.59 575.863 1109.09 577.863C1107.89 579.463 1088.68 589.863 1079.23 594.863C1055.09 618.363 1034.26 659.275 1017.59 678.454C1016.18 677.526 1014.22 676.714 1011.59 676.363C1004.09 675.363 998.091 675.363 985.091 682.863C974.691 688.863 963.091 687.696 958.591 686.363C954.757 685.196 949.091 682.863 957.091 682.863C958.865 682.863 960.782 682.501 962.784 681.863C972.064 678.907 983.188 670.032 990.591 663.863C999.591 656.363 1062.09 553.363 1065.59 548.363Z" fill="#F2EAD5"/>
<path d="M1089.09 583.863C1086.59 587.363 1084.59 588.863 1079.23 594.863M1079.23 594.863C1055.09 618.363 1034.26 659.275 1017.59 678.454C1016.18 677.526 1014.22 676.714 1011.59 676.363C1004.09 675.363 998.091 675.363 985.091 682.863C974.691 688.863 963.091 687.696 958.591 686.363C954.757 685.196 949.091 682.863 957.091 682.863C958.865 682.863 960.782 682.501 962.784 681.863C972.064 678.907 983.188 670.032 990.591 663.863C999.591 656.363 1062.09 553.363 1065.59 548.363C1068.39 544.363 1079.76 534.696 1085.09 530.363C1086.09 530.03 1088.89 529.463 1092.09 529.863C1096.09 530.363 1107.59 546.363 1110.09 555.363C1112.59 564.363 1110.59 575.863 1109.09 577.863C1107.89 579.463 1088.68 589.863 1079.23 594.863Z" stroke="black" stroke-linecap="round"/>
<path d="M704.253 433.93C704.001 434.014 703.796 434.194 703.682 434.434C703.569 434.674 703.558 434.954 703.65 435.209C703.741 435.465 703.928 435.674 704.168 435.787C704.408 435.9 704.681 435.908 704.929 435.813C704.929 435.813 704.929 435.813 704.929 435.813C705.351 435.65 705.782 435.48 706.218 435.304C713.793 432.038 721.643 428.835 727.581 422.733C727.884 422.369 728.171 421.977 728.41 421.568C728.459 421.484 728.473 421.383 728.449 421.288C728.425 421.192 728.366 421.11 728.283 421.059C728.2 421.008 728.1 420.992 728.004 421.014C727.908 421.036 727.824 421.093 727.771 421.175C727.771 421.175 727.771 421.175 727.771 421.175C727.542 421.529 727.264 421.876 726.968 422.201C721.103 427.723 713.097 430.648 705.535 433.491C705.1 433.644 704.671 433.791 704.253 433.93Z" fill="black"/>
<path d="M714.591 349.372C713.257 344.372 710.491 332.872 710.091 326.872C709.763 321.95 706.496 311.533 704.045 304.452C697.208 312.116 684.524 309.925 679.037 307.872C677.289 320.652 677.005 341.425 683.591 365.372C689.228 385.872 694.472 406.766 699.591 423.545C718.391 419.683 723.907 413.82 724.315 411.372C721.891 407.572 720.091 403.772 721.091 398.372C723.091 387.572 717.591 361.205 714.591 349.372Z" fill="#D9D9D9"/>
<path d="M711.591 216.871L713.091 237.871C709.757 243.371 700.591 249.871 680.591 237.871C677.162 235.814 674.262 233.806 671.818 231.871C660.008 222.524 658.848 214.909 660.091 211.871C664.823 213.983 672.349 216.654 680.591 218.36C682.397 218.733 684.237 219.061 686.091 219.326C688.419 219.658 690.766 219.893 693.091 219.996C695.291 220.095 697.47 220.076 699.591 219.914C700.605 219.836 701.607 219.726 702.591 219.58C705.824 219.099 708.872 218.231 711.591 216.871Z" fill="white"/>
<path d="M702.591 219.58C705.824 219.099 708.872 218.231 711.591 216.871L713.091 237.871C709.757 243.371 700.591 249.871 680.591 237.871C677.162 235.814 674.262 233.806 671.818 231.871M702.591 219.58L709.091 242.067M702.591 219.58C701.607 219.726 700.605 219.836 699.591 219.914M699.591 219.914L701.091 242.067M699.591 219.914C697.47 220.076 695.291 220.095 693.091 219.996M693.091 219.996L692.591 241.371M693.091 219.996C690.766 219.893 688.419 219.658 686.091 219.326M686.091 219.326L683.091 236.371M686.091 219.326C684.237 219.061 682.397 218.733 680.591 218.36M680.591 218.36C672.349 216.654 664.823 213.983 660.091 211.871C658.848 214.909 660.008 222.524 671.818 231.871M680.591 218.36L671.818 231.871" stroke="black"/>
<path d="M713.388 216.921C709.124 220.225 699.815 224.273 686.091 221.871C670.091 219.071 665.757 216.371 665.591 215.371C665.091 218.871 666.591 227.071 676.591 231.871C688.78 237.722 701.92 243.098 716.011 235.943C716.573 235.658 717.268 235.928 717.431 236.537C719.471 244.16 719.523 257.492 705.091 257.871C702.343 257.944 699.783 257.974 697.415 257.971C696.473 258.771 694.591 262.271 694.591 269.871C694.591 273.773 695.087 278.543 695.697 282.871C702.162 279.538 719.591 273.071 737.591 273.871C760.091 274.871 766.591 273.871 784.591 264.371C802.591 254.871 839.091 175.371 872.091 161.371C905.091 147.371 918.591 154.371 925.591 155.871C932.591 157.371 945.091 165.371 950.591 170.871C954.991 175.271 953.091 187.038 951.591 192.371C951.091 193.205 949.114 195.395 947.591 193.871C946.091 192.371 946.591 190.371 947.091 180.871C947.15 179.743 946.37 177.748 946.091 176.871C944.487 171.844 923.091 165.871 910.091 166.871C906.091 167.271 906.091 171.038 906.591 172.871C907.091 178.371 921.091 189.371 925.591 191.871C929.191 193.871 939.424 198.371 944.091 200.371C944.537 201.712 944.346 204.489 940.591 205.921C937.591 210.471 917.091 218.871 910.091 217.371C904.491 216.171 910.424 212.61 914.091 210.979C912.027 211.65 908.839 212.151 904.091 211.871C897.291 211.471 901.134 205.033 903.301 203.714C898.501 203.187 897.467 199.983 898.301 197.149C897.801 197.483 896.991 196.271 896.591 193.871C896.191 191.471 904.091 190.755 908.091 190.696C899.88 186.809 889.304 184.684 877.591 188.372C850.591 196.872 832.591 279.871 803.591 296.371C790.837 303.628 774.096 305.752 762.591 305.871C760.361 306.175 753.842 312.454 749.591 323.371C746.85 330.41 742.943 339.916 740.591 353.871C734.591 389.471 757.091 416.705 769.091 425.871C770.591 427.538 772.191 430.771 766.591 430.371C759.591 429.871 757.591 432.371 748.091 437.371C740.491 441.371 734.257 436.705 732.091 433.871C732.991 422.771 727.951 417.071 724.315 411.371C723.907 413.82 718.391 419.683 699.591 423.545C704.46 439.504 709.216 451.74 714.091 456.371C711.983 456.538 706.731 457.571 702.591 460.371C697.896 463.546 675.8 486.057 671.734 508.871L674.591 521.371C673.076 520.804 672.174 519.84 671.661 518.841C648.69 497.971 638.071 463.732 637.591 460.371C637.091 456.871 630.591 404.371 630.591 400.871C630.591 397.371 625.591 355.371 623.091 353.871C621.091 352.671 613.257 358.371 609.591 361.371C582.091 379.371 566.091 405.371 567.091 411.371C567.891 416.171 561.424 465.705 558.091 489.871H556.091C556.416 487.918 555.681 484.479 552.091 481.904C551.757 482.364 550.991 485.302 550.591 493.371C550.091 503.458 553.591 504.371 556.591 506.371C559.532 508.333 570.591 505.871 573.591 506.371C576.591 506.871 578.091 506.871 575.091 513.371C572.091 519.871 562.091 518.871 560.091 519.871C558.091 520.871 555.091 525.871 562.091 528.371C567.691 530.371 573.091 538.871 575.091 542.871C576.091 545.205 577.191 549.771 573.591 549.371C569.091 548.871 561.591 532.371 557.091 534.371C552.591 536.371 568.591 554.871 568.591 556.371C568.591 557.871 568.091 563.371 560.591 560.371C553.091 557.371 550.091 534.871 548.591 543.371C547.091 551.871 554.091 560.871 555.091 563.871C556.091 566.871 554.091 570.871 547.591 566.871C541.091 562.871 538.091 533.871 538.091 532.371C538.091 530.871 536.591 530.371 535.591 532.371C534.591 534.371 536.591 554.871 536.591 555.871C536.591 556.871 541.091 568.371 542.091 569.371C543.091 570.371 544.091 578.371 542.091 580.371C540.091 582.371 532.591 573.371 530.591 570.871C528.591 568.371 528.591 564.371 528.591 562.871C528.591 561.671 529.591 509.314 530.091 483.285C524.924 486.403 520.411 490.5 519.591 493.371C521.091 470.871 525.291 420.371 530.091 398.371C536.091 370.871 551.091 341.371 574.091 319.371C597.091 297.371 612.591 291.371 615.591 290.371C618.591 289.371 621.591 292.871 623.091 290.371C624.291 288.371 632.924 282.871 637.091 280.371C642.091 266.538 649.927 238.871 644.591 238.871C637.591 238.871 626.591 217.371 624.091 212.371C621.591 207.371 623.091 201.871 629.591 197.872C634.791 194.672 639.424 197.538 641.091 199.371C646.691 195.371 636.757 173.705 631.091 163.371C630.257 159.038 629.891 148.871 635.091 142.871C638.706 138.701 643.979 136.382 648.091 135.244L650.591 139.371C654.257 143.682 661.691 150.471 672.091 150.871C682.491 151.271 692.424 141.584 695.591 136.94C701.434 137.969 705.1 141.595 709.091 145.872C716.091 153.372 715.091 181.372 714.091 190.872C713.395 197.478 714.161 207.333 714.811 213.082C714.975 214.538 714.546 216.024 713.388 216.921Z" fill="#F2EAD5"/>
<path d="M677.591 256.871C679.912 257.281 686.685 257.959 697.415 257.971M677.591 139.872C685.543 136.863 691.186 136.163 695.591 136.94M695.591 136.94C701.434 137.969 705.1 141.595 709.091 145.872C716.091 153.372 715.091 181.372 714.091 190.872C713.395 197.478 714.161 207.333 714.811 213.082C714.975 214.538 714.546 216.024 713.388 216.921C709.124 220.225 699.815 224.273 686.091 221.871C670.091 219.071 665.757 216.371 665.591 215.371C665.091 218.871 666.591 227.071 676.591 231.871C688.78 237.722 701.92 243.098 716.011 235.943C716.573 235.658 717.268 235.928 717.431 236.537C719.471 244.16 719.523 257.492 705.091 257.871C702.343 257.944 699.783 257.974 697.415 257.971M695.591 136.94C692.424 141.584 682.491 151.271 672.091 150.871C661.691 150.471 654.257 143.682 650.591 139.371L648.091 135.244M652.591 134.371C651.473 134.473 649.894 134.745 648.091 135.244M637.091 280.371C642.091 266.538 649.927 238.871 644.591 238.871C637.591 238.871 626.591 217.371 624.091 212.371C621.591 207.371 623.091 201.871 629.591 197.872C634.791 194.672 639.424 197.538 641.091 199.371C646.691 195.371 636.757 173.705 631.091 163.371C630.257 159.038 629.891 148.871 635.091 142.871C638.706 138.701 643.979 136.382 648.091 135.244M637.091 280.371C640.091 279.871 647.091 279.671 651.091 282.871C656.091 286.871 669.091 300.871 675.091 300.371C675.167 300.365 675.243 300.358 675.318 300.351C676.46 300.246 679.794 303.187 679.593 304.317C679.397 305.42 679.21 306.607 679.037 307.871M637.091 280.371C632.924 282.871 624.291 288.371 623.091 290.371C621.591 292.871 618.591 289.371 615.591 290.371C612.591 291.371 597.091 297.371 574.091 319.371C551.091 341.371 536.091 370.871 530.091 398.371C525.291 420.371 521.091 470.871 519.591 493.371M697.415 257.971C696.473 258.771 694.591 262.271 694.591 269.871C694.591 273.773 695.087 278.543 695.697 282.871M697.415 292.871C696.957 290.681 696.275 286.975 695.697 282.871M695.697 282.871C702.328 281.705 715.291 281.271 714.091 288.871C712.891 296.471 705.924 299.705 702.591 300.371C703.01 301.51 703.508 302.901 704.045 304.452M695.697 282.871C702.162 279.538 719.591 273.071 737.591 273.871C760.091 274.871 766.591 273.871 784.591 264.371C802.591 254.871 839.091 175.371 872.091 161.371C905.091 147.371 918.591 154.371 925.591 155.871C932.591 157.371 945.091 165.371 950.591 170.871C954.991 175.271 953.091 187.038 951.591 192.371C951.091 193.205 949.114 195.395 947.591 193.871C946.091 192.371 946.591 190.371 947.091 180.871C947.15 179.743 946.37 177.748 946.091 176.871C944.487 171.844 923.091 165.871 910.091 166.871C906.091 167.271 906.091 171.038 906.591 172.871C907.091 178.371 921.091 189.371 925.591 191.871C929.191 193.871 939.424 198.371 944.091 200.371C944.537 201.712 944.346 204.489 940.591 205.921M762.591 305.871C760.361 306.175 753.842 312.454 749.591 323.371C746.85 330.41 742.943 339.916 740.591 353.871C734.591 389.471 757.091 416.705 769.091 425.871C770.591 427.538 772.191 430.771 766.591 430.371C759.591 429.871 757.591 432.371 748.091 437.371C740.491 441.371 734.257 436.705 732.091 433.871C732.991 422.771 727.951 417.071 724.315 411.371M762.591 305.871C753.167 305.969 748.243 304.797 743.591 303.371M762.591 305.871C774.096 305.752 790.837 303.628 803.591 296.371C832.591 279.871 850.591 196.872 877.591 188.372C889.304 184.684 899.88 186.809 908.091 190.696M908.091 190.696C915.022 193.978 920.268 198.515 923.091 201.871C926.257 203.871 933.891 207.571 939.091 206.371C939.645 206.244 940.143 206.092 940.591 205.921M908.091 190.696C904.091 190.755 896.191 191.471 896.591 193.871C896.991 196.271 897.801 197.483 898.301 197.149M898.301 197.149C899.801 196.149 905.591 195.705 908.091 196.871M898.301 197.149C897.467 199.983 898.501 203.187 903.301 203.714M903.301 203.714C908.101 204.241 910.924 203.311 911.591 202.871M903.301 203.714C901.134 205.033 897.291 211.471 904.091 211.871C908.839 212.151 912.027 211.65 914.091 210.979M920.591 208.371C920.149 208.813 915.721 210.449 914.091 210.979M914.091 210.979C910.424 212.61 904.491 216.171 910.091 217.371C917.091 218.871 937.591 210.471 940.591 205.921M738.591 400.871C739.924 401.205 743.491 401.171 747.091 398.371M674.591 521.371C671.391 520.171 670.924 517.205 671.091 515.871C671.091 513.549 671.318 511.208 671.734 508.871M674.591 521.371L671.734 508.871M674.591 521.371C649.591 500.871 638.091 463.871 637.591 460.371C637.091 456.871 630.591 404.371 630.591 400.871C630.591 397.371 625.591 355.371 623.091 353.871C621.091 352.671 613.257 358.371 609.591 361.371C582.091 379.371 566.091 405.371 567.091 411.371C567.891 416.171 561.424 465.705 558.091 489.871H556.091C556.416 487.918 555.681 484.479 552.091 481.904M671.734 508.871C675.8 486.057 697.896 463.546 702.591 460.371C706.731 457.571 711.983 456.538 714.091 456.371C709.216 451.74 704.46 439.504 699.591 423.545M679.037 307.871C677.289 320.652 677.005 341.425 683.591 365.371C689.228 385.872 694.472 406.766 699.591 423.545M679.037 307.871C684.524 309.925 697.208 312.116 704.045 304.452M704.045 304.452C706.496 311.533 709.763 321.95 710.091 326.871C710.491 332.871 713.257 344.371 714.591 349.371C717.591 361.205 723.091 387.571 721.091 398.371C720.091 403.771 721.891 407.571 724.315 411.371M683.591 175.871C682.091 182.205 682.091 195.171 694.091 196.371C697.746 196.737 699.978 196.691 701.232 196.581C701.909 196.522 702.589 197.066 702.561 197.745C702.332 203.187 700.73 212.004 695.591 212.371C689.991 212.771 686.591 211.205 685.591 210.371M724.315 411.371C723.907 413.82 718.391 419.683 699.591 423.545M519.591 493.371C518.791 496.171 523.591 496.871 526.091 496.871M519.591 493.371C520.411 490.5 524.924 486.403 530.091 483.285M530.091 483.285C534.82 480.43 540.098 478.395 543.591 478.871C547.427 479.395 550.168 480.526 552.091 481.904M530.091 483.285C529.591 509.314 528.591 561.671 528.591 562.871C528.591 564.371 528.591 568.371 530.591 570.871C532.591 573.371 540.091 582.371 542.091 580.371C544.091 578.371 543.091 570.371 542.091 569.371C541.091 568.371 536.591 556.871 536.591 555.871C536.591 554.871 534.591 534.371 535.591 532.371C536.591 530.371 538.091 530.871 538.091 532.371C538.091 533.871 541.091 562.871 547.591 566.871C554.091 570.871 556.091 566.871 555.091 563.871C554.091 560.871 547.091 551.871 548.591 543.371C550.091 534.871 553.091 557.371 560.591 560.371C568.091 563.371 568.591 557.871 568.591 556.371C568.591 554.871 552.591 536.371 557.091 534.371C561.591 532.371 569.091 548.871 573.591 549.371C577.191 549.771 576.091 545.205 575.091 542.871C573.091 538.871 567.691 530.371 562.091 528.371C555.091 525.871 558.091 520.871 560.091 519.871C562.091 518.871 572.091 519.871 575.091 513.371C578.091 506.871 576.591 506.871 573.591 506.371C570.591 505.871 559.532 508.333 556.591 506.371C553.591 504.371 550.091 503.458 550.591 493.371C550.991 485.302 551.757 482.364 552.091 481.904" stroke="black" stroke-linecap="round"/>
<path d="M695.591 137.94C701.434 138.969 705.1 142.595 709.091 146.871C715.277 153.5 712.379 171.641 711.591 183.371C718.979 176.871 735.991 165.071 733.591 151.871C730.591 135.371 719.924 124.871 714.091 121.371C711.947 120.085 691.591 111.371 662.591 122.871L659.091 124.365C656.139 123.149 652.712 122.389 649.091 122.871C648.801 122.91 648.466 122.961 648.091 123.026C647.091 121.808 644.291 119.371 641.091 119.371C637.091 119.371 621.591 119.371 607.591 152.871C593.591 186.371 602.591 212.871 605.591 219.871C608.591 226.871 619.091 237.371 623.091 233.371C626.291 230.171 625.757 227.371 625.091 226.371C622.508 218.871 621.491 203.171 629.591 200.371C634.791 197.171 640.424 198.538 642.091 200.371C645.591 195.871 636.757 174.705 631.091 164.371C630.257 160.038 629.891 149.871 635.091 143.871C638.706 139.701 643.979 137.382 648.091 136.244L650.591 140.371C654.257 144.682 661.691 151.471 672.091 151.871C682.491 152.271 692.424 142.584 695.591 137.94Z" fill="black"/>
<path d="M677.591 140.871C685.543 137.863 691.186 137.163 695.591 137.94M695.591 137.94C701.434 138.969 705.1 142.595 709.091 146.871C715.277 153.5 712.379 171.641 711.591 183.371C718.979 176.871 735.991 165.071 733.591 151.871C730.591 135.371 719.924 124.871 714.091 121.371C711.947 120.085 691.591 111.371 662.591 122.871L659.091 124.365M695.591 137.94C692.424 142.584 682.491 152.271 672.091 151.871C661.691 151.471 654.257 144.682 650.591 140.371L648.091 136.244M652.591 135.371C651.473 135.473 649.894 135.745 648.091 136.244M629.591 200.371C634.791 197.171 640.424 198.538 642.091 200.371C645.591 195.871 636.757 174.705 631.091 164.371C630.257 160.038 629.891 149.871 635.091 143.871C638.706 139.701 643.979 137.382 648.091 136.244M629.591 200.371C628.811 200.851 630.228 199.852 629.591 200.371ZM629.591 200.371C621.491 203.171 622.508 218.871 625.091 226.371C625.757 227.371 626.291 230.171 623.091 233.371C619.091 237.371 608.591 226.871 605.591 219.871C602.591 212.871 593.591 186.371 607.591 152.871C621.591 119.371 637.091 119.371 641.091 119.371C644.291 119.371 647.091 121.808 648.091 123.026M666.591 128.871C664.867 127.492 662.252 125.668 659.091 124.365M615.656 184.871C615.484 180.972 615.447 176.193 615.591 170.371C616.543 131.785 640.525 124.35 648.091 123.026M659.091 124.365C656.139 123.149 652.712 122.389 649.091 122.871C648.801 122.91 648.466 122.961 648.091 123.026" stroke="black" stroke-linecap="round"/>
<path d="M714.091 288.871C714.958 283.378 708.425 282.082 702.233 282.226C701.087 282.253 700.637 280.639 701.706 280.226C710.14 276.967 723.695 273.254 737.591 273.871C760.091 274.871 766.591 273.872 784.591 264.372C802.591 254.872 847.091 162.872 868.091 152.372C870.828 151.003 873.76 153.927 875.386 156.262C875.764 156.805 875.457 157.532 874.819 157.704C871.298 158.65 865.894 160.311 865.147 161.372C865.383 164.763 866.364 168.771 868.091 172.872C872.089 182.369 880.086 196.141 883.088 193.874C883.09 193.872 883.092 193.872 883.094 193.872C883.105 193.872 883.111 193.885 883.101 193.89C865.105 203.468 832.572 279.882 803.591 296.371C790.837 303.628 774.096 305.752 762.591 305.871C760.361 306.175 753.842 312.454 749.591 323.371C746.85 330.41 742.943 339.916 740.591 353.871C734.603 389.401 757.002 416.597 769.019 425.817C769.068 425.855 769.111 425.894 769.152 425.941C770.633 427.626 772.114 430.766 766.591 430.372C759.591 429.872 757.591 432.372 748.091 437.372C740.753 441.233 734.69 437.017 732.33 434.171C732.172 433.981 732.103 433.731 732.12 433.484C732.873 422.638 727.908 417.005 724.315 411.372C723.907 413.82 718.391 419.683 699.591 423.545C703.96 437.866 708.238 449.188 712.593 454.709C713.129 455.388 712.723 456.528 711.873 456.695C709.317 457.198 705.651 458.302 702.591 460.372C697.896 463.546 675.8 486.057 671.734 508.872L674.591 521.372C673.076 520.804 672.174 519.84 671.661 518.841C648.69 497.971 638.071 463.732 637.591 460.372C637.091 456.872 630.591 404.372 630.591 400.872C630.591 397.372 625.591 355.371 623.091 353.871C621.091 352.671 613.257 358.371 609.591 361.371C582.091 379.371 566.091 405.372 567.091 411.372C567.882 416.118 561.569 464.596 558.204 489.047C558.138 489.529 557.728 489.872 557.241 489.872C556.639 489.872 556.18 489.328 556.155 488.727C556.02 485.46 553.341 480.201 543.591 478.872C536.283 477.875 521.162 487.872 519.591 493.372C521.091 470.872 525.291 420.371 530.091 398.371C536.091 370.871 551.091 341.371 574.091 319.371C597.091 297.371 612.591 291.371 615.591 290.371C618.591 289.371 621.591 292.871 623.091 290.371C624.276 288.397 632.708 283.01 636.931 280.467C637.039 280.403 637.152 280.361 637.276 280.342C640.37 279.865 647.171 279.736 651.091 282.871C656.091 286.871 669.091 300.871 675.091 300.371C675.167 300.365 675.243 300.358 675.318 300.352C676.46 300.246 679.794 303.187 679.593 304.317C679.397 305.42 679.21 306.607 679.037 307.871C684.524 309.925 697.208 312.116 704.045 304.452C703.67 303.369 703.314 302.365 702.991 301.47C702.783 300.892 703.134 300.262 703.721 300.083C707.293 298.995 713.014 295.692 714.091 288.871Z" fill="#1EF79A"/>
<path d="M762.591 305.871C760.361 306.175 753.842 312.454 749.591 323.371C746.85 330.41 742.943 339.916 740.591 353.871C734.603 389.401 757.002 416.597 769.019 425.817C769.068 425.855 769.111 425.894 769.152 425.941C770.633 427.626 772.114 430.766 766.591 430.372C759.591 429.872 757.591 432.372 748.091 437.372C740.753 441.233 734.69 437.017 732.33 434.171C732.172 433.981 732.103 433.731 732.12 433.484C732.873 422.638 727.908 417.005 724.315 411.372M762.591 305.871C753.167 305.969 748.243 304.797 743.591 303.371M762.591 305.871C774.096 305.752 790.837 303.628 803.591 296.371C832.572 279.882 865.105 203.468 883.101 193.89C883.111 193.885 883.105 193.872 883.094 193.872C883.092 193.872 883.09 193.872 883.088 193.874C880.086 196.141 872.089 182.369 868.091 172.872C866.364 168.771 865.383 164.763 865.147 161.372M868.091 152.372C847.091 162.872 802.591 254.872 784.591 264.372C766.591 273.872 760.091 274.871 737.591 273.871C723.695 273.254 710.14 276.967 701.706 280.226C700.637 280.639 701.087 282.253 702.233 282.226C708.425 282.082 714.958 283.378 714.091 288.871C713.014 295.692 707.293 298.995 703.721 300.083C703.134 300.262 702.783 300.892 702.991 301.47C703.314 302.365 703.67 303.369 704.045 304.452M868.091 152.372C870.828 151.003 873.76 153.927 875.386 156.262C875.764 156.805 875.457 157.532 874.819 157.704C871.298 158.65 865.894 160.311 865.147 161.372M868.091 152.372C865.817 153.508 864.836 156.906 865.147 161.372M738.591 400.872C739.924 401.205 743.491 401.171 747.091 398.371M674.591 521.372C671.391 520.172 670.924 517.205 671.091 515.872C671.091 513.549 671.318 511.209 671.734 508.872M674.591 521.372L671.734 508.872M674.591 521.372C649.591 500.872 638.091 463.872 637.591 460.372C637.091 456.872 630.591 404.372 630.591 400.872C630.591 397.372 625.591 355.371 623.091 353.871C621.091 352.671 613.257 358.371 609.591 361.371C582.091 379.371 566.091 405.372 567.091 411.372C567.882 416.118 561.569 464.596 558.204 489.046C558.138 489.529 557.728 489.872 557.241 489.872C556.639 489.872 556.18 489.328 556.155 488.727C556.02 485.46 553.341 480.201 543.591 478.872C536.283 477.875 521.162 487.872 519.591 493.372M671.734 508.872C675.8 486.057 697.896 463.546 702.591 460.372C705.651 458.302 709.317 457.198 711.873 456.695C712.723 456.528 713.129 455.388 712.593 454.709C708.238 449.188 703.96 437.866 699.591 423.545M679.037 307.871C679.21 306.607 679.397 305.42 679.593 304.317C679.794 303.187 676.46 300.246 675.318 300.352C675.243 300.358 675.167 300.365 675.091 300.371C669.091 300.871 656.091 286.871 651.091 282.871C647.171 279.736 640.37 279.865 637.276 280.342C637.152 280.361 637.039 280.403 636.931 280.467C632.708 283.01 624.276 288.397 623.091 290.371C621.591 292.871 618.591 289.371 615.591 290.371C612.591 291.371 597.091 297.371 574.091 319.371C551.091 341.371 536.091 370.871 530.091 398.371C525.291 420.371 521.091 470.872 519.591 493.372M679.037 307.871C677.289 320.652 677.005 341.425 683.591 365.371C689.228 385.872 694.472 406.766 699.591 423.545M679.037 307.871C684.524 309.925 697.208 312.116 704.045 304.452M704.045 304.452C706.496 311.533 709.763 321.95 710.091 326.871C710.491 332.871 713.257 344.371 714.591 349.371C717.591 361.205 723.091 387.571 721.091 398.371C720.091 403.771 721.891 407.572 724.315 411.372M724.315 411.372C723.907 413.82 718.391 419.683 699.591 423.545M519.591 493.372C518.791 496.172 523.591 496.872 526.091 496.872M656.591 433.872C663.924 431.82 679.091 426.883 681.091 423.545" stroke="black" stroke-linecap="round" stroke-linejoin="round"/>
<path d="M714.591 349.371C713.257 344.371 710.491 332.871 710.091 326.871C709.787 322.311 706.96 313.032 704.596 306.062C704.351 305.339 703.409 305.148 702.837 305.654C696.297 311.434 685.819 310.058 680.218 308.278C679.607 308.084 678.954 308.475 678.875 309.112C677.278 321.973 677.214 342.185 683.591 365.371C689.131 385.52 694.292 406.048 699.327 422.676C699.476 423.17 699.986 423.464 700.491 423.356C718.242 419.565 723.717 413.986 724.288 411.505C724.309 411.415 724.337 411.326 724.375 411.242C726.987 405.474 720.098 403.731 721.091 398.371C723.091 387.571 717.591 361.205 714.591 349.371Z" fill="#E789FA"/>
<path d="M740.591 353.871C742.943 339.916 746.85 330.41 749.591 323.371M762.591 305.871L743.591 303.371M738.591 400.872C739.924 401.205 743.491 401.171 747.091 398.371M656.591 433.872L681.091 423.545M710.091 326.871C710.491 332.871 713.257 344.371 714.591 349.371C717.591 361.205 723.091 387.571 721.091 398.371C720.098 403.731 726.987 405.474 724.375 411.242C724.337 411.326 724.309 411.415 724.288 411.505C723.717 413.986 718.242 419.565 700.491 423.356C699.986 423.464 699.476 423.17 699.327 422.676C694.292 406.048 689.131 385.52 683.591 365.371C677.214 342.185 677.278 321.973 678.875 309.112C678.954 308.475 679.607 308.084 680.218 308.278C685.819 310.058 696.297 311.434 702.837 305.654C703.409 305.148 704.351 305.339 704.596 306.062C706.96 313.032 709.787 322.311 710.091 326.871Z" stroke="black" stroke-linecap="round" stroke-linejoin="round"/>
<path d="M894.591 129.871C891.591 129.871 888.091 127.989 888.091 132.871C888.091 137.871 919.265 175.972 933.091 195.371C934.091 195.871 936.644 197.223 940.091 198.371C947.591 200.871 943.05 204.371 941.591 205.371C947.105 213.056 949.857 216.409 954.091 221.871L955.091 221.371C955.591 222.271 956.591 223.871 957.091 223.871C957.491 223.871 956.757 221.738 956.091 220.671L956.591 220.371C956.591 216.616 916.37 158.34 897.917 134.132C900.052 133.945 900.987 135.966 901.591 136.871C902.591 138.371 913.61 155.871 914.591 155.371C915.571 154.871 905.091 139.871 902.091 135.371C900.344 132.751 898.315 132.444 896.89 132.792C896.075 131.737 895.306 130.76 894.591 129.871Z" fill="#1DD0F0"/>
<path d="M896.89 132.792C896.357 132.923 895.908 133.145 895.591 133.371C894.591 133.871 895.091 134.371 895.591 134.871C896.514 134.41 897.277 134.188 897.917 134.132M896.89 132.792C898.315 132.444 900.344 132.751 902.091 135.371C905.091 139.871 915.571 154.871 914.591 155.371C913.61 155.871 902.591 138.371 901.591 136.871C900.987 135.966 900.052 133.945 897.917 134.132M896.89 132.792C896.075 131.737 895.306 130.76 894.591 129.871C891.591 129.871 888.091 127.989 888.091 132.871C888.091 137.871 919.265 175.972 933.091 195.371C934.091 195.871 936.644 197.223 940.091 198.371C947.591 200.871 943.05 204.371 941.591 205.371C947.105 213.056 949.857 216.409 954.091 221.871L955.091 221.371M897.917 134.132C916.37 158.34 956.591 216.616 956.591 220.371L956.091 220.671M956.091 220.671C956.757 221.738 957.491 223.871 957.091 223.871C956.591 223.871 955.591 222.271 955.091 221.371M956.091 220.671L955.091 221.371" stroke="black"/>
<path d="M732.33 434.171C734.69 437.017 740.753 441.233 748.091 437.371C757.591 432.371 759.591 429.871 766.591 430.371C767.244 430.418 767.798 430.415 768.267 430.371C769.019 431.828 771.35 434.699 774.781 434.864C774.983 434.874 775.172 434.816 775.339 434.703C785.023 428.155 810.003 415.682 834.591 416.871C865.591 418.371 870.091 433.871 875.591 445.871C881.091 457.871 889.383 474.371 855.737 515.871C851.072 553.915 839.797 606.568 819.591 668.871C818.924 672.371 815.091 679.871 800.091 679.871C784.39 679.871 766.091 666.871 768.091 658.371C769.451 652.588 787.939 607.321 800.091 567.683C782.193 585.422 747.101 619.056 735.293 626.424C734.435 626.96 734.057 626.239 734.72 625.476C738.926 620.644 742.043 611.315 732.091 599.371C723.47 589.027 714.355 583.967 707.591 582.293L698.536 591.871C698.07 592.365 697.264 592.254 697.025 591.618C696.205 589.44 695.632 585.984 697.591 583.371C697.943 582.901 698.483 582.514 699.185 582.226C722.528 565.382 768.645 529.553 778.493 515.871C759.388 524.14 740.831 532.871 730.091 532.871C704.591 532.871 673.281 534.371 673.686 501.371C680.455 481.334 698.413 463.197 702.591 460.371C705.651 458.302 709.317 457.198 711.873 456.695C712.723 456.528 713.129 455.388 712.593 454.709C708.345 449.324 704.17 438.42 699.913 424.597C699.74 424.034 700.098 423.441 700.674 423.317C714.272 420.389 720.612 416.412 723.056 413.614C723.659 412.924 725.238 412.786 725.748 413.547L725.766 413.574C729.099 418.553 732.775 424.044 732.12 433.484C732.103 433.731 732.172 433.981 732.33 434.171Z" fill="#1DD0F0"/>
<path d="M769.091 425.871C770.416 427.344 771.819 430.039 768.267 430.371M671.091 515.871C671.091 513.549 671.318 511.208 671.734 508.871C672.182 506.359 672.848 503.851 673.686 501.371M762.091 460.371C785.591 438.705 836.091 404.671 850.091 441.871C857.768 462.272 859.383 486.136 855.737 515.871M813.591 503.871C805.591 505.371 805.917 504.802 794.091 509.4M673.686 501.371C680.455 481.334 698.413 463.197 702.591 460.371C705.651 458.302 709.317 457.198 711.873 456.695C712.723 456.528 713.129 455.388 712.593 454.709C708.345 449.324 704.17 438.42 699.913 424.597C699.74 424.034 700.098 423.441 700.674 423.317C714.272 420.389 720.612 416.412 723.056 413.614C723.659 412.924 725.238 412.786 725.748 413.547C729.086 418.533 732.777 424.027 732.12 433.484C732.103 433.731 732.172 433.981 732.33 434.171C734.69 437.017 740.753 441.233 748.091 437.371C757.591 432.371 759.591 429.871 766.591 430.371C767.244 430.418 767.798 430.415 768.267 430.371M673.686 501.371C673.281 534.371 704.591 532.871 730.091 532.871C740.831 532.871 759.388 524.14 778.493 515.871M794.091 509.4C800.179 509.802 807.052 513.503 810.146 515.568C810.427 515.755 810.585 516.073 810.571 516.41C810.006 531.026 805.731 549.286 800.091 567.683M794.091 509.4C788.949 511.398 783.701 513.618 778.493 515.871M768.267 430.371C769.019 431.828 771.35 434.699 774.781 434.864C774.983 434.874 775.172 434.816 775.339 434.703C785.023 428.155 810.004 415.682 834.591 416.871C865.591 418.371 870.091 433.871 875.591 445.871C881.091 457.871 889.383 474.371 855.737 515.871M855.737 515.871C851.072 553.915 839.797 606.568 819.591 668.871C818.924 672.371 815.091 679.871 800.091 679.871C784.39 679.871 766.091 666.871 768.091 658.371C769.451 652.588 787.939 607.321 800.091 567.683M800.091 567.683C782.193 585.422 747.101 619.056 735.293 626.424C734.435 626.96 734.057 626.239 734.72 625.476C738.926 620.644 742.043 611.315 732.091 599.371C723.47 589.027 714.355 583.967 707.591 582.293M697.591 583.371C695.632 585.984 696.205 589.44 697.025 591.618C697.264 592.254 698.07 592.365 698.536 591.871L707.591 582.293M697.591 583.371C698.867 581.67 702.585 581.054 707.591 582.293M697.591 583.371C720.359 567.064 768.416 529.871 778.493 515.871M704.591 434.871C711.091 432.538 724.891 426.571 728.091 421.371" stroke="black" stroke-linecap="round" stroke-linejoin="round"/>
<path d="M732.091 599.371C735.059 602.933 735.62 604.488 736.435 607.328C736.532 607.665 736.45 608.028 736.193 608.266C733.296 610.953 725.133 615.3 719.653 618.831C719.611 618.858 719.568 618.881 719.523 618.902C713.883 621.496 708.818 631.123 715.591 643.871C722.391 656.671 709.757 646.871 702.591 640.371C687.933 630.396 666.274 608.278 696.581 599.435C696.72 599.395 696.858 599.322 696.968 599.228L713.153 585.25C713.424 585.016 713.799 584.942 714.133 585.07C721.935 588.033 729.322 595.788 732.091 599.371Z" fill="#F2EAD5"/>
<path d="M777.33 672.225C783.63 676.579 792.189 679.871 800.091 679.871C803.807 679.871 806.838 679.411 809.305 678.665C810.074 678.433 810.878 679.107 810.769 679.903C810.381 682.742 810.142 687.261 811.091 691.371C812.243 696.364 815.638 699.297 817.382 700.261C817.519 700.337 817.639 700.437 817.733 700.562L835.155 723.944C835.686 724.657 835.095 725.664 834.213 725.551C826.306 724.537 811.81 723.152 802.091 723.871C788.591 724.871 762.591 702.871 763.091 696.871C763.484 692.146 770.172 683.804 773.622 680.047C773.73 679.929 773.806 679.791 773.849 679.637L775.752 672.78C775.941 672.102 776.752 671.825 777.33 672.225Z" fill="#F2EAD5"/>
<path d="M732.091 599.371C735.059 602.933 735.62 604.488 736.435 607.328C736.532 607.665 736.45 608.028 736.193 608.266C733.296 610.953 725.133 615.3 719.653 618.831C719.611 618.858 719.568 618.881 719.523 618.902C713.883 621.496 708.818 631.123 715.591 643.871C722.391 656.671 709.757 646.871 702.591 640.371C687.933 630.396 666.274 608.278 696.581 599.435C696.72 599.395 696.858 599.322 696.968 599.228L713.153 585.25C713.424 585.016 713.799 584.942 714.133 585.07C721.935 588.033 729.322 595.788 732.091 599.371Z" stroke="black" stroke-linecap="round" stroke-linejoin="round"/>
<path d="M777.33 672.225C783.63 676.579 792.189 679.871 800.091 679.871C803.807 679.871 806.838 679.411 809.305 678.665C810.074 678.433 810.878 679.107 810.769 679.903C810.381 682.742 810.142 687.261 811.091 691.371C812.243 696.364 815.638 699.297 817.382 700.261C817.519 700.337 817.639 700.437 817.733 700.562L835.155 723.944C835.686 724.657 835.095 725.664 834.213 725.551C826.306 724.537 811.81 723.152 802.091 723.871C788.591 724.871 762.591 702.871 763.091 696.871C763.484 692.146 770.172 683.804 773.622 680.047C773.73 679.929 773.806 679.791 773.849 679.637L775.752 672.78C775.941 672.102 776.752 671.825 777.33 672.225Z" stroke="black" stroke-linecap="round" stroke-linejoin="round"/>
<path d="M760.091 694.371C760.091 691.89 765 686.243 767.827 683.909C768.473 683.375 768.716 683.748 768.155 684.371C765.247 687.595 761.412 692.958 762.091 696.765C768.878 702.083 792.031 712.711 817.504 717.371C812.199 715.371 801.291 709.971 800.091 704.371C798.591 697.371 814.591 688.034 815.591 686.371C816.376 685.066 822.038 689.045 824.927 691.317C825.036 691.403 825.16 691.464 825.295 691.499C829.913 692.696 834.757 693.732 838.091 694.371C843.885 696.134 848.847 697.856 853.091 699.522C863.424 701.305 885.397 708.673 882.091 722.371C878.591 736.871 873.091 740.371 838.591 740.371C812.091 737.871 796.541 733.907 789.091 731.583C789.091 731.583 758.665 726.319 754.695 714.7C754.623 714.487 754.637 714.262 754.7 714.047C755.633 710.847 756.239 697.742 760.091 694.371Z" fill="#FFD412"/>
<path d="M760.091 694.371C760.091 691.89 765 686.243 767.827 683.909C768.473 683.375 768.716 683.748 768.155 684.371C765.247 687.595 761.412 692.958 762.091 696.765M760.091 694.371C756.239 697.742 755.633 710.847 754.7 714.047C754.637 714.262 754.623 714.487 754.695 714.7C758.665 726.319 789.091 731.583 789.091 731.583C796.541 733.907 812.091 737.871 838.591 740.371C873.091 740.371 878.591 736.871 882.091 722.371C885.397 708.673 863.424 701.305 853.091 699.522M760.091 694.371C760.091 694.921 760.79 695.746 762.091 696.765M853.091 699.522C874.115 707.781 872.461 713.632 870.591 717.371C868.091 722.371 859.591 721.212 833.091 719.371C827.878 719.009 822.643 718.312 817.504 717.371M853.091 699.522C848.847 697.856 843.885 696.134 838.091 694.371C834.757 693.732 829.913 692.696 825.295 691.499C825.16 691.464 825.036 691.403 824.927 691.317C822.038 689.045 816.376 685.066 815.591 686.371C814.591 688.034 798.591 697.371 800.091 704.371C801.291 709.971 812.199 715.371 817.504 717.371M817.504 717.371C792.031 712.711 768.878 702.083 762.091 696.765" stroke="black" stroke-width="2"/>
<path d="M838.591 740.372C873.091 740.372 878.591 736.872 882.091 722.371C879.591 746.87 857.091 743 849.091 743C835.289 743 807.319 737.759 790.313 733.834C789.685 733.69 789.091 734.167 789.091 734.812V735.663C789.091 736.29 788.524 736.764 787.908 736.641C777.074 734.48 757.247 729.268 756.091 723.871L755.327 719.036C755.159 717.969 755.344 717.841 756.079 718.633C761.468 724.439 779.135 729.473 789.091 731.583C796.541 733.907 812.091 737.872 838.591 740.372Z" fill="#9946F7" stroke="black"/>
<path fill-rule="evenodd" clip-rule="evenodd" d="M819.967 720.34L827.14 722.133C827.74 722.283 828.37 722.153 828.852 721.766C833.865 717.738 845.497 707.482 847.831 695.954C848.017 695.035 847.462 694.147 846.579 693.832L839.433 691.282C838.23 690.853 836.895 691.643 836.47 692.848C834.459 698.542 828.026 708.59 819.113 716.758C817.898 717.871 818.369 719.941 819.967 720.34ZM829.091 712.371C831.591 709.871 836.924 702.371 839.591 698.371C840.264 697.371 838.091 705.871 836.591 708.371C835.521 710.154 830.398 713.659 827.173 715.698C826.515 716.114 825.949 715.879 826.417 715.256C826.912 714.596 827.813 713.649 829.091 712.371Z" fill="#FFD412"/>
<path d="M827.14 722.133L819.967 720.34M827.14 722.133C827.74 722.283 828.37 722.153 828.852 721.766M827.14 722.133C827.735 722.282 828.374 722.15 828.852 721.766M819.967 720.34C818.369 719.941 817.898 717.871 819.113 716.758M819.967 720.34C818.369 719.941 817.898 717.871 819.113 716.758M819.113 716.758C828.026 708.59 834.459 698.542 836.47 692.848M836.47 692.848C836.895 691.643 838.23 690.853 839.433 691.282M836.47 692.848C836.895 691.644 838.231 690.853 839.433 691.282M839.433 691.282L846.579 693.832M846.579 693.832C847.462 694.147 848.017 695.035 847.831 695.954M846.579 693.832C847.462 694.147 848.017 695.036 847.831 695.954M847.831 695.954C845.497 707.482 833.865 717.738 828.852 721.766M839.591 698.371C836.924 702.371 831.591 709.871 829.091 712.371C827.813 713.649 826.912 714.596 826.417 715.256C825.949 715.879 826.515 716.114 827.173 715.698C830.398 713.659 835.521 710.154 836.591 708.371C838.091 705.871 840.264 697.371 839.591 698.371Z" stroke="black"/>
<path d="M868.091 152.371C871.291 150.771 874.757 155.038 876.091 157.371C872.795 158.205 865.991 160.171 865.147 161.371C864.836 156.906 865.817 153.508 868.091 152.371Z" fill="black" stroke="black" stroke-linecap="round"/>
<path d="M692.286 152.051C692.156 152.265 692.026 152.478 691.895 152.691C692.019 152.865 692.156 153.037 692.291 153.2C692.835 153.854 693.44 154.401 694.111 154.845C696.42 156.424 698.983 157.825 700.943 159.594C701.066 159.724 701.172 159.858 701.227 159.962C701.469 159.902 701.712 159.841 701.955 159.781C701.905 159.49 701.801 159.28 701.688 159.069C699.96 156.462 697.588 154.813 695.215 153.178C694.529 152.724 693.763 152.389 692.926 152.182C692.717 152.13 692.499 152.084 692.286 152.051Z" fill="black"/>
<path d="M693.091 175.871C690.489 177.028 690.516 181.214 691.172 184.768C691.618 187.185 693.013 189.463 695.449 189.787C698.237 190.157 702.008 189.684 705.058 189.075C707.081 188.671 708.389 187.371 708.068 185.333C707.866 184.051 707.539 182.282 707.091 179.871C706.091 174.5 697.591 173.871 693.091 175.871Z" fill="white"/>
<path d="M672.091 192.871C673.112 191.85 672.49 188.519 671.473 185.592C670.502 182.797 668.061 181.077 665.114 181.336C662.532 181.562 659.349 182.075 656.714 182.586C654.314 183.051 652.028 184.277 651.539 186.672C650.741 190.58 651.489 196.431 655.091 197.871C657.591 198.871 670.091 194.871 672.091 192.871Z" fill="white"/>
<path d="M693.091 175.871C690.489 177.028 690.516 181.214 691.172 184.768C691.618 187.185 693.013 189.463 695.449 189.787C698.237 190.157 702.008 189.684 705.058 189.075C707.081 188.671 708.389 187.371 708.068 185.333C707.866 184.051 707.539 182.282 707.091 179.871C706.091 174.5 697.591 173.871 693.091 175.871Z" stroke="black"/>
<path d="M672.091 192.871C673.112 191.85 672.49 188.519 671.473 185.592C670.502 182.797 668.061 181.077 665.114 181.336C662.532 181.562 659.349 182.075 656.714 182.586C654.314 183.051 652.028 184.277 651.539 186.672C650.741 190.58 651.489 196.431 655.091 197.871C657.591 198.871 670.091 194.871 672.091 192.871Z" stroke="black"/>
<path d="M659.591 190.284C658.791 186.213 661.924 184.065 663.591 183.5C666.091 183.5 667.591 184.631 668.591 189.718C669.391 193.789 666.257 195.183 664.591 195.371C663.257 195.371 660.391 194.354 659.591 190.284Z" fill="black"/>
<path d="M696.552 183.175C695.905 179.246 698.681 177.346 700.507 176.906C703.202 177.056 704.23 178.735 705.039 183.646C705.686 187.575 702.764 188.205 700.957 188.285C699.52 188.206 697.199 187.104 696.552 183.175Z" fill="black"/>
<path d="M659.591 190.284C658.791 186.213 661.924 184.065 663.591 183.5C666.091 183.5 667.591 184.631 668.591 189.718C669.391 193.789 666.257 195.183 664.591 195.371C663.257 195.371 660.391 194.354 659.591 190.284Z" stroke="black"/>
<path d="M696.552 183.175C695.905 179.246 698.681 177.346 700.507 176.906C703.202 177.056 704.23 178.735 705.039 183.646C705.686 187.575 702.764 188.205 700.957 188.285C699.52 188.206 697.199 187.104 696.552 183.175Z" stroke="black"/>
<path d="M662.088 158.275C662.004 158.04 661.92 157.804 661.837 157.569C661.555 157.58 661.264 157.606 660.98 157.64C659.848 157.774 658.761 158.06 657.73 158.488C654.186 160.06 650.502 161.625 647.805 164.838C647.636 165.084 647.472 165.367 647.373 165.677C647.604 165.773 647.835 165.869 648.066 165.965C648.173 165.777 648.335 165.586 648.508 165.417C651.284 163.133 655.048 161.849 658.499 160.335C659.505 159.916 660.467 159.394 661.396 158.766C661.63 158.608 661.865 158.443 662.088 158.275Z" fill="black"/>
<path d="M666.943 617.513L670.85 615.001C671.333 614.691 671.977 614.849 672.26 615.348L686.021 639.554C686.278 640.006 686.146 640.58 685.716 640.874L681.584 643.701C681.393 643.832 681.16 643.901 680.944 643.816C678.743 642.949 673.947 636.215 673.947 636.215C662.796 620.654 664.983 618.843 666.943 617.513Z" fill="#9946F7" stroke="black"/>
<path d="M711.013 671.371C711.013 671.871 723.588 682.369 727.589 679.372C727.59 679.372 727.591 679.371 727.592 679.371C727.603 679.367 727.611 679.381 727.602 679.388C724.244 682.161 716.937 682.534 705.091 669.371C687.091 649.371 681.091 631.871 680.091 631.871C679.268 631.871 669.316 623.756 669.143 617.814C669.113 616.783 670.251 617.182 670.576 618.161C672.395 623.651 681.76 628.48 687.091 640.371C693.591 654.871 711.013 670.871 711.013 671.371Z" fill="#9946F7" stroke="black"/>
<path d="M689.091 599.371C689.091 602.371 696.591 620.871 705.091 631.871C707.136 634.518 708.978 637.54 710.638 640.66C709.549 638.409 708.415 634.379 710.591 631.871C712.064 630.173 714.085 629.37 715.816 629.038C716.737 628.861 717.696 630.467 717.498 631.384C716.879 634.239 716.743 638.634 717.091 640.371C717.591 642.871 729.591 665.871 729.591 669.371C730.257 671.705 730.791 676.971 727.591 679.371C723.591 682.371 711.013 671.871 711.013 671.371C711.013 670.871 693.591 654.871 687.091 640.371C680.591 625.871 668.091 621.871 670.591 614.371C673.091 606.871 675.591 604.985 689.591 598.178C689.283 598.356 689.091 598.727 689.091 599.371Z" fill="#FFD412"/>
<path d="M693.091 599.371C692.116 598.64 690.428 597.695 689.591 598.178M729.591 669.371C729.591 672.871 724.591 668.371 721.591 664.371C719.367 661.407 716.045 651.025 711.013 641.371M729.591 669.371C729.591 665.871 717.591 642.871 717.091 640.371C716.743 638.634 716.879 634.239 717.498 631.384C717.696 630.467 716.737 628.861 715.816 629.038C714.085 629.37 712.064 630.173 710.591 631.871C708.161 634.671 709.86 639.371 711.013 641.371M729.591 669.371C730.257 671.705 730.791 676.971 727.591 679.371C723.591 682.371 711.013 671.871 711.013 671.371C711.013 670.871 693.591 654.871 687.091 640.371C680.591 625.871 668.091 621.871 670.591 614.371C673.091 606.871 675.591 604.985 689.591 598.178M711.013 641.371C709.256 638.001 707.291 634.718 705.091 631.871C696.591 620.871 689.091 602.371 689.091 599.371C689.091 598.727 689.283 598.356 689.591 598.178" stroke="black"/>
<path d="M711.79 647.77L709.814 643.819C709.482 643.154 709.967 642.362 710.704 642.267C713.261 641.938 715.386 640.886 716.771 639.938C717.4 639.507 718.348 639.772 718.558 640.506L719.954 645.394C720.04 645.695 719.987 646.026 719.75 646.23C718.342 647.445 714.895 648.081 712.76 648.309C712.356 648.353 711.972 648.134 711.79 647.77Z" fill="#FFD412" stroke="black"/>
<path d="M566.661 501.529C566.455 501.789 566.334 502.114 566.342 502.45C566.349 502.785 566.482 503.102 566.716 503.334C566.949 503.567 567.266 503.698 567.602 503.704C567.938 503.711 568.262 503.588 568.521 503.382C568.521 503.382 568.521 503.382 568.521 503.382C569.543 502.561 570.572 501.692 571.545 500.67C572.646 499.411 574.004 498.124 574.233 495.447C574.326 494.1 573.58 492.542 572.672 491.711C571.771 490.838 570.821 490.356 569.941 489.976C569.878 489.948 569.678 489.902 569.612 489.883C561.032 487.432 551.675 487.26 542.883 489.674C535.773 491.678 528.737 495.237 523.891 501.539C522.433 503.533 521.051 505.591 520.056 508.145C519.59 509.428 519.143 510.885 519.394 512.686C519.595 514.544 521.191 516.192 522.552 516.715C523.284 517.043 523.989 517.222 524.669 517.349C525.62 517.521 526.287 517.471 527.019 517.444C527.349 517.425 527.672 517.299 527.918 517.07C528.163 516.84 528.311 516.53 528.329 516.202C528.347 515.873 528.234 515.549 528.015 515.294C527.796 515.039 527.489 514.879 527.163 514.823C527.163 514.823 527.163 514.823 527.163 514.823C526.552 514.714 525.864 514.57 525.513 514.396C525.013 514.186 524.56 513.946 524.213 513.684C521.984 512.516 525.421 508.224 528.291 505.206C532.513 500.898 538.578 498.14 544.741 496.423C552.369 494.336 560.495 493.828 568.57 494.862L568.241 494.77C568.798 494.903 569.282 495.098 569.53 495.241C569.779 495.407 569.807 495.33 569.9 495.527C570.098 495.979 569.567 497.39 568.828 498.534C568.208 499.534 567.45 500.531 566.661 501.529Z" fill="black"/>
<path d="M571.696 494.841C572.349 494.952 573.018 494.797 573.555 494.408C574.092 494.02 574.454 493.428 574.559 492.768C574.665 492.107 574.506 491.432 574.117 490.896C573.728 490.358 573.141 490.003 572.486 489.904C572.486 489.904 572.486 489.904 572.486 489.904C572.801 489.962 573.242 490.141 573.548 490.733C573.697 491.024 573.775 491.454 573.692 491.85C573.614 492.248 573.406 492.542 573.255 492.691C574.429 491.487 576.338 490.398 578.227 489.695C583.763 487.592 590.145 488.359 595.499 491.336L595.371 491.259C621.003 501.627 619.945 532.313 624.532 556.574C627.36 578.113 642.585 597.335 662.729 604.936C665.544 606.019 668.44 606.886 671.384 607.525C671.624 607.578 671.877 607.532 672.086 607.399C672.295 607.266 672.443 607.057 672.497 606.816C672.551 606.576 672.508 606.324 672.377 606.114C672.246 605.904 672.038 605.753 671.798 605.697C671.798 605.697 671.798 605.697 671.798 605.697C668.959 605.027 666.174 604.14 663.475 603.046C644.15 595.363 629.959 576.626 627.649 556.17C623.597 532.361 624.861 499.168 597.81 487.484C597.785 487.468 597.708 487.422 597.682 487.407C591.532 483.82 583.575 482.605 576.577 485.141C574.139 486.032 571.831 487.168 569.709 489.215C568.889 489.904 568.407 491.792 569.089 492.955C569.688 494.133 570.743 494.685 571.696 494.841Z" fill="black"/>
<path d="M729.005 149.204C729.729 149.401 730.452 149.599 731.176 149.796C731.76 148.602 732.186 147.319 732.464 145.996C733.636 140.75 732.056 134.482 727.923 130.422C722.14 124.697 714.341 123.119 707.279 122.765C696.873 122.509 685.885 122.376 676.089 127.896C674.986 128.658 673.847 129.451 673.084 130.997C673.755 131.332 674.426 131.668 675.097 132.003C675.503 131.389 676.49 130.727 677.456 130.262C686.343 126.601 696.95 127.436 706.902 128.235C713.312 128.846 719.657 130.597 723.658 134.643C726.497 137.485 728.32 141.296 728.87 145.787C729.005 146.902 729.059 148.052 729.005 149.204Z" fill="#F2EAD5"/>
<path d="M1299.15 677.089C1295.89 700.412 1275.28 706.921 1273.11 706.379C1277.45 707.464 1287.54 707.898 1293.18 700.955C1300.23 692.277 1311.08 672.75 1305.66 646.715C1303.61 636.906 1303.09 627.273 1303.3 619.052C1303.21 618.379 1303.2 617.561 1303.38 616.829C1303.73 608.624 1304.78 602.043 1305.66 598.441C1305.79 597.771 1305.91 597.043 1306 596.271C1306.99 587.795 1304.75 574.018 1288.84 573.106C1311.01 580.492 1296.48 617.201 1296.98 620.679C1297.52 624.476 1302.4 653.766 1299.15 677.089Z" fill="#1EF79A"/>
<path d="M1306 596.271C1305.91 597.043 1305.79 597.771 1305.66 598.441C1304.78 602.043 1303.73 608.624 1303.38 616.829C1303.77 615.2 1305.08 614.001 1308.37 615.797C1313.14 618.401 1320.48 620.137 1323.56 620.679C1324.46 617.244 1325.73 610.374 1323.56 610.374C1321.39 610.374 1317.59 608.927 1315.96 608.204C1308.15 604.299 1306.07 598.622 1306 596.271Z" fill="#1EF79A"/>
<path d="M1273.11 706.379C1271.38 705.945 1269.86 704.39 1269.32 703.667C1267.15 700.774 1263.68 691.842 1267.15 679.259C1270.62 666.675 1263.53 640.386 1259.55 628.815C1260.1 631.527 1262.7 637.277 1268.77 638.578C1274.85 639.88 1277.09 623.934 1277.45 615.797C1276.73 604.226 1274.09 580.541 1269.32 578.372C1264.54 576.202 1261.18 579.276 1260.1 581.084C1257.93 578.914 1258.47 572.948 1281.79 571.863C1284.48 571.999 1286.81 572.43 1288.84 573.106M1273.11 706.379C1275.28 706.921 1295.89 700.412 1299.15 677.089C1302.4 653.766 1297.52 624.476 1296.98 620.679C1296.48 617.201 1311.01 580.492 1288.84 573.106M1273.11 706.379C1277.45 707.464 1287.54 707.898 1293.18 700.955C1300.23 692.277 1311.08 672.75 1305.66 646.715C1303.61 636.906 1303.09 627.273 1303.3 619.052M1288.84 573.106C1304.75 574.018 1306.99 587.795 1306 596.271M1306 596.271C1305.91 597.043 1305.79 597.771 1305.66 598.441C1304.78 602.043 1303.73 608.624 1303.38 616.829M1306 596.271C1306.07 598.622 1308.15 604.299 1315.96 608.204C1317.59 608.927 1321.39 610.374 1323.56 610.374C1325.73 610.374 1324.46 617.244 1323.56 620.679C1320.48 620.137 1313.14 618.401 1308.37 615.797C1305.08 614.001 1303.77 615.2 1303.38 616.829M1303.3 619.052C1303.21 618.379 1303.2 617.561 1303.38 616.829M1303.3 619.052C1303.32 618.299 1303.35 617.558 1303.38 616.829" stroke="black" stroke-width="1.08481" stroke-linecap="round"/>
<path d="M1269.32 578.372C1264.54 576.202 1261.18 579.276 1260.1 581.084C1257.93 578.914 1258.47 572.948 1281.79 571.863C1284.48 571.999 1286.81 572.43 1288.84 573.106C1311.01 580.492 1296.48 617.201 1296.98 620.679C1297.52 624.476 1302.4 653.766 1299.15 677.089C1295.89 700.412 1275.28 706.921 1273.11 706.379C1271.38 705.945 1269.86 704.39 1269.32 703.667C1267.15 700.774 1263.68 691.842 1267.15 679.259C1270.38 667.541 1264.46 643.94 1260.41 631.404C1259.97 630.424 1259.69 629.518 1259.55 628.815C1259.83 629.612 1260.12 630.478 1260.41 631.404C1261.68 634.208 1264.27 637.614 1268.77 638.578C1274.85 639.88 1277.09 623.934 1277.45 615.797C1276.73 604.226 1274.09 580.541 1269.32 578.372Z" fill="#E789FA"/>
<path d="M1260.1 581.084C1261.18 579.276 1264.54 576.202 1269.32 578.372C1274.09 580.541 1276.73 604.226 1277.45 615.797C1277.09 623.934 1274.85 639.88 1268.77 638.578C1262.7 637.277 1260.1 631.527 1259.55 628.815C1263.53 640.386 1270.62 666.675 1267.15 679.259C1263.68 691.842 1267.15 700.774 1269.32 703.667C1269.86 704.39 1271.38 705.945 1273.11 706.379C1275.28 706.921 1295.89 700.412 1299.15 677.089C1302.4 653.766 1297.52 624.476 1296.98 620.679C1296.48 617.201 1311.01 580.492 1288.84 573.106C1286.81 572.43 1284.48 571.999 1281.79 571.863C1258.47 572.948 1257.93 578.914 1260.1 581.084Z" stroke="black" stroke-width="1.08481" stroke-linecap="round"/>
<path d="M1240.09 193.863C1237.29 200.263 1237.59 216.53 1238.09 223.863C1239.09 223.863 1258.59 178.5 1286.09 186.5C1299.2 190.315 1303.59 193.863 1302.59 196.863C1306.26 198.696 1314.09 200.499 1308.09 222.863C1303.05 241.648 1299.26 241.479 1300.09 253.363C1299.59 266.525 1300.79 295.652 1321.59 306.863C1324.75 308.363 1332.96 311.663 1340.58 312.863C1320.7 337.543 1337.64 354.986 1338.59 357.635C1339.59 360.406 1340.59 359.877 1345.59 355.877C1349.59 352.677 1355.26 354.544 1357.59 355.877C1358.42 361.039 1363.19 371.363 1375.59 371.363C1391.09 371.363 1394.59 355.877 1393.59 351.363C1392.79 347.752 1390.59 349.858 1389.59 351.363C1388.26 350.363 1386.39 348.163 1389.59 347.363C1393.59 346.363 1399.09 348.363 1400.59 359.877C1402.09 371.391 1382.59 380.863 1380.09 384.363C1377.59 387.863 1378.09 401.037 1397.09 408.863C1416.09 416.69 1426.59 404.863 1429.59 395.363C1432.59 385.863 1426.09 370.363 1429.59 371.363C1433.09 372.363 1445.09 389.363 1453.59 388.863C1460.39 388.463 1465.86 371.372 1467.75 362.877C1457.57 366.829 1440.09 367.998 1422.25 357.635C1438.59 365.363 1450.09 359.877 1463.75 352.863C1477.41 345.849 1475.25 320.877 1475.25 311.863C1475.25 309.213 1476.38 306.619 1478.01 304.275C1461.37 316.049 1441.64 314.082 1422.25 300.363C1398.91 283.853 1407.59 232.363 1393.59 196.863C1379.59 161.363 1330.09 150.363 1293.59 155.363C1257.09 160.363 1243.59 185.863 1240.09 193.863Z" fill="black"/>
<path d="M1467.75 362.877C1448.86 370.206 1404.89 367.963 1380.09 300.363M1467.75 362.877C1465.86 371.372 1460.39 388.463 1453.59 388.863C1445.09 389.363 1433.09 372.363 1429.59 371.363C1426.09 370.363 1432.59 385.863 1429.59 395.363C1426.59 404.863 1416.09 416.69 1397.09 408.863C1378.09 401.037 1377.59 387.863 1380.09 384.363C1382.59 380.863 1402.09 371.391 1400.59 359.877C1399.09 348.363 1393.59 346.363 1389.59 347.363C1386.39 348.163 1388.26 350.363 1389.59 351.363C1390.59 349.858 1392.79 347.752 1393.59 351.363C1394.59 355.877 1391.09 371.363 1375.59 371.363C1363.19 371.363 1358.42 361.039 1357.59 355.877C1355.26 354.544 1349.59 352.677 1345.59 355.877C1340.59 359.877 1339.59 360.406 1338.59 357.635C1337.64 354.986 1320.7 337.543 1340.58 312.863M1467.75 362.877C1457.57 366.829 1440.09 367.998 1422.25 357.635C1438.59 365.363 1450.09 359.877 1463.75 352.863C1477.41 345.849 1475.25 320.877 1475.25 311.863C1475.25 309.213 1476.38 306.619 1478.01 304.275M1357.59 256.863C1361.09 265.53 1363.19 288.166 1343.59 309.377C1342.5 310.554 1341.5 311.716 1340.58 312.863M1397.09 247.363C1385.59 255.039 1366.59 271.988 1382.59 278.377C1398.59 284.766 1402.59 279.696 1402.59 276.363C1404.76 278.039 1408.89 283.488 1408.09 291.877C1407.09 302.363 1403.93 312.87 1413.09 316.874C1422.25 320.877 1444.43 319.045 1456.09 314.363M1331.09 227.863C1331.09 235.863 1325.09 233.363 1317.09 234.363C1309.09 235.363 1310.59 245.363 1314.09 263.863C1316.89 278.663 1325.26 277.363 1329.09 274.863C1330.76 274.03 1332.19 273.763 1324.59 279.363C1315.09 286.363 1303.75 271.863 1300.59 256.863C1300.33 255.608 1300.16 254.448 1300.09 253.363M1300.09 253.363C1299.26 241.479 1303.05 241.648 1308.09 222.863C1314.09 200.499 1306.26 198.696 1302.59 196.863C1303.59 193.863 1299.2 190.315 1286.09 186.5C1258.59 178.5 1239.09 223.863 1238.09 223.863C1237.59 216.53 1237.29 200.263 1240.09 193.863C1243.59 185.863 1257.09 160.363 1293.59 155.363C1330.09 150.363 1379.59 161.363 1393.59 196.863C1407.59 232.363 1398.91 283.853 1422.25 300.363C1441.64 314.082 1461.37 316.049 1478.01 304.275M1300.09 253.363C1299.59 266.525 1300.79 295.652 1321.59 306.863C1324.75 308.363 1332.96 311.663 1340.58 312.863M1478.01 304.275C1480.81 300.239 1485.12 296.941 1487.75 295.363C1484.65 298.914 1481.39 301.879 1478.01 304.275Z" stroke="black" stroke-linecap="round"/>
<path d="M1326.3 241.441C1329.54 232.185 1321.09 233.5 1316.51 231.576C1313.39 237.385 1311.41 249.54 1313.48 252.233C1316.06 255.599 1322.25 253.012 1326.3 241.441Z" fill="#F2EAD5" stroke="black"/>
<path d="M1358.52 256.489C1358.42 256.242 1358.23 256.044 1357.99 255.941C1357.74 255.837 1357.46 255.836 1357.22 255.936C1356.97 256.036 1356.77 256.23 1356.67 256.474C1356.56 256.718 1356.56 256.993 1356.66 257.238C1356.66 257.238 1356.66 257.238 1356.66 257.238C1357.04 258.134 1357.35 259.071 1357.62 260.038C1362.12 277.238 1355.37 296.051 1343.28 309.091C1342.94 309.47 1342.6 309.853 1342.26 310.239C1341.59 311.02 1340.92 311.816 1340.28 312.628C1340.22 312.705 1340.2 312.804 1340.21 312.902C1340.22 313.001 1340.27 313.09 1340.34 313.152C1340.42 313.214 1340.52 313.243 1340.62 313.233C1340.72 313.223 1340.81 313.174 1340.87 313.098C1340.87 313.098 1340.87 313.098 1340.87 313.098C1341.52 312.309 1342.19 311.536 1342.87 310.778C1343.21 310.403 1343.55 310.031 1343.9 309.663C1356.37 296.711 1363.83 277.713 1359.49 259.534C1359.22 258.498 1358.91 257.487 1358.52 256.489Z" fill="#F2EAD5"/>
<path d="M1394.54 250.312C1394.62 250.255 1394.67 250.17 1394.69 250.073C1394.71 249.976 1394.69 249.876 1394.63 249.795C1394.58 249.714 1394.5 249.657 1394.4 249.637C1394.3 249.617 1394.2 249.636 1394.12 249.688C1394.12 249.688 1394.12 249.688 1394.12 249.688C1391.86 251.103 1389.78 252.848 1387.87 254.711C1380.96 262.118 1372.24 272.355 1377.3 283.763C1378.68 285.994 1380.91 287.517 1383.22 288.427C1386.91 289.817 1391.05 291.243 1395.34 289.766C1399.88 288.08 1400.88 282.812 1400.79 279L1399.24 279.759C1403.2 283.155 1404.97 289.044 1404.43 294.428C1404.03 298.965 1403.14 303.515 1403.15 308.259C1402.94 312.877 1405.22 318.504 1410.03 320.198C1421.86 324.089 1434.19 322.303 1445.86 319.771C1448.44 319.13 1451.01 318.362 1453.47 317.348C1453.56 317.31 1453.63 317.238 1453.67 317.147C1453.71 317.056 1453.71 316.953 1453.67 316.861C1453.64 316.769 1453.56 316.696 1453.47 316.657C1453.38 316.618 1453.28 316.616 1453.19 316.652C1453.19 316.652 1453.19 316.652 1453.19 316.652C1450.76 317.594 1448.21 318.302 1445.65 318.885C1434.14 321.191 1421.59 322.624 1410.63 318.823C1401.55 314.934 1405.59 303.227 1406.22 294.599C1406.81 288.736 1405.15 282.378 1400.41 278.241L1398.86 277.048L1398.87 279C1398.94 282.69 1397.93 286.776 1394.64 287.927C1391.39 289.09 1387.45 287.94 1383.96 286.573C1381.91 285.76 1380.09 284.482 1379 282.706C1374.67 273.686 1382.22 263.009 1388.73 255.548C1390.5 253.638 1392.43 251.823 1394.54 250.312Z" fill="#F2EAD5"/>
<path d="M1325.31 276.849C1325.27 276.88 1325.25 276.923 1325.24 276.972C1325.23 277.021 1325.24 277.07 1325.27 277.109C1325.3 277.148 1325.35 277.175 1325.39 277.182C1325.44 277.19 1325.49 277.178 1325.53 277.151C1325.53 277.151 1325.53 277.151 1325.53 277.151C1326.41 276.556 1327.27 275.962 1328.13 275.339C1328.94 274.753 1329.73 274.166 1330.51 273.521C1330.69 273.363 1330.89 273.191 1331.08 273.016C1331.18 272.921 1331.27 272.83 1331.36 272.727C1331.46 272.594 1331.55 272.574 1331.65 272.226C1331.68 272.156 1331.66 271.855 1331.47 271.731C1331.28 271.611 1331.2 271.634 1331.14 271.626C1331 271.626 1330.92 271.647 1330.85 271.663C1330.69 271.7 1330.57 271.745 1330.44 271.792C1330.19 271.887 1329.95 271.993 1329.72 272.103L1329.68 272.128C1327.88 273.244 1325.68 273.807 1323.63 273.438C1318.43 272.418 1316.36 266.4 1315.38 261.414C1313.94 252.386 1311.35 242.39 1315.68 234.09C1316.27 233.261 1317.06 232.572 1317.99 232.173C1318.04 232.154 1318.08 232.117 1318.09 232.072C1318.11 232.026 1318.11 231.974 1318.09 231.929C1318.08 231.883 1318.04 231.847 1317.99 231.828C1317.95 231.809 1317.9 231.808 1317.85 231.827C1317.85 231.827 1317.85 231.827 1317.85 231.827C1316.83 232.227 1315.96 232.952 1315.31 233.819C1310.58 242.45 1313.12 252.472 1314.47 261.586C1315.45 266.646 1317.42 273.146 1323.46 274.422C1325.82 274.842 1328.23 274.16 1330.16 272.872L1330.12 272.897C1330.33 272.787 1330.55 272.681 1330.76 272.593C1330.86 272.549 1330.97 272.509 1331.05 272.484C1331.09 272.473 1331.14 272.466 1331.13 272.466C1331.12 272.459 1331.1 272.486 1330.97 272.404C1330.83 272.314 1330.82 272.089 1330.84 272.073C1330.88 271.974 1330.8 272.128 1330.74 272.196C1330.67 272.276 1330.6 272.359 1330.51 272.448C1330.35 272.613 1330.17 272.786 1330 272.946C1329.28 273.604 1328.53 274.233 1327.76 274.864C1326.95 275.536 1326.14 276.188 1325.31 276.849Z" fill="#F2EAD5"/>
<path d="M1286.94 158.414C1287.04 159.157 1287.14 159.9 1287.24 160.644C1288.99 160.663 1290.72 160.762 1292.47 160.884C1299.46 161.403 1306.38 162.252 1313.23 163.25C1326.7 165.364 1340.98 169.175 1349.66 179.066C1356.38 187.153 1362.65 195.79 1366.79 205.399C1367.46 206.988 1368.07 208.635 1368.49 210.249C1369.22 210.102 1369.96 209.955 1370.69 209.808C1370.4 207.962 1369.91 206.19 1369.36 204.454C1365.9 194.016 1360.03 184.664 1353.52 175.992C1343.62 163.699 1328.25 159.603 1314.11 157.314C1306.89 156.263 1299.55 156.194 1292.31 157.288C1290.5 157.569 1288.72 157.925 1286.94 158.414Z" fill="#F2EAD5"/>
<path d="M1005.59 236.363L1003.09 234.863C1003.09 230.863 1033.09 185.863 1048.09 163.863C1051.09 163.863 1056.39 164.863 1053.59 168.863C1051.69 171.576 1037.92 191.601 1024.09 211C1023.42 210.621 1021.49 210.951 1021.09 211.862C1020.59 213 1019.17 215 1020.63 216C1015.12 223.685 1009.82 230.901 1005.59 236.363Z" fill="#1DD0F0" stroke="black"/>
<path d="M1046.09 182.363C1045.69 181.563 1038.92 178.696 1035.59 177.363L1055.09 148.863C1054.59 149.196 1053.29 149.863 1052.09 149.863C1050.89 149.863 1039.92 165.53 1034.59 173.363C1034.26 173.863 1033.69 174.663 1032.09 173.863C1030.09 172.863 1050.09 149.863 1051.09 148.863C1051.89 148.063 1057.72 145.53 1060.54 144.363C1062.83 143.183 1065.38 142.757 1067.59 144.363C1073.09 148.363 1046.59 183.363 1046.09 182.363Z" fill="#1EF79A"/>
<path d="M1055.09 148.863L1035.59 177.363C1038.92 178.696 1045.69 181.563 1046.09 182.363C1046.59 183.363 1073.09 148.363 1067.59 144.363C1065.38 142.757 1062.83 143.183 1060.54 144.363M1055.09 148.863C1056.25 147.451 1058.27 145.535 1060.54 144.363M1055.09 148.863C1054.59 149.196 1053.29 149.863 1052.09 149.863C1050.89 149.863 1039.92 165.53 1034.59 173.363C1034.26 173.863 1033.69 174.663 1032.09 173.863C1030.09 172.863 1050.09 149.863 1051.09 148.863C1051.89 148.063 1057.72 145.53 1060.54 144.363" stroke="black" stroke-width="2"/>
<defs>
<linearGradient id="paint0_linear_51_98" x1="1714.02" y1="310.604" x2="1108.55" y2="310.604" gradientUnits="userSpaceOnUse">
<stop stop-color="#1DD0F0"/>
<stop offset="0.543269" stop-color="#E789FA"/>
</linearGradient>
<linearGradient id="paint1_linear_51_98" x1="989.045" y1="369.363" x2="989.045" y2="417.863" gradientUnits="userSpaceOnUse">
<stop stop-color="#1DD0F0"/>
<stop offset="0.5" stop-color="#9946F7"/>
<stop offset="0.75" stop-color="#E789FA"/>
<stop offset="1" stop-color="#FFD412"/>
</linearGradient>
<linearGradient id="paint2_linear_51_98" x1="977.352" y1="255.863" x2="977.352" y2="309.084" gradientUnits="userSpaceOnUse">
<stop stop-color="#1DD0F0"/>
<stop offset="0.5" stop-color="#9946F7"/>
<stop offset="0.75" stop-color="#E789FA"/>
<stop offset="1" stop-color="#FFD412"/>
</linearGradient>
<linearGradient id="paint3_linear_51_98" x1="999.313" y1="325.883" x2="999.313" y2="401.102" gradientUnits="userSpaceOnUse">
<stop stop-color="#1DD0F0"/>
<stop offset="0.5" stop-color="#9946F7"/>
<stop offset="0.75" stop-color="#E789FA"/>
<stop offset="1" stop-color="#FFD412"/>
</linearGradient>
<linearGradient id="paint4_linear_51_98" x1="541.771" y1="106" x2="541.771" y2="707.5" gradientUnits="userSpaceOnUse">
<stop stop-color="#FFD412"/>
<stop offset="1" stop-color="#E789FA"/>
</linearGradient>
</defs>
</svg>
